<svg
    xmlns="http://www.w3.org/2000/svg"
    viewBox="0 0 30 41"
    id="vector">
    <path
        id="path"
        d="M 29.107 8.887 L 21.834 1.57 C 21.074 0.845 19.438 1 18.352 1 L 4.231 1 C 1.898 1 0 2.928 0 5.297 L 0 36.703 C 0 39.072 1.898 41 4.231 41 L 25.769 41 C 28.102 41 30 39.072 30 36.703 L 30 12.424 C 30 11.248 29.948 9.695 29.107 8.887 Z M 27.06 10.975 L 20.499 10.975 C 20.257 10.975 20.06 10.749 20.06 10.471 L 20.06 3.375 L 27.06 10.975 Z M 25.599 38.656 L 4.217 38.656 C 3.164 38.656 2.308 37.788 2.308 36.72 L 2.308 5.592 C 2.308 4.525 3.164 3.656 4.217 3.656 L 17.644 3.656 L 17.668 10.991 C 17.668 12.485 19.085 13.322 20.559 13.322 L 27.508 13.322 L 27.508 36.72 C 27.508 37.788 26.651 38.656 25.599 38.656 Z"
        fill="#42ae9f"
        stroke="#00000000"
        stroke-width="1"/>
    <path
        id="path_1"
        d="M 5.6 6 L 14.4 6 C 14.559 6 14.712 6.063 14.824 6.176 C 14.937 6.288 15 6.441 15 6.6 L 15 7.8 C 15 7.959 14.937 8.112 14.824 8.224 C 14.712 8.337 14.559 8.4 14.4 8.4 L 5.6 8.4 C 5.441 8.4 5.288 8.337 5.176 8.224 C 5.063 8.112 5 7.959 5 7.8 L 5 6.6 C 5 6.441 5.063 6.288 5.176 6.176 C 5.288 6.063 5.441 6 5.6 6 Z"
        fill="#42ae9f"
        stroke="#00000000"
        stroke-width="1"
        fill-rule="evenodd"/>
    <path
        id="path_2"
        d="M 5.6 11 L 14.4 11 C 14.559 11 14.712 11.063 14.824 11.176 C 14.937 11.288 15 11.441 15 11.6 L 15 12.8 C 15 12.959 14.937 13.112 14.824 13.224 C 14.712 13.337 14.559 13.4 14.4 13.4 L 5.6 13.4 C 5.441 13.4 5.288 13.337 5.176 13.224 C 5.063 13.112 5 12.959 5 12.8 L 5 11.6 C 5 11.441 5.063 11.288 5.176 11.176 C 5.288 11.063 5.441 11 5.6 11 Z"
        fill="#42ae9f"
        stroke="#00000000"
        stroke-width="1"
        fill-rule="evenodd"/>
    <path
        id="path_3"
        d="M 13.857 21.662 L 13.857 23.068 C 13.857 23.301 13.665 23.49 13.429 23.49 L 12 23.49 C 11.763 23.49 11.571 23.301 11.571 23.068 L 11.571 21.662 C 11.571 21.429 11.763 21.24 12 21.24 L 13.429 21.24 C 13.665 21.24 13.857 21.429 13.857 21.662 Z M 18 21.24 L 16.571 21.24 C 16.335 21.24 16.143 21.429 16.143 21.662 L 16.143 23.068 C 16.143 23.301 16.335 23.49 16.571 23.49 L 18 23.49 C 18.237 23.49 18.429 23.301 18.429 23.068 L 18.429 21.662 C 18.429 21.429 18.237 21.24 18 21.24 Z M 13.429 24.615 L 12 24.615 C 11.763 24.615 11.571 24.804 11.571 25.037 L 11.571 26.443 C 11.571 26.676 11.763 26.865 12 26.865 L 13.429 26.865 C 13.665 26.865 13.857 26.676 13.857 26.443 L 13.857 25.037 C 13.857 24.804 13.665 24.615 13.429 24.615 Z M 18 24.615 L 16.571 24.615 C 16.335 24.615 16.143 24.804 16.143 25.037 L 16.143 26.443 C 16.143 26.676 16.335 26.865 16.571 26.865 L 18 26.865 C 18.237 26.865 18.429 26.676 18.429 26.443 L 18.429 25.037 C 18.429 24.804 18.237 24.615 18 24.615 Z M 13.429 27.99 L 12 27.99 C 11.763 27.99 11.571 28.179 11.571 28.412 L 11.571 29.818 C 11.571 30.051 11.763 30.24 12 30.24 L 13.429 30.24 C 13.665 30.24 13.857 30.051 13.857 29.818 L 13.857 28.412 C 13.857 28.179 13.665 27.99 13.429 27.99 Z M 18 27.99 L 16.571 27.99 C 16.335 27.99 16.143 28.179 16.143 28.412 L 16.143 29.818 C 16.143 30.051 16.335 30.24 16.571 30.24 L 18 30.24 C 18.237 30.24 18.429 30.051 18.429 29.818 L 18.429 28.412 C 18.429 28.179 18.237 27.99 18 27.99 Z M 23 35.197 L 23 35.9 L 7 35.9 L 7 35.197 C 7 34.964 7.192 34.775 7.429 34.775 L 8.143 34.775 L 8.174 18.341 C 8.174 17.875 8.558 17.497 9.031 17.497 L 21.031 17.497 C 21.505 17.497 21.888 17.875 21.888 18.341 L 21.857 34.775 L 22.571 34.775 C 22.808 34.775 23 34.964 23 35.197 Z M 20.714 34.775 L 20.714 18.775 L 9.286 18.775 L 9.286 34.775 L 13.857 34.775 L 13.857 31.739 C 13.857 31.503 14.049 31.311 14.286 31.311 L 15.714 31.311 C 15.951 31.311 16.143 31.503 16.143 31.739 L 16.143 34.775 L 20.714 34.775 Z"
        fill="#42ae9f"
        stroke="#00000000"
        stroke-width="1"/>
</svg>
