<svg
    xmlns="http://www.w3.org/2000/svg"
    viewBox="0 0 253 71"
    id="vector">
    <defs>
        <clipPath id="clip_group">
            <path d="M 0 0.7 L 252 0.7 L 252 70.588 L 0 70.588 Z"/>
        </clipPath>
        <clipPath id="clip_path">
            <path d="M 2.229 18.203 L 105.265 18.203 L 105.265 55.319 L 2.229 55.319 Z"/>
        </clipPath>
        <clipPath id="clip_path_1">
            <path d="M 2.229 18.203 L 105.265 18.203 L 105.265 55.319 L 2.229 55.319 Z"/>
        </clipPath>
        <clipPath id="clip_path_2">
            <path d="M 2.229 18.203 L 105.265 18.203 L 105.265 55.319 L 2.229 55.319 Z"/>
        </clipPath>
        <clipPath id="clip_path_3">
            <path d="M 2.229 18.203 L 105.265 18.203 L 105.265 55.319 L 2.229 55.319 Z"/>
        </clipPath>
        <clipPath id="clip_path_4">
            <path d="M 2.229 18.203 L 105.265 18.203 L 105.265 55.319 L 2.229 55.319 Z"/>
        </clipPath>
        <clipPath id="clip_path_5">
            <path d="M 2.229 18.203 L 105.265 18.203 L 105.265 55.319 L 2.229 55.319 Z"/>
        </clipPath>
        <clipPath id="clip_path_6">
            <path d="M 2.229 18.203 L 105.265 18.203 L 105.265 55.319 L 2.229 55.319 Z"/>
        </clipPath>
        <clipPath id="clip_path_7">
            <path d="M 2.229 18.203 L 105.265 18.203 L 105.265 55.319 L 2.229 55.319 Z"/>
        </clipPath>
        <clipPath id="clip_path_8">
            <path d="M 2.229 18.203 L 105.265 18.203 L 105.265 55.319 L 2.229 55.319 Z"/>
        </clipPath>
        <clipPath id="clip_path_9">
            <path d="M 2.229 18.203 L 105.265 18.203 L 105.265 55.319 L 2.229 55.319 Z"/>
        </clipPath>
        <clipPath id="clip_path_10">
            <path d="M 2.229 18.203 L 105.265 18.203 L 105.265 55.319 L 2.229 55.319 Z"/>
        </clipPath>
        <clipPath id="clip_path_11">
            <path d="M 2.229 18.203 L 105.265 18.203 L 105.265 55.319 L 2.229 55.319 Z"/>
        </clipPath>
        <clipPath id="clip_path_12">
            <path d="M 2.229 18.203 L 105.265 18.203 L 105.265 55.319 L 2.229 55.319 Z"/>
        </clipPath>
        <clipPath id="clip_path_13">
            <path d="M 2.229 18.203 L 105.265 18.203 L 105.265 55.319 L 2.229 55.319 Z"/>
        </clipPath>
        <clipPath id="clip_path_14">
            <path d="M 2.229 18.203 L 105.265 18.203 L 105.265 55.319 L 2.229 55.319 Z"/>
        </clipPath>
        <clipPath id="clip_path_15">
            <path d="M 2.229 18.203 L 105.265 18.203 L 105.265 55.319 L 2.229 55.319 Z"/>
        </clipPath>
        <clipPath id="clip_path_16">
            <path d="M 2.229 18.203 L 105.265 18.203 L 105.265 55.319 L 2.229 55.319 Z"/>
        </clipPath>
        <clipPath id="clip_path_17">
            <path d="M 2.229 18.203 L 105.265 18.203 L 105.265 55.319 L 2.229 55.319 Z"/>
        </clipPath>
        <clipPath id="clip_path_18">
            <path d="M 2.229 18.203 L 105.265 18.203 L 105.265 55.319 L 2.229 55.319 Z"/>
        </clipPath>
        <clipPath id="clip_path_19">
            <path d="M 2.229 18.203 L 105.265 18.203 L 105.265 55.319 L 2.229 55.319 Z"/>
        </clipPath>
        <clipPath id="clip_path_20">
            <path d="M 2.229 18.203 L 105.265 18.203 L 105.265 55.319 L 2.229 55.319 Z"/>
        </clipPath>
        <clipPath id="clip_path_21">
            <path d="M 2.229 18.203 L 105.265 18.203 L 105.265 55.319 L 2.229 55.319 Z"/>
        </clipPath>
        <clipPath id="clip_path_22">
            <path d="M 2.229 18.203 L 105.265 18.203 L 105.265 55.319 L 2.229 55.319 Z"/>
        </clipPath>
        <clipPath id="clip_path_23">
            <path d="M 2.229 18.203 L 105.265 18.203 L 105.265 55.319 L 2.229 55.319 Z"/>
        </clipPath>
        <clipPath id="clip_path_24">
            <path d="M 2.229 18.203 L 105.265 18.203 L 105.265 55.319 L 2.229 55.319 Z"/>
        </clipPath>
        <clipPath id="clip_path_25">
            <path d="M 2.229 18.203 L 105.265 18.203 L 105.265 55.319 L 2.229 55.319 Z"/>
        </clipPath>
        <clipPath id="clip_path_26">
            <path d="M 2.229 18.203 L 105.265 18.203 L 105.265 55.319 L 2.229 55.319 Z"/>
        </clipPath>
        <clipPath id="clip_path_27">
            <path d="M 2.229 18.203 L 105.265 18.203 L 105.265 55.319 L 2.229 55.319 Z"/>
        </clipPath>
        <clipPath id="clip_path_28">
            <path d="M 2.229 18.203 L 105.265 18.203 L 105.265 55.319 L 2.229 55.319 Z"/>
        </clipPath>
        <clipPath id="clip_path_29">
            <path d="M 2.229 18.203 L 105.265 18.203 L 105.265 55.319 L 2.229 55.319 Z"/>
        </clipPath>
        <clipPath id="clip_path_30">
            <path d="M 2.229 18.203 L 105.265 18.203 L 105.265 55.319 L 2.229 55.319 Z"/>
        </clipPath>
        <clipPath id="clip_path_31">
            <path d="M 2.229 18.203 L 105.265 18.203 L 105.265 55.319 L 2.229 55.319 Z"/>
        </clipPath>
        <clipPath id="clip_path_32">
            <path d="M 2.229 18.203 L 105.265 18.203 L 105.265 55.319 L 2.229 55.319 Z"/>
        </clipPath>
        <clipPath id="clip_path_33">
            <path d="M 2.229 18.203 L 105.265 18.203 L 105.265 55.319 L 2.229 55.319 Z"/>
        </clipPath>
        <clipPath id="clip_path_34">
            <path d="M 2.229 18.203 L 105.265 18.203 L 105.265 55.319 L 2.229 55.319 Z"/>
        </clipPath>
        <clipPath id="clip_path_35">
            <path d="M 2.229 18.203 L 105.265 18.203 L 105.265 55.319 L 2.229 55.319 Z"/>
        </clipPath>
        <clipPath id="clip_path_36">
            <path d="M 2.229 18.203 L 105.265 18.203 L 105.265 55.319 L 2.229 55.319 Z"/>
        </clipPath>
        <clipPath id="clip_path_37">
            <path d="M 2.229 18.203 L 105.265 18.203 L 105.265 55.319 L 2.229 55.319 Z"/>
        </clipPath>
        <clipPath id="clip_path_38">
            <path d="M 2.229 18.203 L 105.265 18.203 L 105.265 55.319 L 2.229 55.319 Z"/>
        </clipPath>
        <clipPath id="clip_path_39">
            <path d="M 2.229 18.203 L 105.265 18.203 L 105.265 55.319 L 2.229 55.319 Z"/>
        </clipPath>
        <clipPath id="clip_path_40">
            <path d="M 2.229 18.203 L 105.265 18.203 L 105.265 55.319 L 2.229 55.319 Z"/>
        </clipPath>
        <clipPath id="clip_path_41">
            <path d="M 2.229 18.203 L 105.265 18.203 L 105.265 55.319 L 2.229 55.319 Z"/>
        </clipPath>
        <clipPath id="clip_path_42">
            <path d="M 2.229 18.203 L 105.265 18.203 L 105.265 55.319 L 2.229 55.319 Z"/>
        </clipPath>
        <clipPath id="clip_path_43">
            <path d="M 2.229 18.203 L 105.265 18.203 L 105.265 55.319 L 2.229 55.319 Z"/>
        </clipPath>
        <clipPath id="clip_path_44">
            <path d="M 2.229 18.203 L 105.265 18.203 L 105.265 55.319 L 2.229 55.319 Z"/>
        </clipPath>
        <clipPath id="clip_path_45">
            <path d="M 2.229 18.203 L 105.265 18.203 L 105.265 55.319 L 2.229 55.319 Z"/>
        </clipPath>
        <clipPath id="clip_path_46">
            <path d="M 2.229 18.203 L 105.265 18.203 L 105.265 55.319 L 2.229 55.319 Z"/>
        </clipPath>
        <clipPath id="clip_path_47">
            <path d="M 2.229 18.203 L 105.265 18.203 L 105.265 55.319 L 2.229 55.319 Z"/>
        </clipPath>
        <clipPath id="clip_path_48">
            <path d="M 2.229 18.203 L 105.265 18.203 L 105.265 55.319 L 2.229 55.319 Z"/>
        </clipPath>
        <clipPath id="clip_path_49">
            <path d="M 2.229 18.203 L 105.265 18.203 L 105.265 55.319 L 2.229 55.319 Z"/>
        </clipPath>
        <clipPath id="clip_path_50">
            <path d="M 2.229 18.203 L 105.265 18.203 L 105.265 55.319 L 2.229 55.319 Z"/>
        </clipPath>
        <clipPath id="clip_path_51">
            <path d="M 2.229 18.203 L 105.265 18.203 L 105.265 55.319 L 2.229 55.319 Z"/>
        </clipPath>
        <clipPath id="clip_path_52">
            <path d="M 2.229 18.203 L 105.265 18.203 L 105.265 55.319 L 2.229 55.319 Z"/>
        </clipPath>
        <clipPath id="clip_path_53">
            <path d="M 2.229 18.203 L 105.265 18.203 L 105.265 55.319 L 2.229 55.319 Z"/>
        </clipPath>
        <clipPath id="clip_path_54">
            <path d="M 2.229 18.203 L 105.265 18.203 L 105.265 55.319 L 2.229 55.319 Z"/>
        </clipPath>
        <clipPath id="clip_path_55">
            <path d="M 2.229 18.203 L 105.265 18.203 L 105.265 55.319 L 2.229 55.319 Z"/>
        </clipPath>
        <clipPath id="clip_path_56">
            <path d="M 2.229 18.203 L 105.265 18.203 L 105.265 55.319 L 2.229 55.319 Z"/>
        </clipPath>
        <clipPath id="clip_path_57">
            <path d="M 2.229 18.203 L 105.265 18.203 L 105.265 55.319 L 2.229 55.319 Z"/>
        </clipPath>
        <clipPath id="clip_path_58">
            <path d="M 2.229 18.203 L 105.265 18.203 L 105.265 55.319 L 2.229 55.319 Z"/>
        </clipPath>
        <clipPath id="clip_path_59">
            <path d="M 2.229 18.203 L 105.265 18.203 L 105.265 55.319 L 2.229 55.319 Z"/>
        </clipPath>
        <clipPath id="clip_path_60">
            <path d="M 2.229 18.203 L 105.265 18.203 L 105.265 55.319 L 2.229 55.319 Z"/>
        </clipPath>
        <clipPath id="clip_path_61">
            <path d="M 2.229 18.203 L 105.265 18.203 L 105.265 55.319 L 2.229 55.319 Z"/>
        </clipPath>
        <clipPath id="clip_path_62">
            <path d="M 2.229 18.203 L 105.265 18.203 L 105.265 55.319 L 2.229 55.319 Z"/>
        </clipPath>
        <clipPath id="clip_path_63">
            <path d="M 2.229 18.203 L 105.265 18.203 L 105.265 55.319 L 2.229 55.319 Z"/>
        </clipPath>
        <clipPath id="clip_path_64">
            <path d="M 2.229 18.203 L 105.265 18.203 L 105.265 55.319 L 2.229 55.319 Z"/>
        </clipPath>
        <clipPath id="clip_path_65">
            <path d="M 2.229 18.203 L 105.265 18.203 L 105.265 55.319 L 2.229 55.319 Z"/>
        </clipPath>
        <clipPath id="clip_path_66">
            <path d="M 2.229 18.203 L 105.265 18.203 L 105.265 55.319 L 2.229 55.319 Z"/>
        </clipPath>
        <clipPath id="clip_path_67">
            <path d="M 2.229 18.203 L 105.265 18.203 L 105.265 55.319 L 2.229 55.319 Z"/>
        </clipPath>
        <clipPath id="clip_path_68">
            <path d="M 2.229 18.203 L 105.265 18.203 L 105.265 55.319 L 2.229 55.319 Z"/>
        </clipPath>
        <clipPath id="clip_path_69">
            <path d="M 2.229 18.203 L 105.265 18.203 L 105.265 55.319 L 2.229 55.319 Z"/>
        </clipPath>
        <clipPath id="clip_path_70">
            <path d="M 2.229 18.203 L 105.265 18.203 L 105.265 55.319 L 2.229 55.319 Z"/>
        </clipPath>
        <clipPath id="clip_path_71">
            <path d="M 2.229 18.203 L 105.265 18.203 L 105.265 55.319 L 2.229 55.319 Z"/>
        </clipPath>
        <clipPath id="clip_path_72">
            <path d="M 2.229 18.203 L 105.265 18.203 L 105.265 55.319 L 2.229 55.319 Z"/>
        </clipPath>
        <clipPath id="clip_path_73">
            <path d="M 2.229 18.203 L 105.265 18.203 L 105.265 55.319 L 2.229 55.319 Z"/>
        </clipPath>
        <clipPath id="clip_path_74">
            <path d="M 2.229 18.203 L 105.265 18.203 L 105.265 55.319 L 2.229 55.319 Z"/>
        </clipPath>
        <clipPath id="clip_path_75">
            <path d="M 2.229 18.203 L 105.265 18.203 L 105.265 55.319 L 2.229 55.319 Z"/>
        </clipPath>
        <clipPath id="clip_path_76">
            <path d="M 2.229 18.203 L 105.265 18.203 L 105.265 55.319 L 2.229 55.319 Z"/>
        </clipPath>
        <clipPath id="clip_path_77">
            <path d="M 2.229 18.203 L 105.265 18.203 L 105.265 55.319 L 2.229 55.319 Z"/>
        </clipPath>
        <clipPath id="clip_path_78">
            <path d="M 2.229 18.203 L 105.265 18.203 L 105.265 55.319 L 2.229 55.319 Z"/>
        </clipPath>
        <clipPath id="clip_path_79">
            <path d="M 2.229 18.203 L 105.265 18.203 L 105.265 55.319 L 2.229 55.319 Z"/>
        </clipPath>
        <clipPath id="clip_path_80">
            <path d="M 2.229 18.203 L 105.265 18.203 L 105.265 55.319 L 2.229 55.319 Z"/>
        </clipPath>
        <clipPath id="clip_path_81">
            <path d="M 2.229 18.203 L 105.265 18.203 L 105.265 55.319 L 2.229 55.319 Z"/>
        </clipPath>
        <clipPath id="clip_path_82">
            <path d="M 2.229 18.203 L 105.265 18.203 L 105.265 55.319 L 2.229 55.319 Z"/>
        </clipPath>
        <clipPath id="clip_path_83">
            <path d="M 2.229 18.203 L 105.265 18.203 L 105.265 55.319 L 2.229 55.319 Z"/>
        </clipPath>
        <clipPath id="clip_path_84">
            <path d="M 2.229 18.203 L 105.265 18.203 L 105.265 55.319 L 2.229 55.319 Z"/>
        </clipPath>
        <clipPath id="clip_path_85">
            <path d="M 2.229 18.203 L 105.265 18.203 L 105.265 55.319 L 2.229 55.319 Z"/>
        </clipPath>
        <clipPath id="clip_path_86">
            <path d="M 2.229 18.203 L 105.265 18.203 L 105.265 55.319 L 2.229 55.319 Z"/>
        </clipPath>
        <clipPath id="clip_path_87">
            <path d="M 2.229 18.203 L 105.265 18.203 L 105.265 55.319 L 2.229 55.319 Z"/>
        </clipPath>
        <clipPath id="clip_path_88">
            <path d="M 2.229 18.203 L 105.265 18.203 L 105.265 55.319 L 2.229 55.319 Z"/>
        </clipPath>
        <clipPath id="clip_path_89">
            <path d="M 2.229 18.203 L 105.265 18.203 L 105.265 55.319 L 2.229 55.319 Z"/>
        </clipPath>
        <clipPath id="clip_path_90">
            <path d="M 2.229 18.203 L 105.265 18.203 L 105.265 55.319 L 2.229 55.319 Z"/>
        </clipPath>
        <clipPath id="clip_path_91">
            <path d="M 2.229 18.203 L 105.265 18.203 L 105.265 55.319 L 2.229 55.319 Z"/>
        </clipPath>
        <clipPath id="clip_path_92">
            <path d="M 2.229 18.203 L 105.265 18.203 L 105.265 55.319 L 2.229 55.319 Z"/>
        </clipPath>
        <clipPath id="clip_path_93">
            <path d="M 2.229 18.203 L 105.265 18.203 L 105.265 55.319 L 2.229 55.319 Z"/>
        </clipPath>
        <clipPath id="clip_path_94">
            <path d="M 2.229 18.203 L 105.265 18.203 L 105.265 55.319 L 2.229 55.319 Z"/>
        </clipPath>
        <clipPath id="clip_path_95">
            <path d="M 2.229 18.203 L 105.265 18.203 L 105.265 55.319 L 2.229 55.319 Z"/>
        </clipPath>
        <clipPath id="clip_path_96">
            <path d="M 2.229 18.203 L 105.265 18.203 L 105.265 55.319 L 2.229 55.319 Z"/>
        </clipPath>
        <clipPath id="clip_path_97">
            <path d="M 2.229 18.203 L 105.265 18.203 L 105.265 55.319 L 2.229 55.319 Z"/>
        </clipPath>
        <clipPath id="clip_path_98">
            <path d="M 2.229 18.203 L 105.265 18.203 L 105.265 55.319 L 2.229 55.319 Z"/>
        </clipPath>
        <clipPath id="clip_path_99">
            <path d="M 2.229 18.203 L 105.265 18.203 L 105.265 55.319 L 2.229 55.319 Z"/>
        </clipPath>
        <clipPath id="clip_path_100">
            <path d="M 2.229 18.203 L 105.265 18.203 L 105.265 55.319 L 2.229 55.319 Z"/>
        </clipPath>
        <clipPath id="clip_path_101">
            <path d="M 2.229 18.203 L 105.265 18.203 L 105.265 55.319 L 2.229 55.319 Z"/>
        </clipPath>
        <clipPath id="clip_path_102">
            <path d="M 2.229 18.203 L 105.265 18.203 L 105.265 55.319 L 2.229 55.319 Z"/>
        </clipPath>
        <clipPath id="clip_path_103">
            <path d="M 2.229 18.203 L 105.265 18.203 L 105.265 55.319 L 2.229 55.319 Z"/>
        </clipPath>
        <clipPath id="clip_path_104">
            <path d="M 2.229 18.203 L 105.265 18.203 L 105.265 55.319 L 2.229 55.319 Z"/>
        </clipPath>
        <clipPath id="clip_path_105">
            <path d="M 2.229 18.203 L 105.265 18.203 L 105.265 55.319 L 2.229 55.319 Z"/>
        </clipPath>
        <clipPath id="clip_path_106">
            <path d="M 2.229 18.203 L 105.265 18.203 L 105.265 55.319 L 2.229 55.319 Z"/>
        </clipPath>
        <clipPath id="clip_path_107">
            <path d="M 2.229 18.203 L 105.265 18.203 L 105.265 55.319 L 2.229 55.319 Z"/>
        </clipPath>
        <clipPath id="clip_path_108">
            <path d="M 2.229 18.203 L 105.265 18.203 L 105.265 55.319 L 2.229 55.319 Z"/>
        </clipPath>
        <clipPath id="clip_path_109">
            <path d="M 2.229 18.203 L 105.265 18.203 L 105.265 55.319 L 2.229 55.319 Z"/>
        </clipPath>
        <clipPath id="clip_path_110">
            <path d="M 2.229 18.203 L 105.265 18.203 L 105.265 55.319 L 2.229 55.319 Z"/>
        </clipPath>
        <clipPath id="clip_path_111">
            <path d="M 2.229 18.203 L 105.265 18.203 L 105.265 55.319 L 2.229 55.319 Z"/>
        </clipPath>
        <clipPath id="clip_path_112">
            <path d="M 2.229 18.203 L 105.265 18.203 L 105.265 55.319 L 2.229 55.319 Z"/>
        </clipPath>
        <clipPath id="clip_path_113">
            <path d="M 2.229 18.203 L 105.265 18.203 L 105.265 55.319 L 2.229 55.319 Z"/>
        </clipPath>
        <clipPath id="clip_path_114">
            <path d="M 2.229 18.203 L 105.265 18.203 L 105.265 55.319 L 2.229 55.319 Z"/>
        </clipPath>
        <clipPath id="clip_path_115">
            <path d="M 2.229 18.203 L 105.265 18.203 L 105.265 55.319 L 2.229 55.319 Z"/>
        </clipPath>
        <clipPath id="clip_path_116">
            <path d="M 2.229 18.203 L 105.265 18.203 L 105.265 55.319 L 2.229 55.319 Z"/>
        </clipPath>
        <clipPath id="clip_path_117">
            <path d="M 2.229 18.203 L 105.265 18.203 L 105.265 55.319 L 2.229 55.319 Z"/>
        </clipPath>
        <clipPath id="clip_path_118">
            <path d="M 2.229 18.203 L 105.265 18.203 L 105.265 55.319 L 2.229 55.319 Z"/>
        </clipPath>
    </defs>
    <g id="group_1">
        <g
            id="group"
            clip-path="url(#clip_group)">
            <path
                id="path"
                clip-path="url(#clip_path)"
                d="M 36.368 27.944 L 33.233 29.754 L 33.233 29.755 L 36.368 31.565 L 36.37 27.944 L 36.369 27.944 Z"
                fill="none"
                fill-opacity="0.5"
                stroke-opacity="0.5"/>
            <path
                id="path_1"
                clip-path="url(#clip_path_1)"
                d="M 33.075 42.579 L 36.211 44.389 L 36.211 40.769 Z"
                fill="none"
                fill-opacity="0.5"
                stroke-opacity="0.5"/>
            <path
                id="path_2"
                clip-path="url(#clip_path_2)"
                d="M 31.698 41.372 L 34.833 39.562 L 34.833 39.561 L 31.698 37.751 Z"
                fill="none"
                fill-opacity="0.5"
                stroke-opacity="0.5"/>
            <path
                id="path_3"
                clip-path="url(#clip_path_3)"
                d="M 33.657 36.356 L 36.793 38.166 L 36.793 34.545 L 36.792 34.545 Z"
                fill="none"
                fill-opacity="0.5"
                stroke-opacity="0.5"/>
            <path
                id="path_4"
                clip-path="url(#clip_path_4)"
                d="M 26.471 46.16 L 29.606 47.97 L 29.607 47.97 L 29.607 47.97 L 29.607 44.349 Z"
                fill="none"
                fill-opacity="0.5"
                stroke-opacity="0.5"/>
            <path
                id="path_5"
                clip-path="url(#clip_path_5)"
                d="M 30.128 37.147 L 25.947 39.561 L 25.947 39.562 L 30.129 41.976 L 30.129 41.976 L 30.129 37.147 L 30.129 37.147 Z"
                fill="none"
                fill-opacity="0.5"
                stroke-opacity="0.5"/>
            <path
                id="path_6"
                clip-path="url(#clip_path_6)"
                d="M 25.947 40.166 L 25.947 44.994 L 25.949 44.994 L 30.129 42.579 Z"
                fill="none"
                fill-opacity="0.5"
                stroke-opacity="0.5"/>
            <path
                id="path_7"
                clip-path="url(#clip_path_7)"
                d="M 25.947 38.957 L 30.128 36.544 L 25.947 34.131 Z"
                fill="none"
                fill-opacity="0.5"
                stroke-opacity="0.5"/>
            <path
                id="path_8"
                clip-path="url(#clip_path_8)"
                d="M 27.315 48.689 L 27.315 52.31 L 27.315 52.31 L 30.451 50.498 L 27.316 48.689 Z"
                fill="none"
                fill-opacity="0.5"
                stroke-opacity="0.5"/>
            <path
                id="path_9"
                clip-path="url(#clip_path_9)"
                d="M 20.198 36.544 L 25.423 39.562 L 25.424 39.561 L 25.424 33.528 L 25.424 33.526 L 25.424 33.526 Z"
                fill="none"
                fill-opacity="0.5"
                stroke-opacity="0.5"/>
            <path
                id="path_10"
                clip-path="url(#clip_path_10)"
                d="M 20.721 43.867 L 20.721 48.693 L 20.721 48.693 L 24.902 46.28 Z"
                fill="none"
                fill-opacity="0.5"
                stroke-opacity="0.5"/>
            <path
                id="path_11"
                clip-path="url(#clip_path_11)"
                d="M 21.243 50.385 L 21.243 54.005 L 21.245 54.005 L 24.379 52.195 Z"
                fill="none"
                fill-opacity="0.5"
                stroke-opacity="0.5"/>
            <path
                id="path_12"
                clip-path="url(#clip_path_12)"
                d="M 32.575 48.41 L 32.575 48.41 L 35.71 46.599 L 35.71 46.598 L 32.575 44.788 Z"
                fill="none"
                fill-opacity="0.5"
                stroke-opacity="0.5"/>
            <path
                id="path_13"
                clip-path="url(#clip_path_13)"
                d="M 31.698 35.337 L 34.833 33.526 L 31.698 31.716 Z"
                fill="none"
                fill-opacity="0.5"
                stroke-opacity="0.5"/>
            <path
                id="path_14"
                clip-path="url(#clip_path_14)"
                d="M 25.947 33.525 L 25.947 33.527 L 30.128 35.94 L 30.129 35.94 L 30.129 31.112 L 30.129 31.112 Z"
                fill="none"
                fill-opacity="0.5"
                stroke-opacity="0.5"/>
            <path
                id="path_15"
                clip-path="url(#clip_path_15)"
                d="M 21.244 48.918 L 24.38 50.729 L 24.38 47.108 L 24.38 47.108 Z"
                fill="none"
                fill-opacity="0.5"
                stroke-opacity="0.5"/>
            <path
                id="path_16"
                clip-path="url(#clip_path_16)"
                d="M 24.9 40.849 L 20.721 43.262 L 20.721 43.263 L 24.902 45.677 L 24.902 40.849 Z"
                fill="none"
                fill-opacity="0.5"
                stroke-opacity="0.5"/>
            <path
                id="path_17"
                clip-path="url(#clip_path_17)"
                d="M 20.198 36.544 L 20.198 42.579 L 20.198 42.579 L 25.423 39.562 Z"
                fill="none"
                fill-opacity="0.5"
                stroke-opacity="0.5"/>
            <path
                id="path_18"
                clip-path="url(#clip_path_18)"
                d="M 32.261 24.364 L 32.261 27.983 L 35.397 26.173 L 32.261 24.363 Z"
                fill="none"
                fill-opacity="0.5"
                stroke-opacity="0.5"/>
            <path
                id="path_19"
                clip-path="url(#clip_path_19)"
                d="M 27.123 22.702 L 27.123 22.702 L 30.26 20.891 L 27.124 19.081 Z"
                fill="none"
                fill-opacity="0.5"
                stroke-opacity="0.5"/>
            <path
                id="path_20"
                clip-path="url(#clip_path_20)"
                d="M 25.947 32.922 L 30.129 30.509 L 25.947 28.094 Z"
                fill="none"
                fill-opacity="0.5"
                stroke-opacity="0.5"/>
            <path
                id="path_21"
                clip-path="url(#clip_path_21)"
                d="M 24.379 21.417 L 21.244 23.227 L 21.244 23.228 L 24.379 25.038 L 24.381 21.417 Z"
                fill="none"
                fill-opacity="0.5"
                stroke-opacity="0.5"/>
            <path
                id="path_22"
                clip-path="url(#clip_path_22)"
                d="M 20.721 29.825 L 20.721 29.826 L 24.902 32.239 L 24.902 27.411 Z"
                fill="none"
                fill-opacity="0.5"
                stroke-opacity="0.5"/>
            <path
                id="path_23"
                clip-path="url(#clip_path_23)"
                d="M 14.972 33.525 L 20.198 36.544 L 20.198 36.544 L 20.198 30.509 Z"
                fill="none"
                fill-opacity="0.5"
                stroke-opacity="0.5"/>
            <path
                id="path_24"
                clip-path="url(#clip_path_24)"
                d="M 15.495 26.808 L 19.676 29.222 L 19.676 29.222 L 19.676 29.221 L 19.676 24.394 L 19.676 24.393 L 19.675 24.393 Z"
                fill="none"
                fill-opacity="0.5"
                stroke-opacity="0.5"/>
            <path
                id="path_25"
                clip-path="url(#clip_path_25)"
                d="M 19.152 18.398 L 16.016 20.209 L 19.152 22.019 L 19.153 22.018 L 19.153 18.398 Z"
                fill="none"
                fill-opacity="0.5"
                stroke-opacity="0.5"/>
            <path
                id="path_26"
                clip-path="url(#clip_path_26)"
                d="M 14.448 28.094 L 10.267 30.507 L 10.267 30.509 L 14.448 32.922 L 14.448 32.102 L 14.45 28.094 Z"
                fill="none"
                fill-opacity="0.5"
                stroke-opacity="0.5"/>
            <path
                id="path_27"
                clip-path="url(#clip_path_27)"
                d="M 9.63 22.963 L 9.63 22.964 L 12.766 24.774 L 12.766 24.772 L 12.766 21.153 L 12.766 21.153 Z"
                fill="none"
                fill-opacity="0.5"
                stroke-opacity="0.5"/>
            <path
                id="path_28"
                clip-path="url(#clip_path_28)"
                d="M 26.47 26.927 L 29.607 28.739 L 29.607 28.737 L 29.607 25.117 L 29.607 25.116 Z"
                fill="none"
                fill-opacity="0.5"
                stroke-opacity="0.5"/>
            <path
                id="path_29"
                clip-path="url(#clip_path_29)"
                d="M 21.243 22.019 L 24.379 20.209 L 21.243 18.398 Z"
                fill="none"
                fill-opacity="0.5"
                stroke-opacity="0.5"/>
            <path
                id="path_30"
                clip-path="url(#clip_path_30)"
                d="M 20.721 29.221 L 24.902 26.808 L 20.721 24.394 Z"
                fill="none"
                fill-opacity="0.5"
                stroke-opacity="0.5"/>
            <path
                id="path_31"
                clip-path="url(#clip_path_31)"
                d="M 20.198 36.544 L 25.424 33.525 L 20.198 30.509 Z"
                fill="none"
                fill-opacity="0.5"
                stroke-opacity="0.5"/>
            <path
                id="path_32"
                clip-path="url(#clip_path_32)"
                d="M 16.017 26.059 L 16.018 26.059 L 19.154 24.248 L 16.017 22.438 Z"
                fill="none"
                fill-opacity="0.5"
                stroke-opacity="0.5"/>
            <path
                id="path_33"
                clip-path="url(#clip_path_33)"
                d="M 15.493 31.419 L 15.493 32.239 L 15.495 32.239 L 19.676 29.826 L 15.495 27.411 Z"
                fill="none"
                fill-opacity="0.5"
                stroke-opacity="0.5"/>
            <path
                id="path_34"
                clip-path="url(#clip_path_34)"
                d="M 10.789 28.737 L 13.925 26.927 L 10.789 25.117 Z"
                fill="none"
                fill-opacity="0.5"
                stroke-opacity="0.5"/>
            <path
                id="path_35"
                clip-path="url(#clip_path_35)"
                d="M 4.059 27.835 L 7.195 29.646 L 7.195 29.645 L 7.195 26.025 L 7.194 26.024 Z"
                fill="none"
                fill-opacity="0.5"
                stroke-opacity="0.5"/>
            <path
                id="path_36"
                clip-path="url(#clip_path_36)"
                d="M 16.016 52.195 L 19.152 54.005 L 19.153 54.005 L 19.153 50.385 L 19.153 50.385 Z"
                fill="none"
                fill-opacity="0.5"
                stroke-opacity="0.5"/>
            <path
                id="path_37"
                clip-path="url(#clip_path_37)"
                d="M 14.972 39.561 L 20.197 42.579 L 20.198 42.579 L 20.198 36.544 Z"
                fill="none"
                fill-opacity="0.5"
                stroke-opacity="0.5"/>
            <path
                id="path_38"
                clip-path="url(#clip_path_38)"
                d="M 10.789 50.685 L 10.789 50.687 L 13.925 52.496 L 13.925 48.875 L 13.925 48.875 Z"
                fill="none"
                fill-opacity="0.5"
                stroke-opacity="0.5"/>
            <path
                id="path_39"
                clip-path="url(#clip_path_39)"
                d="M 10.267 37.147 L 10.267 41.975 L 10.267 41.976 L 14.448 39.562 L 14.448 39.559 L 10.267 37.147 Z"
                fill="none"
                fill-opacity="0.5"
                stroke-opacity="0.5"/>
            <path
                id="path_40"
                clip-path="url(#clip_path_40)"
                d="M 10.267 31.112 L 10.267 35.94 L 10.267 35.94 L 14.448 33.525 L 10.267 31.112 Z"
                fill="none"
                fill-opacity="0.5"
                stroke-opacity="0.5"/>
            <path
                id="path_41"
                clip-path="url(#clip_path_41)"
                d="M 4.998 47.324 L 8.135 49.135 L 8.135 49.135 L 8.135 45.515 L 8.135 45.515 Z"
                fill="none"
                fill-opacity="0.5"
                stroke-opacity="0.5"/>
            <path
                id="path_42"
                clip-path="url(#clip_path_42)"
                d="M 5.563 33.401 L 5.562 33.402 L 8.699 35.211 L 8.699 31.591 L 8.699 31.591 Z"
                fill="none"
                fill-opacity="0.5"
                stroke-opacity="0.5"/>
            <path
                id="path_43"
                clip-path="url(#clip_path_43)"
                d="M 3.746 38.511 L 6.882 36.701 L 3.746 34.891 Z"
                fill="none"
                fill-opacity="0.5"
                stroke-opacity="0.5"/>
            <path
                id="path_44"
                clip-path="url(#clip_path_44)"
                d="M 15.493 46.28 L 19.675 48.693 L 19.676 48.693 L 19.676 43.867 L 19.674 43.865 Z"
                fill="none"
                fill-opacity="0.5"
                stroke-opacity="0.5"/>
            <path
                id="path_45"
                clip-path="url(#clip_path_45)"
                d="M 14.971 33.525 L 14.97 33.526 L 14.97 39.559 L 14.972 39.561 L 20.198 36.544 L 14.972 33.525 Z"
                fill="none"
                fill-opacity="0.5"
                stroke-opacity="0.5"/>
            <path
                id="path_46"
                clip-path="url(#clip_path_46)"
                d="M 16.016 50.988 L 16.016 50.989 L 19.153 49.178 L 16.016 47.368 Z"
                fill="none"
                fill-opacity="0.5"
                stroke-opacity="0.5"/>
            <path
                id="path_47"
                clip-path="url(#clip_path_47)"
                d="M 15.493 40.848 L 15.493 45.676 L 19.674 43.262 L 15.494 40.847 Z"
                fill="none"
                fill-opacity="0.5"
                stroke-opacity="0.5"/>
            <path
                id="path_48"
                clip-path="url(#clip_path_48)"
                d="M 10.789 47.97 L 10.79 47.97 L 13.925 46.16 L 13.925 46.159 L 10.789 44.349 Z"
                fill="none"
                fill-opacity="0.5"
                stroke-opacity="0.5"/>
            <path
                id="path_49"
                clip-path="url(#clip_path_49)"
                d="M 10.267 42.579 L 14.448 44.992 L 14.448 44.992 L 14.448 40.166 L 14.448 40.166 Z"
                fill="none"
                fill-opacity="0.5"
                stroke-opacity="0.5"/>
            <path
                id="path_50"
                clip-path="url(#clip_path_50)"
                d="M 10.267 36.544 L 14.448 38.955 L 14.448 34.129 L 14.448 34.129 Z"
                fill="none"
                fill-opacity="0.5"
                stroke-opacity="0.5"/>
            <path
                id="path_51"
                clip-path="url(#clip_path_51)"
                d="M 5.562 39.561 L 8.699 41.373 L 8.699 41.373 L 8.699 41.372 L 8.699 37.751 Z"
                fill="none"
                fill-opacity="0.5"
                stroke-opacity="0.5"/>
            <path
                id="path_52"
                clip-path="url(#clip_path_52)"
                d="M 3.872 32.319 L 7.007 30.509 L 3.871 28.698 Z"
                fill="none"
                fill-opacity="0.5"
                stroke-opacity="0.5"/>
            <path
                id="path_53"
                clip-path="url(#clip_path_53)"
                d="M 4.059 44.609 L 7.195 42.799 L 4.059 40.987 Z"
                fill="none"
                fill-opacity="0.5"
                stroke-opacity="0.5"/>
            <path
                id="path_54"
                clip-path="url(#clip_path_54)"
                d="M 44.13 51.105 C 44.13 51.228 44.152 51.333 44.197 51.419 C 44.242 51.504 44.3 51.574 44.374 51.627 C 44.448 51.68 44.534 51.72 44.632 51.745 C 44.729 51.771 44.832 51.784 44.942 51.784 C 45.015 51.784 45.092 51.778 45.174 51.766 C 45.256 51.754 45.334 51.731 45.406 51.696 C 45.478 51.662 45.538 51.615 45.586 51.555 C 45.634 51.495 45.658 51.419 45.658 51.326 C 45.658 51.226 45.626 51.146 45.563 51.084 C 45.499 51.023 45.416 50.971 45.313 50.927 C 45.21 50.885 45.093 50.849 44.963 50.82 C 44.833 50.79 44.701 50.757 44.567 50.72 C 44.43 50.685 44.297 50.643 44.167 50.593 C 44.036 50.543 43.919 50.479 43.817 50.4 C 43.713 50.321 43.63 50.224 43.567 50.107 C 43.503 49.99 43.472 49.847 43.472 49.675 C 43.472 49.486 43.512 49.323 43.592 49.184 C 43.672 49.044 43.779 48.929 43.909 48.837 C 44.039 48.744 44.187 48.675 44.351 48.631 C 44.516 48.586 44.681 48.564 44.845 48.564 C 45.037 48.564 45.221 48.585 45.398 48.628 C 45.574 48.671 45.731 48.74 45.868 48.837 C 46.006 48.932 46.115 49.055 46.195 49.204 C 46.275 49.354 46.316 49.534 46.316 49.747 L 45.534 49.747 C 45.527 49.637 45.504 49.547 45.464 49.475 C 45.425 49.402 45.374 49.345 45.308 49.305 C 45.243 49.263 45.168 49.235 45.082 49.217 C 44.996 49.2 44.905 49.192 44.809 49.192 C 44.744 49.192 44.679 49.198 44.614 49.212 C 44.548 49.226 44.489 49.25 44.436 49.284 C 44.383 49.318 44.339 49.362 44.305 49.415 C 44.27 49.468 44.253 49.533 44.253 49.608 C 44.253 49.68 44.267 49.738 44.295 49.783 C 44.322 49.828 44.376 49.868 44.457 49.903 C 44.537 49.94 44.649 49.978 44.791 50.017 C 44.933 50.057 45.119 50.105 45.349 50.164 C 45.394 50.174 45.452 50.189 45.524 50.207 C 45.596 50.227 45.672 50.252 45.753 50.285 C 45.833 50.317 45.913 50.359 45.995 50.41 C 46.075 50.462 46.149 50.526 46.215 50.6 C 46.283 50.676 46.337 50.767 46.378 50.87 C 46.419 50.976 46.44 51.096 46.44 51.234 C 46.44 51.402 46.407 51.558 46.342 51.702 C 46.277 51.846 46.18 51.97 46.052 52.075 C 45.922 52.179 45.763 52.262 45.573 52.322 C 45.383 52.382 45.162 52.412 44.912 52.412 C 44.709 52.412 44.513 52.386 44.322 52.334 C 44.132 52.283 43.965 52.204 43.822 52.098 C 43.677 51.991 43.562 51.856 43.474 51.691 C 43.387 51.527 43.344 51.331 43.348 51.105 L 44.13 51.105 Z"
                fill="#000000"
                fill-opacity="0.5"
                stroke-opacity="0.5"/>
            <path
                id="path_55"
                clip-path="url(#clip_path_55)"
                d="M 46.81 50.482 C 46.82 50.31 46.863 50.168 46.939 50.055 C 47.014 49.942 47.11 49.851 47.227 49.782 C 47.343 49.714 47.474 49.665 47.617 49.636 C 47.762 49.606 47.909 49.592 48.06 49.592 C 48.194 49.592 48.33 49.602 48.466 49.62 C 48.603 49.64 48.729 49.676 48.842 49.73 C 48.955 49.786 49.048 49.863 49.12 49.962 C 49.192 50.062 49.227 50.191 49.227 50.348 L 49.227 51.732 C 49.227 51.852 49.235 51.967 49.248 52.077 C 49.262 52.187 49.286 52.269 49.32 52.323 L 48.58 52.323 C 48.566 52.283 48.554 52.24 48.546 52.198 C 48.538 52.156 48.532 52.112 48.528 52.068 C 48.411 52.188 48.274 52.272 48.117 52.322 C 47.959 52.372 47.797 52.397 47.633 52.397 C 47.506 52.396 47.388 52.378 47.278 52.346 C 47.168 52.314 47.073 52.266 46.99 52.2 C 46.908 52.135 46.844 52.053 46.797 51.953 C 46.751 51.853 46.727 51.735 46.727 51.598 C 46.727 51.448 46.754 51.323 46.805 51.225 C 46.856 51.128 46.925 51.049 47.011 50.991 C 47.096 50.933 47.193 50.889 47.301 50.86 C 47.409 50.831 47.52 50.808 47.633 50.79 C 47.746 50.774 47.854 50.76 47.957 50.75 C 48.06 50.739 48.152 50.723 48.232 50.703 C 48.312 50.683 48.377 50.653 48.425 50.613 C 48.473 50.573 48.497 50.516 48.497 50.441 C 48.497 50.361 48.484 50.299 48.459 50.253 C 48.433 50.207 48.399 50.171 48.356 50.145 C 48.313 50.119 48.263 50.102 48.206 50.094 C 48.15 50.085 48.089 50.081 48.024 50.081 C 47.884 50.081 47.771 50.111 47.687 50.173 C 47.603 50.235 47.554 50.338 47.541 50.482 L 46.81 50.482 Z M 48.497 51.022 C 48.467 51.049 48.428 51.071 48.382 51.086 C 48.335 51.102 48.285 51.115 48.232 51.125 C 48.179 51.135 48.122 51.144 48.062 51.151 C 48.002 51.158 47.945 51.166 47.89 51.176 C 47.832 51.186 47.777 51.2 47.726 51.218 C 47.674 51.235 47.629 51.258 47.589 51.288 C 47.549 51.316 47.519 51.354 47.494 51.4 C 47.47 51.448 47.458 51.502 47.458 51.568 C 47.458 51.636 47.47 51.691 47.494 51.735 C 47.518 51.777 47.551 51.812 47.592 51.837 C 47.633 51.863 47.682 51.881 47.736 51.891 C 47.791 51.901 47.847 51.907 47.906 51.907 C 48.05 51.907 48.161 51.883 48.24 51.835 C 48.319 51.787 48.377 51.729 48.415 51.662 C 48.453 51.596 48.475 51.528 48.485 51.459 C 48.493 51.391 48.497 51.336 48.497 51.295 L 48.497 51.022 Z"
                fill="#000000"
                fill-opacity="0.5"
                stroke-opacity="0.5"/>
            <path
                id="path_56"
                clip-path="url(#clip_path_56)"
                d="M 52.288 52.324 L 51.594 52.324 L 51.594 51.954 L 51.578 51.954 C 51.485 52.104 51.365 52.216 51.218 52.288 C 51.07 52.36 50.92 52.396 50.765 52.396 C 50.57 52.396 50.41 52.368 50.285 52.316 C 50.158 52.263 50.06 52.189 49.988 52.096 C 49.917 52 49.866 51.885 49.837 51.749 C 49.807 51.614 49.793 51.464 49.793 51.299 L 49.793 49.664 L 50.523 49.664 L 50.523 51.167 C 50.523 51.387 50.559 51.55 50.629 51.657 C 50.699 51.766 50.82 51.82 50.992 51.82 C 51.19 51.82 51.335 51.76 51.424 51.643 C 51.513 51.524 51.558 51.33 51.558 51.059 L 51.558 49.665 L 52.288 49.665 L 52.288 52.324 Z"
                fill="#000000"
                fill-opacity="0.5"
                stroke-opacity="0.5"/>
            <path
                id="path_57"
                clip-path="url(#clip_path_57)"
                d="M 54.742 51.984 L 54.732 51.984 C 54.646 52.128 54.532 52.233 54.392 52.298 C 54.252 52.363 54.096 52.395 53.924 52.395 C 53.722 52.395 53.546 52.356 53.397 52.277 C 53.246 52.198 53.124 52.093 53.026 51.962 C 52.929 51.829 52.855 51.677 52.805 51.506 C 52.755 51.334 52.731 51.156 52.731 50.971 C 52.731 50.793 52.756 50.62 52.805 50.454 C 52.855 50.287 52.929 50.141 53.027 50.014 C 53.124 49.887 53.247 49.785 53.394 49.708 C 53.542 49.63 53.714 49.592 53.909 49.592 C 54.066 49.592 54.217 49.626 54.359 49.692 C 54.501 49.759 54.613 49.858 54.696 49.988 L 54.706 49.988 L 54.706 48.652 L 55.436 48.652 L 55.436 52.324 L 54.742 52.324 L 54.742 51.984 Z M 54.732 50.986 C 54.732 50.88 54.722 50.776 54.701 50.672 C 54.681 50.569 54.645 50.479 54.596 50.402 C 54.546 50.325 54.48 50.262 54.4 50.215 C 54.32 50.167 54.221 50.142 54.104 50.142 C 53.984 50.142 53.883 50.167 53.801 50.215 C 53.719 50.263 53.652 50.326 53.603 50.405 C 53.553 50.484 53.517 50.574 53.495 50.675 C 53.472 50.776 53.461 50.882 53.461 50.991 C 53.461 51.094 53.473 51.197 53.497 51.3 C 53.521 51.402 53.56 51.494 53.613 51.575 C 53.666 51.655 53.733 51.721 53.813 51.771 C 53.894 51.821 53.991 51.845 54.104 51.845 C 54.224 51.845 54.324 51.821 54.405 51.773 C 54.485 51.725 54.55 51.661 54.598 51.58 C 54.646 51.5 54.68 51.408 54.701 51.305 C 54.721 51.202 54.731 51.095 54.731 50.986"
                fill="#000000"
                fill-opacity="0.5"
                stroke-opacity="0.5"/>
            <path
                id="path_58"
                clip-path="url(#clip_path_58)"
                d="M 56.007 49.665 L 56.738 49.665 L 56.738 52.324 L 56.007 52.324 Z"
                fill="#000000"
                fill-opacity="0.5"
                stroke-opacity="0.5"/>
            <path
                id="path_59"
                clip-path="url(#clip_path_59)"
                d="M 58.821 48.651 L 60.405 48.651 C 60.642 48.651 60.862 48.689 61.066 48.764 C 61.27 48.84 61.447 48.953 61.596 49.104 C 61.746 49.254 61.862 49.444 61.946 49.67 C 62.03 49.896 62.072 50.162 62.072 50.467 C 62.072 50.734 62.038 50.981 61.969 51.207 C 61.901 51.434 61.797 51.63 61.659 51.794 C 61.519 51.959 61.346 52.088 61.139 52.183 C 60.931 52.277 60.686 52.323 60.405 52.323 L 58.821 52.323 L 58.821 48.651 Z M 59.629 51.645 L 60.349 51.645 C 60.465 51.645 60.579 51.625 60.689 51.588 C 60.799 51.551 60.896 51.488 60.982 51.4 C 61.067 51.313 61.136 51.199 61.187 51.058 C 61.238 50.918 61.265 50.746 61.265 50.544 C 61.265 50.359 61.246 50.192 61.211 50.042 C 61.174 49.893 61.115 49.766 61.033 49.659 C 60.951 49.553 60.842 49.472 60.706 49.415 C 60.571 49.358 60.404 49.33 60.205 49.33 L 59.629 49.33 L 59.629 51.645 Z"
                fill="#000000"
                fill-opacity="0.5"
                stroke-opacity="0.5"/>
            <path
                id="path_60"
                clip-path="url(#clip_path_60)"
                d="M 62.525 50.482 C 62.535 50.31 62.578 50.168 62.654 50.055 C 62.729 49.942 62.824 49.851 62.942 49.782 C 63.058 49.714 63.189 49.665 63.332 49.636 C 63.477 49.606 63.624 49.592 63.775 49.592 C 63.909 49.592 64.045 49.602 64.181 49.62 C 64.319 49.64 64.444 49.676 64.557 49.73 C 64.67 49.786 64.763 49.863 64.835 49.962 C 64.907 50.062 64.943 50.191 64.943 50.348 L 64.943 51.732 C 64.943 51.852 64.95 51.967 64.963 52.077 C 64.977 52.187 65.001 52.269 65.035 52.323 L 64.295 52.323 C 64.281 52.283 64.269 52.24 64.261 52.198 C 64.252 52.156 64.247 52.112 64.243 52.068 C 64.126 52.188 63.989 52.272 63.832 52.322 C 63.674 52.372 63.512 52.397 63.348 52.397 C 63.221 52.396 63.103 52.378 62.993 52.346 C 62.883 52.314 62.788 52.266 62.705 52.2 C 62.623 52.135 62.559 52.053 62.512 51.953 C 62.466 51.853 62.442 51.735 62.442 51.598 C 62.442 51.448 62.469 51.323 62.52 51.225 C 62.571 51.128 62.64 51.049 62.726 50.991 C 62.811 50.933 62.908 50.889 63.016 50.86 C 63.124 50.831 63.235 50.808 63.348 50.79 C 63.461 50.774 63.57 50.76 63.672 50.75 C 63.775 50.739 63.867 50.723 63.947 50.703 C 64.027 50.683 64.092 50.653 64.14 50.613 C 64.188 50.573 64.212 50.516 64.212 50.441 C 64.212 50.361 64.2 50.299 64.174 50.253 C 64.148 50.207 64.114 50.171 64.071 50.145 C 64.028 50.119 63.978 50.102 63.921 50.094 C 63.865 50.085 63.804 50.081 63.739 50.081 C 63.599 50.081 63.486 50.111 63.402 50.173 C 63.318 50.235 63.269 50.338 63.255 50.482 L 62.525 50.482 Z M 64.212 51.022 C 64.182 51.049 64.142 51.071 64.097 51.086 C 64.05 51.102 64 51.115 63.947 51.125 C 63.894 51.135 63.837 51.144 63.777 51.151 C 63.717 51.158 63.66 51.166 63.605 51.176 C 63.547 51.186 63.492 51.2 63.441 51.218 C 63.389 51.235 63.344 51.258 63.304 51.288 C 63.264 51.316 63.234 51.354 63.209 51.4 C 63.185 51.448 63.173 51.502 63.173 51.568 C 63.173 51.636 63.185 51.691 63.209 51.735 C 63.233 51.777 63.266 51.812 63.307 51.837 C 63.348 51.863 63.397 51.881 63.451 51.891 C 63.506 51.901 63.562 51.907 63.621 51.907 C 63.765 51.907 63.876 51.883 63.955 51.835 C 64.035 51.787 64.092 51.729 64.13 51.662 C 64.168 51.596 64.19 51.528 64.2 51.459 C 64.208 51.391 64.212 51.336 64.212 51.295 L 64.212 51.022 Z"
                fill="#000000"
                fill-opacity="0.5"
                stroke-opacity="0.5"/>
            <path
                id="path_61"
                clip-path="url(#clip_path_61)"
                d="M 66.434 49.665 L 66.969 49.665 L 66.969 50.154 L 66.434 50.154 L 66.434 51.471 C 66.434 51.594 66.454 51.676 66.496 51.718 C 66.537 51.758 66.619 51.779 66.743 51.779 C 66.825 51.779 66.9 51.772 66.969 51.759 L 66.969 52.329 C 66.907 52.339 66.839 52.347 66.763 52.35 C 66.688 52.353 66.614 52.355 66.543 52.355 C 66.429 52.355 66.322 52.348 66.221 52.332 C 66.119 52.316 66.03 52.286 65.953 52.239 C 65.876 52.193 65.815 52.129 65.771 52.047 C 65.726 51.964 65.704 51.857 65.704 51.723 L 65.704 50.153 L 65.26 50.153 L 65.26 49.665 L 65.703 49.665 L 65.703 48.868 L 66.433 48.868 L 66.433 49.665 Z"
                fill="#000000"
                fill-opacity="0.5"
                stroke-opacity="0.5"/>
            <path
                id="path_62"
                clip-path="url(#clip_path_62)"
                d="M 67.288 50.482 C 67.298 50.31 67.341 50.168 67.417 50.055 C 67.492 49.942 67.588 49.851 67.705 49.782 C 67.821 49.714 67.952 49.665 68.095 49.636 C 68.24 49.606 68.387 49.592 68.538 49.592 C 68.672 49.592 68.808 49.602 68.944 49.62 C 69.082 49.64 69.207 49.676 69.32 49.73 C 69.433 49.786 69.526 49.863 69.598 49.962 C 69.67 50.062 69.706 50.191 69.706 50.348 L 69.706 51.732 C 69.706 51.852 69.713 51.967 69.726 52.077 C 69.74 52.187 69.764 52.269 69.798 52.323 L 69.058 52.323 C 69.044 52.283 69.032 52.24 69.024 52.198 C 69.016 52.156 69.01 52.112 69.006 52.068 C 68.889 52.188 68.752 52.272 68.595 52.322 C 68.437 52.372 68.275 52.397 68.111 52.397 C 67.984 52.396 67.866 52.378 67.756 52.346 C 67.646 52.314 67.551 52.266 67.468 52.2 C 67.386 52.135 67.322 52.053 67.275 51.953 C 67.229 51.853 67.205 51.735 67.205 51.598 C 67.205 51.448 67.232 51.323 67.283 51.225 C 67.334 51.128 67.403 51.049 67.489 50.991 C 67.574 50.933 67.671 50.889 67.779 50.86 C 67.887 50.831 67.998 50.808 68.111 50.79 C 68.224 50.774 68.332 50.76 68.435 50.75 C 68.538 50.739 68.63 50.723 68.711 50.703 C 68.791 50.683 68.855 50.653 68.903 50.613 C 68.951 50.573 68.975 50.516 68.975 50.441 C 68.975 50.361 68.963 50.299 68.937 50.253 C 68.911 50.207 68.877 50.171 68.834 50.145 C 68.791 50.119 68.741 50.102 68.684 50.094 C 68.628 50.085 68.567 50.081 68.502 50.081 C 68.362 50.081 68.249 50.111 68.165 50.173 C 68.081 50.235 68.032 50.338 68.019 50.482 L 67.288 50.482 Z M 68.975 51.022 C 68.945 51.049 68.906 51.071 68.86 51.086 C 68.813 51.102 68.763 51.115 68.71 51.125 C 68.657 51.135 68.6 51.144 68.54 51.151 C 68.48 51.158 68.423 51.166 68.368 51.176 C 68.31 51.186 68.255 51.2 68.204 51.218 C 68.152 51.235 68.107 51.258 68.067 51.288 C 68.027 51.316 67.997 51.354 67.972 51.4 C 67.948 51.448 67.936 51.502 67.936 51.568 C 67.936 51.636 67.948 51.691 67.972 51.735 C 67.996 51.777 68.029 51.812 68.07 51.837 C 68.111 51.863 68.16 51.881 68.214 51.891 C 68.269 51.901 68.325 51.907 68.384 51.907 C 68.528 51.907 68.639 51.883 68.718 51.835 C 68.798 51.787 68.855 51.729 68.893 51.662 C 68.931 51.596 68.953 51.528 68.963 51.459 C 68.971 51.391 68.975 51.336 68.975 51.295 L 68.975 51.022 Z"
                fill="#000000"
                fill-opacity="0.5"
                stroke-opacity="0.5"/>
            <path
                id="path_63"
                clip-path="url(#clip_path_63)"
                d="M 73.81 51.959 C 73.663 52.103 73.506 52.212 73.34 52.286 C 73.173 52.359 72.985 52.396 72.776 52.396 C 72.611 52.396 72.456 52.371 72.311 52.321 C 72.165 52.271 72.039 52.2 71.932 52.105 C 71.826 52.011 71.742 51.897 71.68 51.761 C 71.62 51.626 71.588 51.471 71.588 51.295 C 71.588 51.169 71.61 51.05 71.655 50.94 C 71.699 50.83 71.76 50.732 71.837 50.645 C 71.915 50.557 72.002 50.479 72.1 50.41 C 72.197 50.342 72.301 50.282 72.41 50.23 C 72.311 50.11 72.228 49.99 72.161 49.87 C 72.095 49.75 72.061 49.61 72.061 49.449 C 72.061 49.322 72.087 49.207 72.141 49.104 C 72.194 49.001 72.265 48.913 72.354 48.839 C 72.444 48.765 72.545 48.709 72.66 48.669 C 72.775 48.629 72.894 48.61 73.018 48.61 C 73.155 48.61 73.285 48.629 73.408 48.667 C 73.532 48.705 73.64 48.76 73.73 48.834 C 73.821 48.908 73.893 48.999 73.946 49.109 C 74 49.219 74.026 49.346 74.026 49.489 C 74.026 49.706 73.963 49.888 73.838 50.035 C 73.713 50.182 73.558 50.306 73.373 50.405 L 73.846 50.987 C 73.884 50.918 73.913 50.847 73.933 50.773 C 73.954 50.7 73.969 50.625 73.98 50.549 L 74.613 50.549 C 74.595 50.714 74.557 50.873 74.499 51.029 C 74.441 51.182 74.361 51.325 74.258 51.455 L 75.003 52.325 L 74.108 52.325 L 73.81 51.958 Z M 72.797 50.704 C 72.731 50.731 72.668 50.764 72.607 50.804 C 72.545 50.844 72.49 50.888 72.442 50.938 C 72.393 50.988 72.355 51.043 72.326 51.105 C 72.296 51.167 72.282 51.235 72.282 51.311 C 72.282 51.379 72.297 51.443 72.326 51.501 C 72.356 51.56 72.393 51.61 72.442 51.653 C 72.49 51.696 72.545 51.73 72.609 51.756 C 72.672 51.781 72.739 51.794 72.807 51.794 C 72.937 51.794 73.051 51.764 73.149 51.704 C 73.246 51.644 73.339 51.566 73.424 51.47 L 72.797 50.704 Z M 73.388 49.449 C 73.388 49.353 73.355 49.27 73.288 49.202 C 73.222 49.133 73.145 49.099 73.056 49.099 C 72.968 49.099 72.891 49.129 72.826 49.189 C 72.762 49.249 72.73 49.327 72.73 49.423 C 72.73 49.54 72.76 49.639 72.822 49.721 C 72.882 49.804 72.947 49.888 73.016 49.973 C 73.118 49.909 73.206 49.838 73.278 49.763 C 73.351 49.687 73.388 49.583 73.388 49.449"
                fill="#000000"
                fill-opacity="0.5"
                stroke-opacity="0.5"/>
            <path
                id="path_64"
                clip-path="url(#clip_path_64)"
                d="M 77.735 48.651 L 78.563 48.651 L 79.937 52.324 L 79.097 52.324 L 78.82 51.506 L 77.447 51.506 L 77.159 52.324 L 76.341 52.324 L 77.735 48.651 Z M 77.658 50.904 L 78.609 50.904 L 78.147 49.556 L 78.137 49.556 L 77.659 50.904 Z"
                fill="#000000"
                fill-opacity="0.5"
                stroke-opacity="0.5"/>
            <path
                id="path_65"
                clip-path="url(#clip_path_65)"
                d="M 80.256 48.651 L 81.063 48.651 L 81.063 52.324 L 80.256 52.324 Z"
                fill="#000000"
                fill-opacity="0.5"
                stroke-opacity="0.5"/>
            <path
                id="path_66"
                clip-path="url(#clip_path_66)"
                d="M 84.206 48.651 L 85.034 48.651 L 86.408 52.324 L 85.568 52.324 L 85.291 51.506 L 83.918 51.506 L 83.63 52.324 L 82.812 52.324 L 84.206 48.651 Z M 84.129 50.904 L 85.08 50.904 L 84.618 49.556 L 84.608 49.556 L 84.13 50.904 Z"
                fill="#000000"
                fill-opacity="0.5"
                stroke-opacity="0.5"/>
            <path
                id="path_67"
                clip-path="url(#clip_path_67)"
                d="M 89.144 52.324 L 88.45 52.324 L 88.45 51.954 L 88.434 51.954 C 88.341 52.104 88.221 52.216 88.074 52.288 C 87.926 52.36 87.776 52.396 87.621 52.396 C 87.426 52.396 87.266 52.368 87.141 52.316 C 87.014 52.263 86.916 52.189 86.844 52.096 C 86.773 52 86.722 51.885 86.693 51.749 C 86.663 51.614 86.649 51.464 86.649 51.299 L 86.649 49.664 L 87.379 49.664 L 87.379 51.167 C 87.379 51.387 87.415 51.55 87.485 51.657 C 87.555 51.766 87.676 51.82 87.848 51.82 C 88.047 51.82 88.191 51.76 88.28 51.643 C 88.37 51.524 88.414 51.33 88.414 51.059 L 88.414 49.665 L 89.144 49.665 L 89.144 52.324 Z"
                fill="#000000"
                fill-opacity="0.5"
                stroke-opacity="0.5"/>
            <path
                id="path_68"
                clip-path="url(#clip_path_68)"
                d="M 90.625 49.665 L 91.16 49.665 L 91.16 50.154 L 90.625 50.154 L 90.625 51.471 C 90.625 51.594 90.645 51.676 90.687 51.718 C 90.728 51.758 90.81 51.779 90.934 51.779 C 91.016 51.779 91.091 51.772 91.16 51.759 L 91.16 52.329 C 91.098 52.339 91.03 52.347 90.954 52.35 C 90.879 52.353 90.805 52.355 90.733 52.355 C 90.62 52.355 90.513 52.348 90.412 52.332 C 90.31 52.316 90.221 52.286 90.144 52.239 C 90.067 52.193 90.006 52.129 89.962 52.047 C 89.917 51.964 89.895 51.857 89.895 51.723 L 89.895 50.153 L 89.451 50.153 L 89.451 49.665 L 89.894 49.665 L 89.894 48.868 L 90.624 48.868 L 90.624 49.665 Z"
                fill="#000000"
                fill-opacity="0.5"
                stroke-opacity="0.5"/>
            <path
                id="path_69"
                clip-path="url(#clip_path_69)"
                d="M 91.51 48.651 L 92.24 48.651 L 92.24 50.035 L 92.256 50.035 C 92.348 49.884 92.466 49.772 92.611 49.7 C 92.755 49.628 92.896 49.592 93.033 49.592 C 93.228 49.592 93.388 49.619 93.513 49.672 C 93.639 49.726 93.737 49.799 93.81 49.893 C 93.881 49.988 93.932 50.103 93.961 50.238 C 93.991 50.374 94.005 50.523 94.005 50.688 L 94.005 52.324 L 93.275 52.324 L 93.275 50.822 C 93.275 50.602 93.239 50.438 93.169 50.331 C 93.099 50.223 92.978 50.169 92.806 50.169 C 92.608 50.169 92.463 50.228 92.374 50.346 C 92.285 50.464 92.241 50.659 92.241 50.929 L 92.241 52.324 L 91.51 52.324 L 91.51 48.651 Z"
                fill="#000000"
                fill-opacity="0.5"
                stroke-opacity="0.5"/>
            <path
                id="path_70"
                clip-path="url(#clip_path_70)"
                d="M 94.478 50.997 C 94.478 50.784 94.51 50.592 94.576 50.418 C 94.641 50.245 94.733 50.098 94.853 49.976 C 94.973 49.854 95.117 49.76 95.286 49.693 C 95.453 49.626 95.642 49.593 95.851 49.593 C 96.061 49.593 96.251 49.626 96.42 49.693 C 96.59 49.76 96.734 49.854 96.854 49.976 C 96.974 50.098 97.067 50.246 97.132 50.418 C 97.197 50.592 97.23 50.784 97.23 50.997 C 97.23 51.21 97.197 51.402 97.132 51.573 C 97.068 51.745 96.974 51.891 96.854 52.013 C 96.734 52.135 96.59 52.229 96.42 52.296 C 96.25 52.363 96.06 52.396 95.851 52.396 C 95.642 52.396 95.453 52.363 95.286 52.296 C 95.117 52.229 94.973 52.135 94.853 52.013 C 94.733 51.891 94.641 51.745 94.576 51.573 C 94.51 51.402 94.478 51.21 94.478 50.997 M 95.208 50.997 C 95.208 51.104 95.218 51.207 95.239 51.309 C 95.26 51.409 95.295 51.5 95.345 51.581 C 95.395 51.661 95.46 51.726 95.543 51.774 C 95.625 51.822 95.728 51.846 95.851 51.846 C 95.975 51.846 96.079 51.822 96.163 51.774 C 96.247 51.726 96.313 51.662 96.363 51.581 C 96.413 51.501 96.448 51.41 96.469 51.309 C 96.489 51.207 96.499 51.104 96.499 50.997 C 96.499 50.891 96.489 50.787 96.469 50.683 C 96.449 50.58 96.413 50.489 96.363 50.411 C 96.313 50.331 96.247 50.268 96.163 50.218 C 96.079 50.168 95.975 50.143 95.851 50.143 C 95.728 50.143 95.625 50.168 95.543 50.218 C 95.46 50.268 95.394 50.332 95.345 50.411 C 95.295 50.489 95.26 50.581 95.239 50.683 C 95.219 50.786 95.209 50.891 95.209 50.997"
                fill="#000000"
                fill-opacity="0.5"
                stroke-opacity="0.5"/>
            <path
                id="path_71"
                clip-path="url(#clip_path_71)"
                d="M 97.704 49.664 L 98.398 49.664 L 98.398 50.158 L 98.408 50.158 C 98.443 50.075 98.489 49.999 98.548 49.928 C 98.606 49.858 98.673 49.798 98.748 49.748 C 98.824 49.699 98.905 49.66 98.992 49.633 C 99.08 49.606 99.168 49.593 99.257 49.593 C 99.313 49.593 99.365 49.6 99.417 49.618 L 99.417 50.297 C 99.383 50.29 99.342 50.284 99.294 50.279 C 99.246 50.274 99.199 50.271 99.154 50.271 C 99.021 50.271 98.908 50.293 98.815 50.338 C 98.722 50.382 98.648 50.443 98.591 50.52 C 98.535 50.597 98.494 50.688 98.471 50.793 C 98.445 50.898 98.434 51.008 98.434 51.125 L 98.434 52.322 L 97.704 52.322 L 97.704 49.663 Z"
                fill="#000000"
                fill-opacity="0.5"
                stroke-opacity="0.5"/>
            <path
                id="path_72"
                clip-path="url(#clip_path_72)"
                d="M 99.725 49.665 L 100.455 49.665 L 100.455 52.324 L 99.725 52.324 Z"
                fill="#000000"
                fill-opacity="0.5"
                stroke-opacity="0.5"/>
            <path
                id="path_73"
                clip-path="url(#clip_path_73)"
                d="M 101.958 49.665 L 102.493 49.665 L 102.493 50.154 L 101.958 50.154 L 101.958 51.471 C 101.958 51.594 101.978 51.676 102.02 51.718 C 102.061 51.758 102.143 51.779 102.267 51.779 C 102.349 51.779 102.424 51.772 102.493 51.759 L 102.493 52.329 C 102.431 52.339 102.363 52.347 102.287 52.35 C 102.212 52.353 102.138 52.355 102.067 52.355 C 101.953 52.355 101.846 52.348 101.745 52.332 C 101.643 52.316 101.554 52.286 101.477 52.239 C 101.4 52.193 101.339 52.129 101.295 52.047 C 101.25 51.964 101.228 51.857 101.228 51.723 L 101.228 50.153 L 100.784 50.153 L 100.784 49.665 L 101.227 49.665 L 101.227 48.868 L 101.957 48.868 L 101.957 49.665 Z"
                fill="#000000"
                fill-opacity="0.5"
                stroke-opacity="0.5"/>
            <path
                id="path_74"
                clip-path="url(#clip_path_74)"
                d="M 104.154 52.658 C 104.074 52.871 103.965 53.024 103.824 53.118 C 103.685 53.214 103.489 53.26 103.239 53.26 C 103.163 53.26 103.088 53.257 103.015 53.252 C 102.941 53.247 102.866 53.242 102.791 53.234 L 102.791 52.632 L 103.001 52.653 C 103.075 52.66 103.147 52.662 103.219 52.658 C 103.281 52.651 103.333 52.632 103.376 52.599 C 103.418 52.566 103.45 52.526 103.471 52.478 C 103.491 52.43 103.501 52.378 103.501 52.321 C 103.501 52.265 103.491 52.211 103.471 52.159 L 102.534 49.664 L 103.316 49.664 L 103.917 51.485 L 103.927 51.485 L 104.509 49.665 L 105.265 49.665 L 104.154 52.657 Z"
                fill="#000000"
                fill-opacity="0.5"
                stroke-opacity="0.5"/>
            <path
                id="path_75"
                clip-path="url(#clip_path_75)"
                d="M 56.738 48.652 L 56.738 48.957 L 56.007 49.379 L 56.007 48.652 Z"
                fill="#000000"
                fill-opacity="0.5"
                stroke-opacity="0.5"/>
            <path
                id="path_76"
                clip-path="url(#clip_path_76)"
                d="M 100.456 48.652 L 100.456 48.957 L 99.725 49.379 L 99.725 48.652 Z"
                fill="#000000"
                fill-opacity="0.5"
                stroke-opacity="0.5"/>
            <path
                id="path_77"
                clip-path="url(#clip_path_77)"
                d="M 47.963 38.796 L 44.448 38.796 C 43.604 38.796 43.225 38.6 43.225 37.867 L 43.225 36.897 L 43.989 36.897 L 43.989 37.755 C 43.989 38.067 44.155 38.12 44.66 38.12 L 47.199 38.12 L 47.199 36.456 L 47.963 36.456 L 47.963 38.796 Z"
                fill="#000000"
                fill-opacity="0.5"
                stroke-opacity="0.5"/>
            <path
                id="path_78"
                clip-path="url(#clip_path_78)"
                d="M 51.361 36.456 L 51.361 38.12 L 49.715 38.12 C 49.475 38.12 49.433 38.01 49.433 37.802 L 49.433 34.598 L 48.669 34.598 L 48.669 37.908 C 48.669 38.614 49.081 38.795 49.579 38.795 L 52.125 38.795 L 52.125 36.456 L 51.361 36.456 Z"
                fill="#000000"
                fill-opacity="0.5"
                stroke-opacity="0.5"/>
            <path
                id="path_79"
                clip-path="url(#clip_path_79)"
                d="M 61.472 34.598 L 61.472 38.119 L 60.796 38.119 C 60.414 38.119 60.373 38.009 60.373 37.713 L 60.373 34.598 L 59.609 34.598 L 59.609 37.778 C 59.609 38.033 59.55 38.119 59.25 38.119 L 58.891 38.119 C 58.556 38.119 58.445 38.038 58.445 37.713 L 58.445 36.456 L 57.681 36.456 L 57.681 37.778 C 57.681 38.042 57.612 38.119 57.321 38.119 L 56.963 38.119 C 56.59 38.119 56.452 38.003 56.452 37.713 L 56.452 36.456 L 55.688 36.456 L 55.688 37.778 C 55.688 38.011 55.645 38.119 55.329 38.119 L 53.883 38.119 C 53.626 38.119 53.601 37.985 53.601 37.802 L 53.601 34.598 L 52.836 34.598 L 52.836 37.908 C 52.836 38.458 53.081 38.794 53.748 38.794 L 55.452 38.794 C 55.912 38.794 56.149 38.704 56.305 38.494 C 56.425 38.707 56.661 38.794 56.963 38.794 L 57.445 38.794 C 57.955 38.794 58.156 38.688 58.298 38.494 C 58.392 38.688 58.592 38.794 58.891 38.794 L 59.373 38.794 C 59.834 38.794 60.072 38.709 60.226 38.494 C 60.315 38.674 60.48 38.794 60.796 38.794 L 62.236 38.794 L 62.236 34.597 L 61.472 34.597 Z"
                fill="#000000"
                fill-opacity="0.5"
                stroke-opacity="0.5"/>
            <path
                id="path_80"
                clip-path="url(#clip_path_80)"
                d="M 68.609 36.456 L 68.609 38.12 L 66.669 38.12 C 66.51 38.12 66.469 38.077 66.469 37.885 L 66.469 36.127 L 65.469 36.127 C 64.746 36.127 64.229 36.574 64.229 37.302 C 64.229 38.03 64.771 38.372 65.352 38.372 C 65.528 38.372 65.703 38.335 65.769 38.32 C 65.882 38.678 66.197 38.795 66.616 38.795 L 69.379 38.795 L 69.379 36.456 L 68.609 36.456 Z M 65.705 37.656 C 65.65 37.675 65.575 37.696 65.387 37.696 C 65.2 37.696 64.977 37.607 64.977 37.264 C 64.977 36.928 65.224 36.85 65.411 36.85 L 65.705 36.85 L 65.705 37.655 Z"
                fill="#000000"
                fill-opacity="0.5"
                stroke-opacity="0.5"/>
            <path
                id="path_81"
                clip-path="url(#clip_path_81)"
                d="M 72.095 38.055 C 72.095 38.369 71.924 38.796 71.26 38.796 L 69.838 38.796 L 69.838 38.12 L 70.99 38.12 C 71.313 38.12 71.34 38.004 71.225 37.829 L 70.478 36.709 L 71.172 36.262 L 71.684 37.092 C 71.821 37.314 72.095 37.741 72.095 38.055"
                fill="#000000"
                fill-opacity="0.5"
                stroke-opacity="0.5"/>
            <path
                id="path_82"
                clip-path="url(#clip_path_82)"
                d="M 84.905 34.598 L 84.905 38.119 L 84.235 38.119 C 83.904 38.119 83.77 38.041 83.77 37.713 L 83.77 36.456 L 83.006 36.456 L 83.006 37.818 C 83.006 37.985 82.962 38.118 82.645 38.118 C 82.368 38.118 82.254 37.988 82.254 37.712 L 82.254 36.713 L 81.489 36.713 L 81.489 37.838 C 81.489 38.07 81.329 38.12 81.075 38.12 C 80.819 38.12 80.661 37.987 80.661 37.714 L 80.661 36.715 L 79.896 36.715 L 79.896 37.838 C 79.896 38.082 79.805 38.12 79.444 38.12 L 78.291 38.12 C 78.486 37.98 78.831 37.589 78.831 37.197 C 78.831 36.817 78.517 36.38 77.767 36.38 C 76.949 36.38 76.529 36.94 76.462 37.38 L 77.05 38.085 C 76.971 38.101 76.848 38.12 76.533 38.12 L 74.823 38.12 L 74.823 37.95 C 74.823 37.754 74.892 36.427 73.673 36.427 C 72.877 36.427 72.477 37.105 72.477 37.703 C 72.477 38.818 73.493 38.796 73.665 38.796 L 74.03 38.796 C 73.988 39.036 73.824 39.302 72.9 39.302 L 72.767 39.302 L 72.767 40.018 L 72.949 40.018 C 74.049 40.018 74.695 39.704 74.807 38.795 L 76.558 38.795 C 77.01 38.795 77.422 38.645 77.598 38.578 C 77.727 38.686 78.009 38.795 78.293 38.795 L 79.433 38.795 C 80.128 38.795 80.308 38.71 80.493 38.49 C 80.661 38.693 80.938 38.795 81.323 38.795 C 81.717 38.795 81.924 38.688 82.093 38.49 C 82.249 38.69 82.6 38.795 82.841 38.795 C 83.265 38.795 83.476 38.675 83.631 38.484 C 83.721 38.664 83.919 38.795 84.23 38.795 L 85.67 38.795 L 85.67 34.598 L 84.906 34.598 Z M 74.059 38.119 L 73.671 38.119 C 73.386 38.119 73.23 37.994 73.23 37.631 C 73.23 37.17 73.496 37.114 73.641 37.114 C 73.802 37.114 74.059 37.166 74.059 37.767 L 74.059 38.118 Z M 77.733 37.855 C 77.657 37.791 77.286 37.378 77.175 37.202 C 77.229 37.163 77.405 37.043 77.745 37.043 C 78.095 37.043 78.08 37.286 78.08 37.313 C 78.08 37.434 77.983 37.697 77.733 37.855"
                fill="#000000"
                fill-opacity="0.5"
                stroke-opacity="0.5"/>
            <path
                id="path_83"
                clip-path="url(#clip_path_83)"
                d="M 87.145 38.795 L 86.38 38.795 L 86.38 34.598 L 87.145 34.598 Z"
                fill="#000000"
                fill-opacity="0.5"
                stroke-opacity="0.5"/>
            <path
                id="path_84"
                clip-path="url(#clip_path_84)"
                d="M 94.369 35.386 L 94.005 35.386 C 93.891 35.386 93.815 35.364 93.778 35.321 C 93.741 35.278 93.723 35.228 93.723 35.168 C 93.723 35.11 93.741 35.06 93.778 35.018 C 93.815 34.978 93.878 34.957 93.969 34.957 C 93.989 34.957 94.021 34.96 94.066 34.966 C 94.111 34.971 94.163 34.982 94.222 34.998 L 94.222 34.545 C 94.179 34.53 94.127 34.514 94.066 34.498 C 94.006 34.483 93.94 34.475 93.869 34.475 C 93.787 34.475 93.709 34.488 93.634 34.516 C 93.56 34.543 93.493 34.583 93.434 34.636 C 93.375 34.689 93.329 34.756 93.294 34.833 C 93.258 34.912 93.24 35.003 93.24 35.11 C 93.24 35.148 93.245 35.197 93.255 35.254 C 93.265 35.311 93.279 35.354 93.299 35.386 L 93.029 35.386 L 93.029 35.868 L 94.369 35.868 L 94.369 35.386 Z"
                fill="#000000"
                fill-opacity="0.5"
                stroke-opacity="0.5"/>
            <path
                id="path_85"
                clip-path="url(#clip_path_85)"
                d="M 101.259 38.796 L 101.259 34.599 L 100.495 34.599 L 100.495 38.119 L 99.166 38.119 L 99.166 38.096 C 99.245 37.99 99.378 37.774 99.378 37.391 C 99.378 37.289 99.308 36.386 98.361 36.386 C 97.471 36.386 97.232 37.214 97.232 37.891 L 97.232 38.12 L 96.609 38.12 C 96.309 38.12 96.098 38.061 96.098 37.714 L 96.098 36.457 L 95.334 36.457 L 95.334 37.779 C 95.334 38.041 95.274 38.119 94.974 38.119 L 94.504 38.119 C 94.187 38.119 94.058 38.053 94.058 37.714 L 94.058 36.457 L 93.294 36.457 L 93.294 37.779 C 93.294 38.042 93.225 38.119 92.935 38.119 L 91.564 38.119 C 91.404 38.119 91.364 38.077 91.364 37.885 L 91.364 36.127 L 90.364 36.127 C 89.64 36.127 89.124 36.575 89.124 37.303 C 89.124 38.031 89.665 38.373 90.247 38.373 C 90.423 38.373 90.597 38.335 90.664 38.32 C 90.776 38.679 91.092 38.796 91.511 38.796 L 93.059 38.796 C 93.591 38.796 93.776 38.675 93.911 38.496 C 93.997 38.673 94.181 38.796 94.505 38.796 L 95.098 38.796 C 95.558 38.796 95.78 38.72 95.951 38.496 C 96.068 38.702 96.307 38.796 96.609 38.796 L 97.232 38.796 L 97.232 38.837 C 97.232 39.396 97.342 40.23 98.349 40.23 C 99.002 40.23 99.366 39.839 99.366 39.296 C 99.366 39.015 99.223 38.849 99.184 38.814 L 99.184 38.796 L 101.259 38.796 Z M 90.599 37.656 C 90.545 37.676 90.469 37.696 90.282 37.696 C 90.094 37.696 89.871 37.607 89.871 37.265 C 89.871 36.928 90.119 36.85 90.306 36.85 L 90.6 36.85 L 90.6 37.656 Z M 97.909 37.802 C 97.909 37.602 97.959 37.085 98.337 37.085 C 98.435 37.085 98.637 37.132 98.637 37.461 C 98.637 37.77 98.491 38.12 98.055 38.12 L 97.909 38.12 L 97.909 37.802 Z M 98.349 39.554 C 98.031 39.554 97.909 39.256 97.909 38.796 L 98.208 38.796 C 98.496 38.796 98.643 39.029 98.643 39.216 C 98.643 39.446 98.54 39.554 98.349 39.554"
                fill="#000000"
                fill-opacity="0.5"
                stroke-opacity="0.5"/>
            <path
                id="path_86"
                clip-path="url(#clip_path_86)"
                d="M 102.734 38.795 L 101.97 38.795 L 101.97 34.598 L 102.734 34.598 Z"
                fill="#000000"
                fill-opacity="0.5"
                stroke-opacity="0.5"/>
            <path
                id="path_87"
                clip-path="url(#clip_path_87)"
                d="M 95.44 39.366 L 95.44 39.671 L 94.709 40.093 L 94.709 39.366 Z"
                fill="#000000"
                fill-opacity="0.5"
                stroke-opacity="0.5"/>
            <path
                id="path_88"
                clip-path="url(#clip_path_88)"
                d="M 96.399 39.366 L 96.399 39.671 L 95.668 40.093 L 95.668 39.366 Z"
                fill="#000000"
                fill-opacity="0.5"
                stroke-opacity="0.5"/>
            <path
                id="path_89"
                clip-path="url(#clip_path_89)"
                d="M 90.3 34.727 L 90.3 35.032 L 89.569 35.454 L 89.569 34.727 Z"
                fill="#000000"
                fill-opacity="0.5"
                stroke-opacity="0.5"/>
            <path
                id="path_90"
                clip-path="url(#clip_path_90)"
                d="M 91.258 34.727 L 91.258 35.032 L 90.527 35.454 L 90.527 34.727 Z"
                fill="#000000"
                fill-opacity="0.5"
                stroke-opacity="0.5"/>
            <path
                id="path_91"
                clip-path="url(#clip_path_91)"
                d="M 68.539 39.366 L 68.539 39.671 L 67.808 40.093 L 67.808 39.366 Z"
                fill="#000000"
                fill-opacity="0.5"
                stroke-opacity="0.5"/>
            <path
                id="path_92"
                clip-path="url(#clip_path_92)"
                d="M 69.497 39.366 L 69.497 39.671 L 68.766 40.093 L 68.766 39.366 Z"
                fill="#000000"
                fill-opacity="0.5"
                stroke-opacity="0.5"/>
            <path
                id="path_93"
                clip-path="url(#clip_path_93)"
                d="M 65.413 34.727 L 65.413 35.032 L 64.682 35.454 L 64.682 34.727 Z"
                fill="#000000"
                fill-opacity="0.5"
                stroke-opacity="0.5"/>
            <path
                id="path_94"
                clip-path="url(#clip_path_94)"
                d="M 66.371 34.727 L 66.371 35.032 L 65.64 35.454 L 65.64 34.727 Z"
                fill="#000000"
                fill-opacity="0.5"
                stroke-opacity="0.5"/>
            <path
                id="path_95"
                clip-path="url(#clip_path_95)"
                d="M 55.798 39.366 L 55.798 39.671 L 55.067 40.093 L 55.067 39.366 Z"
                fill="#000000"
                fill-opacity="0.5"
                stroke-opacity="0.5"/>
            <path
                id="path_96"
                clip-path="url(#clip_path_96)"
                d="M 56.756 39.366 L 56.756 39.671 L 56.025 40.093 L 56.025 39.366 Z"
                fill="#000000"
                fill-opacity="0.5"
                stroke-opacity="0.5"/>
            <path
                id="path_97"
                clip-path="url(#clip_path_97)"
                d="M 58.428 39.366 L 58.428 39.671 L 57.697 40.093 L 57.697 39.366 Z"
                fill="#000000"
                fill-opacity="0.5"
                stroke-opacity="0.5"/>
            <path
                id="path_98"
                clip-path="url(#clip_path_98)"
                d="M 52.097 34.999 L 52.097 35.304 L 51.366 35.726 L 51.366 34.999 Z"
                fill="#000000"
                fill-opacity="0.5"
                stroke-opacity="0.5"/>
            <path
                id="path_99"
                clip-path="url(#clip_path_99)"
                d="M 45.51 35.362 L 45.51 35.667 L 44.779 36.09 L 44.779 35.362 Z"
                fill="#000000"
                fill-opacity="0.5"
                stroke-opacity="0.5"/>
            <path
                id="path_100"
                clip-path="url(#clip_path_100)"
                d="M 46.468 35.362 L 46.468 35.667 L 45.737 36.09 L 45.737 35.362 Z"
                fill="#000000"
                fill-opacity="0.5"
                stroke-opacity="0.5"/>
            <path
                id="path_101"
                clip-path="url(#clip_path_101)"
                d="M 49.098 44.795 C 48.584 44.795 48.458 44.537 48.458 44.278 C 48.458 44.148 48.5 43.772 49.098 43.772 C 49.247 43.772 49.623 43.841 49.744 43.86 L 49.744 43.167 C 49.678 43.139 49.402 43.043 49.074 43.043 C 48.454 43.043 47.764 43.435 47.764 44.26 C 47.764 44.491 47.842 44.72 47.881 44.795 L 46.711 44.795 C 46.527 44.795 46.316 44.765 46.079 44.707 C 45.842 44.648 45.594 44.577 45.336 44.495 L 45.336 45.195 C 46 45.359 46.453 45.485 46.453 45.689 C 46.453 45.934 46.076 46.135 45.177 46.135 C 44.277 46.135 43.989 45.875 43.989 45.406 L 43.989 44.454 L 43.225 44.454 L 43.225 45.43 C 43.225 46.004 43.407 46.84 45.165 46.84 C 46.923 46.84 47.175 46.256 47.175 45.742 C 47.175 45.682 47.173 45.632 47.167 45.589 C 47.161 45.546 47.154 45.506 47.147 45.471 L 50.027 45.471 L 50.027 44.795 L 49.098 44.795 Z"
                fill="#000000"
                fill-opacity="0.5"
                stroke-opacity="0.5"/>
            <path
                id="path_102"
                clip-path="url(#clip_path_102)"
                d="M 62.866 43.055 C 61.903 43.055 61.175 43.863 60.861 44.789 C 60.693 44.789 60.574 44.754 60.505 44.683 C 60.437 44.613 60.403 44.515 60.403 44.389 L 60.403 43.39 L 59.65 43.39 L 59.65 44.513 C 59.65 44.795 59.51 44.795 59.197 44.795 L 58.498 44.795 L 58.498 44.419 C 58.498 43.497 58.026 43.055 57.258 43.055 C 56.625 43.055 56.191 43.465 55.97 43.848 L 55.97 41.274 L 55.212 41.274 L 55.212 44.795 L 54.572 44.795 C 54.199 44.795 54.062 44.679 54.062 44.389 L 54.062 43.132 L 53.296 43.132 L 53.296 44.454 C 53.296 44.687 53.254 44.795 52.938 44.795 L 51.608 44.795 C 51.351 44.795 51.326 44.661 51.326 44.478 L 51.326 41.274 L 50.562 41.274 L 50.562 44.584 C 50.562 45.132 50.806 45.47 51.473 45.47 L 53.062 45.47 C 53.521 45.47 53.759 45.38 53.915 45.17 C 54.035 45.382 54.271 45.47 54.572 45.47 L 59.186 45.47 C 59.448 45.47 59.664 45.453 59.833 45.42 C 60.001 45.387 60.138 45.301 60.244 45.164 C 60.306 45.239 60.407 45.308 60.547 45.374 C 60.686 45.438 60.855 45.47 61.055 45.47 L 64.135 45.47 L 64.135 44.419 C 64.135 43.733 63.807 43.055 62.866 43.055 M 57.734 44.795 L 56.006 44.795 C 56.146 44.409 56.558 43.772 57.158 43.772 C 57.758 43.772 57.734 44.325 57.734 44.419 L 57.734 44.795 Z M 63.377 44.795 L 61.626 44.795 C 61.775 44.377 62.216 43.831 62.779 43.831 C 63.346 43.831 63.379 44.288 63.379 44.519 L 63.379 44.795 Z"
                fill="#000000"
                fill-opacity="0.5"
                stroke-opacity="0.5"/>
            <path
                id="path_103"
                clip-path="url(#clip_path_103)"
                d="M 68.051 41.274 L 68.051 45.471 L 64.635 45.471 L 64.635 44.795 L 65.764 44.795 L 65.764 42.132 L 66.528 42.132 L 66.528 44.795 L 67.287 44.795 L 67.287 41.274 Z"
                fill="#000000"
                fill-opacity="0.5"
                stroke-opacity="0.5"/>
            <path
                id="path_104"
                clip-path="url(#clip_path_104)"
                d="M 69.526 45.471 L 68.762 45.471 L 68.762 41.274 L 69.526 41.274 Z"
                fill="#000000"
                fill-opacity="0.5"
                stroke-opacity="0.5"/>
            <path
                id="path_105"
                clip-path="url(#clip_path_105)"
                d="M 73.63 45.472 L 71.73 45.472 L 71.73 44.796 L 72.03 44.796 C 72.004 44.746 71.944 44.572 71.944 44.438 C 71.944 43.887 72.329 43.485 72.873 43.485 C 73.128 43.485 73.349 43.562 73.42 43.585 L 73.42 44.19 C 73.333 44.17 73.174 44.137 73.025 44.137 C 72.682 44.137 72.643 44.377 72.643 44.478 C 72.643 44.581 72.703 44.796 73.049 44.796 L 73.631 44.796 L 73.631 45.472 Z"
                fill="#000000"
                fill-opacity="0.5"
                stroke-opacity="0.5"/>
            <path
                id="path_106"
                clip-path="url(#clip_path_106)"
                d="M 78.832 42.326 L 78.832 41.538 L 76.78 42.444 C 76.495 42.569 76.39 43.008 76.363 43.137 C 76.551 43.235 76.737 43.35 76.922 43.481 C 77.105 43.612 77.27 43.745 77.415 43.878 C 77.56 44.011 77.897 44.345 77.897 44.542 C 77.897 44.779 77.633 44.795 77.55 44.795 L 75.205 44.795 C 74.948 44.795 74.923 44.661 74.923 44.478 L 74.923 41.274 L 74.158 41.274 L 74.158 44.584 C 74.158 45.134 74.403 45.471 75.07 45.471 L 77.603 45.471 C 78.28 45.471 78.638 45.163 78.638 44.566 C 78.638 43.96 78.179 43.521 78.026 43.373 C 77.874 43.223 77.68 43.073 77.445 42.92 L 77.445 42.902 L 78.832 42.326 Z"
                fill="#000000"
                fill-opacity="0.5"
                stroke-opacity="0.5"/>
            <path
                id="path_107"
                clip-path="url(#clip_path_107)"
                d="M 82.436 41.274 L 82.436 44.795 L 81.76 44.795 C 81.576 44.795 81.415 44.535 81.36 44.449 C 81.305 44.362 80.46 42.938 80.46 42.938 L 79.761 43.384 L 80.296 44.178 C 80.398 44.323 80.561 44.533 80.561 44.648 C 80.561 44.768 80.391 44.795 80.284 44.795 L 79.121 44.795 L 79.121 45.471 L 80.143 45.471 C 80.549 45.471 80.753 45.392 80.937 45.177 C 81.187 45.411 81.372 45.471 81.76 45.471 L 83.2 45.471 L 83.2 41.274 L 82.436 41.274 Z"
                fill="#000000"
                fill-opacity="0.5"
                stroke-opacity="0.5"/>
            <path
                id="path_108"
                clip-path="url(#clip_path_108)"
                d="M 84.675 45.471 L 83.911 45.471 L 83.911 41.274 L 84.675 41.274 Z"
                fill="#000000"
                fill-opacity="0.5"
                stroke-opacity="0.5"/>
            <path
                id="path_109"
                clip-path="url(#clip_path_109)"
                d="M 87.515 45.119 C 87.515 46.347 86.81 46.694 85.64 46.694 L 85.457 46.694 L 85.457 45.977 L 85.592 45.977 C 86.233 45.977 86.675 45.863 86.722 45.419 C 86.604 45.454 86.461 45.472 86.292 45.472 C 85.566 45.472 85.169 45.081 85.169 44.378 C 85.169 43.958 85.449 43.103 86.369 43.103 C 87.401 43.103 87.515 44.025 87.515 44.625 L 87.515 45.119 Z M 85.922 44.308 C 85.922 44.654 86.049 44.813 86.362 44.813 C 86.523 44.813 86.652 44.786 86.751 44.731 L 86.751 44.443 C 86.751 44.048 86.661 43.79 86.345 43.79 C 86.106 43.79 85.922 43.942 85.922 44.308"
                fill="#000000"
                fill-opacity="0.5"
                stroke-opacity="0.5"/>
            <path
                id="path_110"
                clip-path="url(#clip_path_110)"
                d="M 54.043 41.697 L 54.043 42.002 L 53.312 42.424 L 53.312 41.697 Z"
                fill="#000000"
                fill-opacity="0.5"
                stroke-opacity="0.5"/>
            <path
                id="path_111"
                clip-path="url(#clip_path_111)"
                d="M 45.041 47.27 L 45.041 47.575 L 44.31 47.997 L 44.31 47.27 Z"
                fill="#000000"
                fill-opacity="0.5"
                stroke-opacity="0.5"/>
            <path
                id="path_112"
                clip-path="url(#clip_path_112)"
                d="M 46 47.27 L 46 47.575 L 45.269 47.997 L 45.269 47.27 Z"
                fill="#000000"
                fill-opacity="0.5"
                stroke-opacity="0.5"/>
            <path
                id="path_113"
                clip-path="url(#clip_path_113)"
                d="M 80.39 41.697 L 80.39 42.002 L 79.659 42.424 L 79.659 41.697 Z"
                fill="#000000"
                fill-opacity="0.5"
                stroke-opacity="0.5"/>
            <path
                id="path_114"
                clip-path="url(#clip_path_114)"
                d="M 49.301 23.481 C 47.911 23.323 46.856 23.181 46.856 22.285 C 46.856 21.616 47.594 21.124 48.667 21.124 C 49.917 21.124 50.847 21.827 50.829 22.796 L 50.835 22.796 L 53.673 21.159 C 52.913 19.491 50.995 18.398 48.544 18.398 C 45.395 18.398 43.161 20.121 43.161 22.708 C 43.161 25.68 45.59 26.331 48.191 26.63 C 49.529 26.804 50.636 26.946 50.636 27.86 C 50.636 28.616 49.898 29.145 48.79 29.145 C 47.42 29.145 46.419 28.355 46.398 27.285 L 46.398 27.28 L 43.091 27.28 C 43.091 27.894 43.216 28.467 43.448 28.989 C 44.219 30.723 46.179 31.869 48.669 31.869 C 51.991 31.869 54.33 30.041 54.33 27.369 C 54.33 24.396 51.817 23.746 49.302 23.481"
                fill="#000000"
                fill-opacity="0.5"
                stroke-opacity="0.5"/>
            <path
                id="path_115"
                clip-path="url(#clip_path_115)"
                d="M 61.523 18.838 L 56.318 18.838 L 56.318 31.429 L 61.523 31.429 C 65.849 31.429 68.733 28.915 68.733 25.134 C 68.733 21.354 65.849 18.838 61.523 18.838 M 61.523 28.58 L 60.011 28.58 L 60.011 21.685 L 61.523 21.685 C 63.545 21.685 64.918 23.041 64.918 25.134 C 64.918 27.226 63.545 28.58 61.523 28.58"
                fill="#000000"
                fill-opacity="0.5"
                stroke-opacity="0.5"/>
            <path
                id="path_116"
                clip-path="url(#clip_path_116)"
                d="M 83.86 21.072 L 83.86 31.43 L 87.677 31.43 L 87.677 18.868 Z"
                fill="#000000"
                fill-opacity="0.5"
                stroke-opacity="0.5"/>
            <path
                id="path_117"
                clip-path="url(#clip_path_117)"
                d="M 78.531 18.838 L 72.974 18.838 L 69.033 31.429 L 73.027 31.429 L 73.743 28.968 L 77.247 26.945 L 74.274 26.945 L 75.753 22.057 L 77.247 26.945 L 78.478 31.429 L 82.471 31.429 Z"
                fill="#000000"
                fill-opacity="0.5"
                stroke-opacity="0.5"/>
            <path
                id="path_118"
                clip-path="url(#clip_path_118)"
                d="M 98.573 18.838 L 93.016 18.838 L 89.075 31.429 L 93.069 31.429 L 93.785 28.968 L 97.289 26.945 L 94.316 26.945 L 95.795 22.057 L 97.289 26.945 L 98.52 31.429 L 102.514 31.429 Z"
                fill="#000000"
                fill-opacity="0.5"
                stroke-opacity="0.5"/>
        </g>
    </g>
    <path
        id="path_119"
        d="M 137.862 36.766 C 136.261 36.766 135.028 36.251 134.162 35.221 C 133.427 34.339 133.06 33.215 133.06 31.853 L 133.06 20.232 L 135.433 18.962 L 135.433 31.768 C 135.433 33.608 136.333 34.53 138.138 34.53 L 139.958 34.53 L 139.958 36.766 L 137.862 36.766 Z"
        fill="#8c8c8c"/>
    <path
        id="path_120"
        d="M 147.91 34.53 L 149.733 34.53 L 149.733 36.766 L 147.635 36.766 C 146.109 36.766 144.902 36.279 144.02 35.303 C 143.138 36.279 141.931 36.766 140.405 36.766 L 138.307 36.766 L 138.307 34.53 L 140.13 34.53 C 141.934 34.53 142.835 33.61 142.835 31.768 L 142.835 26.055 L 145.208 24.785 L 145.208 31.768 C 145.205 33.61 146.106 34.53 147.91 34.53 M 143.55 21.448 C 142.649 21.448 142.197 20.989 142.197 20.068 C 142.197 19.166 142.649 18.715 143.55 18.715 C 144.432 18.715 144.874 19.166 144.874 20.067 C 144.874 20.987 144.432 21.447 143.55 21.447"
        fill="#8c8c8c"/>
    <path
        id="path_121"
        d="M 157.487 34.532 L 159.307 34.532 L 159.307 36.769 L 157.21 36.769 C 155.627 36.769 154.404 36.263 153.538 35.249 C 152.618 36.261 151.348 36.769 149.728 36.769 L 148.072 36.769 L 148.072 34.532 L 149.535 34.532 C 151.45 34.532 152.407 33.528 152.407 31.522 L 152.407 20.231 L 154.808 18.961 L 154.808 31.549 C 154.808 32.616 155.015 33.381 155.429 33.839 C 155.846 34.3 156.53 34.531 157.487 34.531"
        fill="#8c8c8c"/>
    <path
        id="path_122"
        d="M 163.092 25.091 L 163.257 25.091 C 165.336 25.091 167.02 25.736 168.309 27.022 C 169.487 28.182 170.075 29.663 170.075 31.465 L 170.075 31.935 C 170.075 33.518 169.588 34.751 168.612 35.635 C 167.747 36.39 166.634 36.766 165.272 36.766 L 157.654 36.766 L 157.654 34.532 L 165.051 34.532 C 166.818 34.532 167.702 33.602 167.702 31.742 L 167.702 31.493 C 167.702 30.131 167.168 29.083 166.1 28.346 C 165.254 27.777 164.223 27.49 163.01 27.49 C 162.034 27.49 161.048 27.664 160.056 28.015 L 160.056 25.667 L 166.1 18.96 L 168.53 18.96 L 163.092 25.091 Z M 187.106 34.532 L 187.106 36.766 L 183.684 36.766 C 183.611 38.349 182.929 39.655 181.642 40.687 C 180.556 41.534 179.323 41.957 177.942 41.957 C 176.802 41.957 175.725 41.691 174.713 41.157 L 174.713 39.059 C 175.689 39.575 176.656 39.831 177.611 39.831 C 178.587 39.831 179.438 39.528 180.165 38.921 C 180.892 38.314 181.263 37.587 181.282 36.741 C 180.325 36.705 179.617 36.668 179.158 36.63 C 177.171 36.52 175.67 35.849 174.659 34.614 C 173.812 33.584 173.389 32.251 173.389 30.611 C 173.389 28.605 173.923 27.041 174.991 25.919 C 175.948 24.926 177.209 24.428 178.773 24.428 C 180.41 24.428 181.673 24.915 182.555 25.891 C 183.31 26.756 183.686 27.888 183.686 29.287 L 183.686 34.532 L 187.106 34.532 Z M 181.282 29.452 C 181.282 27.575 180.445 26.636 178.77 26.636 C 177.813 26.636 177.068 26.982 176.536 27.671 C 176.002 28.361 175.736 29.325 175.736 30.555 C 175.736 32.965 176.915 34.245 179.269 34.393 C 179.711 34.447 180.381 34.494 181.285 34.532 L 181.285 29.452 L 181.282 29.452 Z"
        fill="#8c8c8c"/>
    <path
        id="path_123"
        d="M 185.45 36.766 L 185.45 34.53 L 187.27 34.53 C 189.074 34.53 189.975 33.61 189.975 31.768 L 189.975 26.055 L 192.348 24.785 L 192.348 31.851 C 192.348 33.415 191.878 34.647 190.939 35.551 C 190.074 36.359 188.943 36.764 187.546 36.764 L 185.45 36.764 L 185.45 36.766 Z M 187.574 21.448 C 186.673 21.448 186.221 20.989 186.221 20.068 C 186.221 19.166 186.673 18.715 187.574 18.715 C 188.456 18.715 188.898 19.166 188.898 20.067 C 188.9 20.987 188.458 21.447 187.574 21.447 M 191.081 21.447 C 190.18 21.447 189.728 20.989 189.728 20.067 C 189.728 19.167 190.18 18.715 191.081 18.715 C 191.963 18.715 192.405 19.166 192.405 20.067 C 192.405 20.987 191.963 21.447 191.081 21.447 M 133.62 45.407 L 131.112 45.407 L 131.112 44.389 L 137.552 44.389 L 137.552 45.407 L 134.847 45.407 L 134.847 52.748 L 133.62 52.748 Z M 142.86 52.746 L 141.976 52.746 L 141.844 52.125 C 141.369 52.645 140.727 52.903 139.916 52.903 C 139.302 52.903 138.813 52.733 138.458 52.395 C 138.1 52.056 137.924 51.595 137.924 51.015 C 137.924 50.354 138.194 49.845 138.735 49.49 C 139.276 49.133 140.045 48.957 141.038 48.957 L 141.738 48.957 L 141.738 48.891 C 141.738 47.976 141.275 47.52 140.353 47.52 C 139.763 47.52 139.215 47.708 138.705 48.086 L 138.361 47.48 C 139.048 46.89 139.836 46.595 140.725 46.595 C 142.15 46.595 142.863 47.445 142.863 49.142 L 142.863 52.746 L 142.86 52.746 Z M 141.724 49.723 L 141.144 49.723 C 139.789 49.723 139.111 50.13 139.111 50.939 C 139.111 51.273 139.211 51.537 139.408 51.732 C 139.605 51.925 139.871 52.022 140.208 52.022 C 140.541 52.022 140.854 51.934 141.143 51.762 C 141.433 51.591 141.628 51.374 141.724 51.109 L 141.724 49.723 Z M 147.019 52.748 L 145.897 52.748 L 143.891 46.753 L 145.078 46.753 L 146.45 51.386 L 147.706 46.753 L 148.945 46.753 L 150.147 51.386 L 151.532 46.753 L 152.734 46.753 L 150.688 52.748 L 149.566 52.748 L 148.312 48.192 Z M 158.372 52.746 L 157.487 52.746 L 157.356 52.125 C 156.881 52.645 156.236 52.903 155.427 52.903 C 154.811 52.903 154.324 52.733 153.969 52.395 C 153.611 52.056 153.435 51.595 153.435 51.015 C 153.435 50.354 153.705 49.845 154.246 49.49 C 154.787 49.133 155.556 48.957 156.549 48.957 L 157.247 48.957 L 157.247 48.891 C 157.247 47.976 156.787 47.52 155.862 47.52 C 155.272 47.52 154.722 47.708 154.212 48.086 L 153.868 47.48 C 154.554 46.89 155.34 46.595 156.231 46.595 C 157.657 46.595 158.369 47.445 158.369 49.142 L 158.369 52.746 L 158.372 52.746 Z M 157.236 49.723 L 156.655 49.723 C 155.3 49.723 154.623 50.13 154.623 50.939 C 154.623 51.273 154.721 51.537 154.919 51.732 C 155.117 51.925 155.382 52.022 155.719 52.022 C 156.053 52.022 156.365 51.934 156.657 51.762 C 156.947 51.591 157.142 51.374 157.238 51.109 L 157.238 49.723 L 157.236 49.723 Z M 165.077 46.753 L 162.358 49.117 L 165.157 52.748 L 163.824 52.748 L 161.5 49.578 L 161.5 52.748 L 160.366 52.748 L 160.366 44.838 L 161.5 44.231 L 161.5 48.576 L 163.52 46.753 Z M 171.098 46.753 L 168.379 49.117 L 171.176 52.748 L 169.842 52.748 L 167.521 49.578 L 167.521 52.748 L 166.385 52.748 L 166.385 44.838 L 167.521 44.231 L 167.521 48.576 L 169.539 46.753 Z M 176.945 52.746 L 176.061 52.746 L 175.929 52.125 C 175.454 52.645 174.812 52.903 174.001 52.903 C 173.387 52.903 172.897 52.733 172.542 52.395 C 172.187 52.056 172.008 51.595 172.008 51.015 C 172.008 50.354 172.278 49.845 172.82 49.49 C 173.36 49.133 174.13 48.957 175.122 48.957 L 175.823 48.957 L 175.823 48.891 C 175.823 47.976 175.36 47.52 174.438 47.52 C 173.848 47.52 173.298 47.708 172.787 48.086 L 172.444 47.48 C 173.13 46.89 173.918 46.595 174.807 46.595 C 176.233 46.595 176.945 47.445 176.945 49.142 L 176.945 52.746 Z M 175.812 49.723 L 175.231 49.723 C 173.876 49.723 173.199 50.13 173.199 50.939 C 173.199 51.273 173.297 51.537 173.495 51.732 C 173.692 51.925 173.958 52.022 174.295 52.022 C 174.629 52.022 174.941 51.934 175.231 51.762 C 175.52 51.591 175.715 51.374 175.811 51.109 L 175.811 49.723 Z M 180.073 44.231 L 180.073 52.746 L 178.94 52.746 L 178.94 44.838 Z M 183.19 47.348 L 183.256 47.348 C 183.705 46.847 184.33 46.595 185.13 46.595 C 186.6 46.595 187.336 47.458 187.336 49.182 L 187.336 52.746 L 186.2 52.746 L 186.2 49.248 C 186.2 48.131 185.706 47.571 184.72 47.571 C 184.448 47.571 184.17 47.637 183.888 47.769 C 183.606 47.901 183.401 48.059 183.268 48.244 L 183.268 52.746 L 182.13 52.746 L 182.13 46.753 L 183.08 46.753 L 183.189 47.348 Z M 193.87 52.746 L 192.986 52.746 L 192.854 52.125 C 192.379 52.645 191.737 52.903 190.925 52.903 C 190.312 52.903 189.822 52.733 189.467 52.395 C 189.11 52.056 188.933 51.595 188.933 51.015 C 188.933 50.354 189.203 49.845 189.745 49.49 C 190.285 49.133 191.055 48.957 192.047 48.957 L 192.748 48.957 L 192.748 48.891 C 192.748 47.976 192.288 47.52 191.363 47.52 C 190.773 47.52 190.224 47.708 189.714 48.086 L 189.371 47.48 C 190.057 46.89 190.845 46.595 191.734 46.595 C 193.16 46.595 193.872 47.445 193.872 49.142 L 193.872 52.746 L 193.87 52.746 Z M 192.734 49.723 L 192.154 49.723 C 190.798 49.723 190.121 50.13 190.121 50.939 C 190.121 51.273 190.22 51.537 190.417 51.732 C 190.615 51.925 190.881 52.022 191.217 52.022 C 191.551 52.022 191.864 51.934 192.153 51.762 C 192.443 51.591 192.638 51.374 192.734 51.109 L 192.734 49.723 Z"
        fill="#8c8c8c"/>
    <path
        id="path_124"
        d="M 233.546 15.601 L 221.233 27.913 L 220.21 26.883 C 216.193 22.863 209.678 22.861 205.658 26.879 C 201.638 30.896 201.636 37.411 205.654 41.43 L 206.684 42.46 L 214.41 50.222 C 218.18 53.992 224.293 53.992 228.066 50.222 L 235.792 42.46 L 248.09 30.155 C 252.053 26.084 251.969 19.569 247.897 15.605 C 243.901 11.721 237.542 11.718 233.546 15.602"
        fill="#8c8c8c"/>
</svg>
