<svg
    xmlns="http://www.w3.org/2000/svg"
    viewBox="0 0 39 49"
    id="vector">
    <g id="group">
        <path
            id="path_3"
            d="M 38.135 39.153 C 37.091 38.33 36.289 37.24 35.812 35.999 C 33.811 31.76 33.387 25.825 33.387 21.535 C 33.391 18.847 32.616 16.216 31.156 13.96 C 29.698 11.703 27.615 9.918 25.163 8.817 L 25.163 5.426 C 25.15 3.986 24.568 2.608 23.548 1.592 C 22.525 0.577 21.143 0.005 19.703 0 L 19.246 0 C 17.794 0 16.4 0.578 15.373 1.604 C 14.347 2.632 13.769 4.025 13.769 5.477 L 13.769 8.868 C 11.32 9.974 9.243 11.761 7.785 14.016 C 6.326 16.271 5.548 18.9 5.545 21.586 C 5.545 25.842 5.121 31.76 3.12 36.05 C 2.637 37.272 1.835 38.344 0.797 39.153 C 0.51 39.283 0.276 39.507 0.132 39.787 C -0.012 40.067 -0.059 40.387 0 40.696 C 0.073 41.021 0.258 41.313 0.519 41.518 C 0.782 41.725 1.107 41.837 1.441 41.832 L 12.039 41.832 C 12.039 43.8 12.823 45.691 14.215 47.083 C 15.607 48.475 17.497 49.259 19.466 49.259 C 21.435 49.259 23.325 48.475 24.718 47.083 C 26.11 45.691 26.893 43.8 26.893 41.832 L 37.457 41.832 C 37.791 41.837 38.117 41.725 38.379 41.518 C 38.641 41.313 38.825 41.021 38.898 40.696 C 38.963 40.39 38.922 40.072 38.785 39.792 C 38.646 39.512 38.417 39.287 38.135 39.153 Z M 16.651 5.477 C 16.656 4.79 16.931 4.132 17.416 3.647 C 17.901 3.162 18.559 2.888 19.246 2.883 L 19.703 2.883 C 20.389 2.888 21.045 3.162 21.526 3.649 C 22.01 4.134 22.281 4.792 22.281 5.477 L 22.281 7.885 C 21.357 7.685 20.412 7.588 19.466 7.597 C 18.522 7.591 17.579 7.683 16.651 7.868 L 16.651 5.477 Z M 19.466 46.325 C 18.281 46.322 17.141 45.856 16.294 45.026 C 15.444 44.197 14.952 43.068 14.922 41.883 L 24.01 41.883 C 23.98 43.068 23.488 44.197 22.639 45.026 C 21.791 45.856 20.651 46.322 19.466 46.325 Z M 25.265 39 L 4.765 39 C 5.045 38.568 5.299 38.122 5.528 37.66 C 7.461 33.913 8.478 28.436 8.478 21.535 C 8.344 19.124 9.006 16.734 10.359 14.735 C 11.712 12.736 13.686 11.235 15.973 10.464 C 18.26 9.692 20.74 9.692 23.027 10.464 C 25.314 11.235 27.288 12.736 28.641 14.735 C 29.994 16.734 30.656 19.124 30.522 21.535 C 30.522 28.402 31.505 33.811 33.438 37.61 C 33.693 38.118 33.947 38.559 34.184 38.949 Z"
            fill="#42ae9f"
            stroke-width="1"/>
    </g>
</svg>
