<svg
    xmlns="http://www.w3.org/2000/svg"
    viewBox="0 0 50 45"
    id="vector">
    <path
        id="path"
        d="M 44.178 5.886 L 39.549 1.257 C 39.151 0.858 38.678 0.542 38.157 0.326 C 37.636 0.111 37.078 0 36.515 0 L 21.149 0 C 20.013 0 18.922 0.452 18.119 1.255 C 17.315 2.059 16.863 3.15 16.863 4.286 L 16.863 8.571 L 9.72 8.571 C 8.584 8.571 7.493 9.023 6.69 9.827 C 5.887 10.63 5.435 11.721 5.435 12.857 L 5.435 41.429 C 5.435 42.565 5.887 43.656 6.69 44.459 C 7.493 45.262 8.584 45.714 9.72 45.714 L 29.72 45.714 C 30.857 45.714 31.948 45.262 32.751 44.459 C 33.554 43.656 34.006 42.565 34.006 41.429 L 34.006 37.143 L 41.149 37.143 C 42.285 37.143 43.376 36.691 44.18 35.888 C 44.983 35.084 45.435 33.993 45.435 32.857 L 45.435 8.917 C 45.434 7.781 44.981 6.691 44.178 5.889 Z M 36.863 2.903 C 37.114 2.965 37.344 3.094 37.526 3.277 L 42.16 7.911 C 42.343 8.094 42.472 8.323 42.532 8.574 L 36.863 8.574 L 36.863 2.9 Z M 31.149 41.429 C 31.149 41.807 30.998 42.171 30.731 42.439 C 30.463 42.707 30.099 42.857 29.72 42.857 L 9.72 42.857 C 9.342 42.857 8.978 42.707 8.71 42.439 C 8.443 42.171 8.292 41.807 8.292 41.429 L 8.292 12.857 C 8.292 12.478 8.443 12.115 8.71 11.847 C 8.978 11.579 9.342 11.429 9.72 11.429 L 16.863 11.429 L 16.863 32.857 C 16.863 33.993 17.315 35.084 18.119 35.888 C 18.922 36.691 20.013 37.143 21.149 37.143 L 31.149 37.143 L 31.149 41.429 Z M 42.578 32.857 C 42.578 33.236 42.427 33.599 42.159 33.867 C 41.891 34.135 41.528 34.286 41.149 34.286 L 21.149 34.286 C 20.77 34.286 20.407 34.135 20.139 33.867 C 19.871 33.599 19.72 33.236 19.72 32.857 L 19.72 4.286 C 19.72 3.907 19.871 3.543 20.139 3.276 C 20.407 3.008 20.77 2.857 21.149 2.857 L 34.006 2.857 L 34.006 9.286 C 34.006 10.466 34.972 11.429 36.149 11.429 L 42.578 11.429 L 42.578 32.857 Z"
        fill="#42ae9f"/>
</svg>
