<svg
    xmlns="http://www.w3.org/2000/svg"
    viewBox="0 0 26 23"
    id="vector">
    <path
        id="path"
        d="M 25.012 3.751 L 14.37 0.221 C 13.48 -0.074 12.52 -0.074 11.63 0.221 L 0.988 3.751 C 0.398 3.947 0 4.496 0 5.115 L 0 7.317 L 11.963 3.745 C 12.641 3.543 13.358 3.543 14.038 3.745 L 26 7.317 L 26 5.115 C 26 4.497 25.602 3.947 25.012 3.751 Z M 12.378 5.122 L 0 8.818 L 0 19.078 C 0 19.751 0.47 20.334 1.131 20.48 L 12.06 22.897 C 12.68 23.034 13.32 23.034 13.94 22.897 L 24.869 20.48 C 25.529 20.334 26 19.75 26 19.077 L 26 8.817 L 13.623 5.123 C 13.215 5.001 12.784 5.001 12.378 5.123 Z M 5.778 10.337 C 5.778 10.499 5.668 10.641 5.512 10.684 L 1.901 11.664 C 1.671 11.726 1.444 11.554 1.444 11.317 L 1.444 10.572 C 1.444 10.41 1.554 10.268 1.71 10.225 L 5.321 9.245 C 5.551 9.183 5.778 9.355 5.778 9.592 L 5.778 10.337 Z M 12.278 8.572 C 12.278 8.734 12.168 8.876 12.012 8.919 L 7.678 10.095 C 7.448 10.158 7.222 9.985 7.222 9.748 L 7.222 9.003 C 7.222 8.841 7.331 8.699 7.488 8.657 L 11.821 7.481 C 12.051 7.418 12.278 7.591 12.278 7.827 L 12.278 8.572 Z M 20.222 9.592 C 20.222 9.355 20.448 9.182 20.678 9.245 L 24.289 10.225 C 24.446 10.268 24.555 10.41 24.555 10.572 L 24.555 11.317 C 24.555 11.554 24.329 11.727 24.099 11.664 L 20.488 10.684 C 20.331 10.641 20.222 10.499 20.222 10.337 L 20.222 9.592 Z M 13.722 7.828 C 13.722 7.591 13.949 7.418 14.178 7.481 L 18.512 8.657 C 18.669 8.7 18.777 8.842 18.777 9.004 L 18.777 9.749 C 18.777 9.986 18.551 10.158 18.321 10.096 L 13.988 8.919 C 13.831 8.877 13.722 8.735 13.722 8.573 L 13.722 7.828 Z"
        fill="#42ae9f"/>
</svg>
