<svg
    xmlns="http://www.w3.org/2000/svg"
    viewBox="0 0 129 129"
    id="vector">
    <path
        id="path"
        d="M 43 86.252 L 43 128.918 L 0 128.918 L 0 86.252 L 43 86.252 Z M 73.714 122.823 L 73.714 128.918 L 67.571 128.918 L 67.571 122.823 L 73.714 122.823 Z M 110.571 116.728 L 116.714 116.728 L 116.714 110.633 L 129 110.633 L 129 122.823 L 116.714 122.823 L 116.714 128.918 L 110.571 128.918 L 110.571 116.728 Z M 79.857 80.156 L 79.857 86.252 L 92.143 86.252 L 92.143 80.156 L 98.286 80.156 L 98.286 86.252 L 104.429 86.252 L 104.429 98.442 L 98.286 98.442 L 98.286 104.537 L 86 104.537 L 86 98.442 L 92.143 98.442 L 92.143 92.347 L 86 92.347 L 86 98.442 L 79.857 98.442 L 79.857 110.632 L 67.571 110.632 L 67.571 122.823 L 61.43 122.823 L 61.43 116.728 L 55.287 116.728 L 55.287 122.823 L 61.43 122.823 L 61.43 128.918 L 49.143 128.918 L 49.143 116.728 L 55.286 116.728 L 55.286 110.633 L 61.429 110.633 L 61.429 104.537 L 55.286 104.537 L 55.286 110.633 L 49.143 110.633 L 49.143 98.443 L 61.429 98.443 L 61.429 92.347 L 73.714 92.347 L 73.714 86.252 L 67.571 86.252 L 67.571 80.156 L 79.857 80.156 Z M 104.429 116.728 L 104.429 122.823 L 98.286 122.823 L 98.286 116.728 L 104.429 116.728 Z M 36.857 92.347 L 6.143 92.347 L 6.143 122.823 L 36.857 122.823 L 36.857 92.347 Z M 92.143 110.633 L 92.143 122.823 L 79.857 122.823 L 79.857 116.728 L 86 116.728 L 86 110.633 L 92.143 110.633 Z M 30.714 98.443 L 30.714 116.728 L 12.286 116.728 L 12.286 98.442 L 30.714 98.442 Z M 110.571 104.537 L 110.571 116.727 L 104.429 116.727 L 104.429 110.633 L 98.286 110.633 L 98.286 104.537 L 110.571 104.537 Z M 129 92.347 L 129 104.537 L 116.714 104.537 L 116.714 98.442 L 122.857 98.442 L 122.857 92.347 L 129 92.347 Z M 116.714 86.252 L 116.714 98.442 L 110.571 98.442 L 110.571 86.252 L 116.714 86.252 Z M 61.429 86.252 L 61.429 92.347 L 55.286 92.347 L 55.286 86.252 L 61.429 86.252 Z M 110.571 74.062 L 110.571 86.252 L 104.429 86.252 L 104.429 74.062 L 110.571 74.062 Z M 55.286 80.156 L 55.286 86.252 L 49.143 86.252 L 49.143 80.156 L 55.286 80.156 Z M 79.857 25.3 L 79.857 61.872 L 73.714 61.872 L 73.714 49.68 L 67.571 49.68 L 67.571 55.775 L 61.43 55.775 L 61.43 67.965 L 73.715 67.965 L 73.715 74.06 L 67.572 74.06 L 67.572 80.155 L 61.43 80.155 L 61.43 74.06 L 55.287 74.06 L 55.287 67.965 L 36.857 67.965 L 36.857 74.06 L 43 74.06 L 43 80.155 L 12.286 80.155 L 12.286 74.06 L 18.429 74.06 L 18.429 61.87 L 55.286 61.87 L 55.286 49.68 L 49.143 49.68 L 49.143 37.49 L 55.286 37.49 L 55.286 43.585 L 61.429 43.585 L 61.429 37.49 L 67.571 37.49 L 67.571 31.395 L 73.714 31.395 L 73.714 25.299 L 79.857 25.299 Z M 92.143 74.062 L 92.143 80.157 L 86 80.157 L 86 74.062 L 92.143 74.062 Z M 129 74.062 L 129 80.157 L 122.857 80.157 L 122.857 74.062 L 129 74.062 Z M 30.714 67.967 L 24.571 67.967 L 24.571 74.062 L 30.714 74.062 L 30.714 67.967 Z M 6.143 61.871 L 6.143 74.061 L 0 74.061 L 0 61.871 L 6.143 61.871 Z M 116.714 55.776 L 116.714 61.871 L 129 61.871 L 129 67.966 L 116.714 67.966 L 116.714 74.061 L 110.571 74.061 L 110.571 61.871 L 104.429 61.871 L 104.429 67.966 L 98.286 67.966 L 98.286 55.776 L 116.714 55.776 Z M 92.143 49.68 L 92.143 67.966 L 79.857 67.966 L 79.857 61.871 L 86 61.871 L 86 49.68 L 92.143 49.68 Z M 12.286 49.68 L 12.286 55.776 L 18.429 55.776 L 18.429 61.871 L 6.143 61.871 L 6.143 55.776 L 0 55.776 L 0 49.68 L 12.286 49.68 Z M 30.714 49.68 L 30.714 55.776 L 18.43 55.776 L 18.43 49.68 L 30.715 49.68 Z M 43 49.68 L 43 55.776 L 36.857 55.776 L 36.857 49.68 L 43 49.68 Z M 129 49.68 L 129 55.776 L 122.857 55.776 L 122.857 49.68 L 129 49.68 Z M 43 0.918 L 43 43.585 L 0 43.585 L 0 0.918 L 43 0.918 Z M 129 0.918 L 129 43.585 L 86 43.585 L 86 0.918 L 129 0.918 Z M 73.714 37.49 L 67.571 37.49 L 67.571 43.585 L 73.714 43.585 L 73.714 37.49 Z M 36.857 7.014 L 6.143 7.014 L 6.143 37.49 L 36.857 37.49 L 36.857 7.014 Z M 122.857 7.014 L 92.143 7.014 L 92.143 37.49 L 122.857 37.49 L 122.857 7.014 Z M 30.714 13.109 L 30.714 31.395 L 12.286 31.395 L 12.286 13.109 L 30.714 13.109 Z M 79.857 0.919 L 79.857 7.014 L 73.714 7.014 L 73.714 13.109 L 67.571 13.109 L 67.571 7.014 L 61.43 7.014 L 61.43 13.109 L 67.572 13.109 L 67.572 19.204 L 73.715 19.204 L 73.715 25.3 L 67.572 25.3 L 67.572 31.396 L 61.43 31.396 L 61.43 25.3 L 55.287 25.3 L 55.287 7.014 L 49.144 7.014 L 49.144 0.918 L 79.858 0.918 Z M 116.714 13.109 L 116.714 31.395 L 98.286 31.395 L 98.286 13.109 L 116.714 13.109 Z"
        fill="#ffffff"/>
</svg>
