<svg
    xmlns="http://www.w3.org/2000/svg"
    viewBox="0 0 18 18"
    id="vector">
    <path
        id="path"
        d="M 16.888 8.052 C 16.834 7.727 16.515 7.506 16.176 7.558 C 15.837 7.609 15.606 7.915 15.66 8.24 L 15.662 8.25 C 16.295 11.823 13.787 15.212 10.061 15.818 C 6.334 16.425 2.8 14.021 2.167 10.448 C 1.534 6.876 4.042 3.488 7.768 2.881 C 10.06 2.507 12.393 3.275 13.963 4.919 L 11.209 5.799 C 10.883 5.902 10.707 6.239 10.815 6.552 C 10.924 6.864 11.275 7.033 11.601 6.929 L 15.331 5.737 C 15.585 5.657 15.757 5.428 15.757 5.172 L 15.757 1.596 C 15.757 1.266 15.478 1 15.135 1 C 14.792 1 14.513 1.267 14.513 1.596 L 14.513 3.773 C 11.312 0.853 6.248 0.975 3.203 4.045 C 0.158 7.114 0.285 11.968 3.487 14.888 C 6.688 17.807 11.752 17.685 14.797 14.616 C 16.533 12.866 17.307 10.434 16.888 8.052 Z"
        fill="#ffffff"
        stroke="#ffffff"
        stroke-width="1"/>
</svg>
