<svg
    xmlns="http://www.w3.org/2000/svg"
    viewBox="0 0 24 21"
    id="vector">
    <path
        id="path"
        d="M 23.263 9.05 L 12.62 0.652 C 12.081 0.233 11.313 0.233 10.774 0.652 L 0.135 9.05 C -0.022 9.174 -0.045 9.396 0.082 9.547 L 0.543 10.096 C 0.67 10.246 0.899 10.27 1.055 10.148 L 2.923 8.673 L 2.923 19.413 C 2.923 19.804 3.25 20.121 3.654 20.121 L 9.505 20.121 C 9.909 20.121 10.236 19.804 10.236 19.413 L 10.236 13.756 L 13.162 13.769 L 13.162 19.43 C 13.162 19.821 13.489 20.137 13.893 20.137 L 19.744 20.123 C 20.148 20.123 20.475 19.806 20.475 19.416 L 20.475 8.673 L 22.343 10.148 C 22.499 10.271 22.73 10.248 22.857 10.097 L 23.319 9.549 C 23.38 9.476 23.408 9.382 23.398 9.288 C 23.387 9.195 23.339 9.109 23.263 9.05 Z M 19.007 18.712 L 19.012 18.712 L 14.624 18.725 L 14.624 13.06 C 14.623 12.671 14.297 12.355 13.895 12.353 L 9.507 12.341 C 9.312 12.341 9.126 12.415 8.988 12.547 C 8.851 12.68 8.773 12.86 8.773 13.048 L 8.773 18.712 L 4.386 18.712 L 4.386 7.519 L 11.699 1.748 L 19.012 7.519 L 19.007 18.712 Z"
        fill="#8a8a8a"
        stroke="#00000000"
        stroke-width="1"/>
</svg>
