<svg
    xmlns="http://www.w3.org/2000/svg"
    viewBox="0 0 24 25"
    id="vector">
    <path
        id="path_1"
        d="M 11.88 1.89 C 14.748 1.89 17.077 4.22 17.077 7.088 C 17.077 9.955 14.748 12.285 11.88 12.285 C 9.012 12.285 6.682 9.955 6.682 7.088 C 6.682 4.22 9.012 1.89 11.88 1.89 M 17.82 16.74 C 20.275 16.74 22.275 18.74 22.275 21.195 L 22.275 22.68 L 1.485 22.68 L 1.485 21.195 C 1.485 18.74 3.485 16.74 5.94 16.74 C 9.885 16.74 9.063 17.482 11.88 17.482 C 14.706 17.482 13.871 16.74 17.82 16.74 M 11.88 0.405 C 8.191 0.405 5.197 3.398 5.197 7.088 C 5.197 10.777 8.191 13.77 11.88 13.77 C 15.569 13.77 18.563 10.777 18.563 7.088 C 18.563 3.398 15.569 0.405 11.88 0.405 Z M 17.82 15.255 C 13.532 15.255 14.525 15.997 11.88 15.997 C 9.244 15.997 10.223 15.255 5.94 15.255 C 2.659 15.255 0 17.914 0 21.195 L 0 22.68 C 0 23.501 0.664 24.165 1.485 24.165 L 22.275 24.165 C 23.096 24.165 23.76 23.501 23.76 22.68 L 23.76 21.195 C 23.76 17.914 21.101 15.255 17.82 15.255 Z"
        fill="#8a8a8a"
        stroke="#00000000"
        stroke-width="1.2"/>
</svg>
