<svg
    xmlns="http://www.w3.org/2000/svg"
    viewBox="0 0 27 28"
    id="vector">
    <path
        id="path"
        d="M 24.661 5.563 L 20.196 5.563 C 19.459 5.563 18.857 6.135 18.857 6.838 L 18.857 11.088 C 18.857 11.79 19.459 12.363 20.196 12.363 L 24.661 12.363 C 25.398 12.363 26 11.79 26 11.088 L 26 6.838 C 26 6.135 25.398 5.563 24.661 5.563 Z M 24.214 10.662 L 20.643 10.662 L 20.643 7.263 L 24.214 7.263 L 24.214 10.662 Z M 15.732 5.563 L 11.268 5.563 C 10.53 5.563 9.929 6.135 9.929 6.838 L 9.929 11.088 C 9.929 11.79 10.53 12.363 11.268 12.363 L 15.732 12.363 C 16.47 12.363 17.071 11.79 17.071 11.088 L 17.071 6.838 C 17.071 6.135 16.47 5.563 15.732 5.563 Z M 15.286 10.662 L 11.714 10.662 L 11.714 7.263 L 15.286 7.263 L 15.286 10.662 Z M 6.804 5.563 L 2.339 5.563 C 1.602 5.563 1 6.135 1 6.838 L 1 11.088 C 1 11.79 1.602 12.363 2.339 12.363 L 6.804 12.363 C 7.541 12.363 8.143 11.79 8.143 11.088 L 8.143 6.838 C 8.143 6.135 7.541 5.563 6.804 5.563 Z M 6.357 10.662 L 2.786 10.662 L 2.786 7.263 L 6.357 7.263 L 6.357 10.662 Z M 24.661 15.762 L 20.196 15.762 C 19.459 15.762 18.857 16.335 18.857 17.038 L 18.857 21.288 C 18.857 21.99 19.459 22.563 20.196 22.563 L 24.661 22.563 C 25.398 22.563 26 21.99 26 21.288 L 26 17.038 C 26 16.335 25.398 15.762 24.661 15.762 Z M 24.214 20.863 L 20.643 20.863 L 20.643 17.462 L 24.214 17.462 L 24.214 20.863 Z M 15.732 15.762 L 11.268 15.762 C 10.53 15.762 9.929 16.335 9.929 17.038 L 9.929 21.288 C 9.929 21.99 10.53 22.563 11.268 22.563 L 15.732 22.563 C 16.47 22.563 17.071 21.99 17.071 21.288 L 17.071 17.038 C 17.071 16.335 16.47 15.762 15.732 15.762 Z M 15.286 20.863 L 11.714 20.863 L 11.714 17.462 L 15.286 17.462 L 15.286 20.863 Z M 6.804 15.762 L 2.339 15.762 C 1.602 15.762 1 16.335 1 17.038 L 1 21.288 C 1 21.99 1.602 22.563 2.339 22.563 L 6.804 22.563 C 7.541 22.563 8.143 21.99 8.143 21.288 L 8.143 17.038 C 8.143 16.335 7.541 15.762 6.804 15.762 Z M 6.357 20.863 L 2.786 20.863 L 2.786 17.462 L 6.357 17.462 L 6.357 20.863 Z"
        fill="#42ae9f"
        stroke-width="1"/>
</svg>
