<svg
    xmlns="http://www.w3.org/2000/svg"
    viewBox="0 0 24 22"
    id="vector">
    <path
        id="path"
        d="M 18 11.429 C 17.171 11.429 16.501 12.087 16.501 12.898 C 16.501 13.71 17.171 14.367 18 14.367 C 18.829 14.367 19.501 13.71 19.501 12.898 C 19.501 12.087 18.829 11.429 18 11.429 Z M 21.75 4.081 L 21 4.081 L 21 3.347 C 21 2.129 19.993 1.143 18.75 1.143 L 4.501 1.143 C 2.015 1.143 0 3.117 0 5.551 L 0 17.306 C 0 19.741 2.015 21.714 4.501 21.714 L 21 21.714 C 22.657 21.714 24 20.399 24 18.776 L 24 6.286 C 24 5.069 22.993 4.081 21.75 4.081 Z M 22.501 18.776 C 22.501 19.585 21.827 20.245 21 20.245 L 4.501 20.245 C 2.846 20.245 1.501 18.927 1.501 17.306 L 1.501 5.551 C 1.501 3.93 2.846 2.613 4.501 2.613 L 18.75 2.613 C 19.163 2.613 19.501 2.942 19.501 3.347 L 19.501 4.081 L 5.25 4.081 C 4.835 4.081 4.501 4.41 4.501 4.816 C 4.501 5.222 4.835 5.551 5.25 5.551 L 21.75 5.551 C 22.163 5.551 22.501 5.881 22.501 6.286 L 22.501 18.776 Z"
        fill="#42ae9f"
        stroke="#00000000"
        stroke-width="1.142857"/>
</svg>
