<?xml version="1.0" standalone="no"?>
<!DOCTYPE svg PUBLIC "-//W3C//DTD SVG 20010904//EN"
 "http://www.w3.org/TR/2001/REC-SVG-20010904/DTD/svg10.dtd">
<svg version="1.0" xmlns="http://www.w3.org/2000/svg"
 width="150.000000pt" height="150.000000pt" viewBox="0 0 150.000000 150.000000"
 preserveAspectRatio="xMidYMid meet">
<metadata>
Created by potrace 1.14, written by Peter Selinger 2001-2017
</metadata>
<g transform="translate(0.000000,150.000000) scale(0.100000,-0.100000)"
fill="#000000" stroke="none">
<path d="M994 1255 c-36 -16 -94 -67 -221 -194 -94 -94 -174 -171 -178 -171
-3 0 -18 12 -33 26 -72 68 -180 90 -272 55 -140 -53 -209 -201 -158 -339 18
-49 42 -79 166 -204 87 -88 162 -156 187 -168 54 -26 128 -31 190 -13 46 14
76 41 347 310 184 184 304 311 317 337 66 132 7 298 -129 359 -64 29 -153 30
-216 2z"/>
</g>
</svg>
