<svg
    xmlns="http://www.w3.org/2000/svg"
    viewBox="0 0 53 42"
    id="vector">
    <path
        id="path"
        d="M 36.1 1.443 C 34.909 0.418 33.568 0 32.26 0 C 30.372 0 28.567 0.878 27.408 2.075 L 26.497 3.035 L 25.577 2.083 C 24.443 0.903 22.63 0 20.717 0 C 19.417 0 18.084 0.418 16.884 1.443 C 13.961 3.953 13.804 8.464 16.42 11.179 L 25.437 20.537 C 26.017 21.144 26.961 21.144 27.548 20.537 L 36.565 11.179 C 39.182 8.464 39.033 3.953 36.102 1.443 Z M 34.693 9.358 L 26.496 17.871 L 18.299 9.358 C 16.916 7.923 16.609 5.126 18.58 3.445 C 19.26 2.862 20.013 2.633 20.758 2.633 C 21.908 2.633 23.018 3.199 23.706 3.913 L 26.496 6.799 L 29.286 3.904 C 29.966 3.199 31.083 2.624 32.234 2.624 C 32.971 2.624 33.733 2.854 34.404 3.436 C 36.382 5.134 36.076 7.914 34.693 9.358 Z M 18.216 20.405 C 17.056 18.831 14.15 17.83 12.047 20.085 C 10.756 21.463 10.731 23.595 11.84 25.113 L 14.208 28.336 C 14.747 29.066 13.67 29.903 13.082 29.214 L 7.95 23.202 L 7.95 11.958 C 7.95 9.825 6.194 7.914 4.042 7.882 C 1.813 7.84 0 9.612 0 11.81 L 0 25.786 C 0 26.68 0.306 27.549 0.87 28.246 L 9.729 39.211 C 10.176 39.769 10.466 40.647 10.565 41.426 C 10.607 41.754 10.896 41.992 11.228 41.992 L 12.552 41.992 C 12.95 41.992 13.256 41.672 13.215 41.278 C 13.082 39.966 12.594 38.548 11.799 37.571 L 2.939 26.606 C 2.749 26.376 2.649 26.081 2.649 25.786 L 2.649 11.81 C 2.649 10.088 5.299 10.039 5.299 11.868 L 5.299 24.145 L 10.648 30.501 C 13.703 34.127 18.663 30.28 16.51 27.024 C 16.494 26.999 16.477 26.983 16.469 26.958 L 13.935 23.498 C 13.546 22.964 13.587 22.128 14.225 21.668 C 14.805 21.25 15.641 21.357 16.08 21.955 L 19.59 26.745 C 20.642 28.131 21.205 29.813 21.205 31.502 L 21.205 41.344 C 21.205 41.704 21.503 42 21.867 42 L 23.192 42 C 23.556 42 23.855 41.705 23.855 41.344 L 23.855 31.502 C 23.855 29.23 23.109 27.024 21.735 25.203 L 18.215 20.405 Z M 52.992 11.81 C 52.992 9.612 51.178 7.84 48.952 7.873 C 46.798 7.906 45.043 9.817 45.043 11.95 L 45.043 23.194 L 39.909 29.206 C 39.322 29.895 38.245 29.066 38.783 28.328 L 41.151 25.105 C 42.261 23.588 42.236 21.447 40.944 20.077 C 38.833 17.83 35.927 18.822 34.776 20.397 L 31.266 25.187 C 29.891 27.007 29.146 29.222 29.146 31.494 L 29.146 41.336 C 29.146 41.696 29.444 41.992 29.808 41.992 L 31.133 41.992 C 31.497 41.992 31.795 41.697 31.795 41.336 L 31.795 31.494 C 31.795 29.804 32.358 28.123 33.41 26.737 L 36.92 21.947 C 37.36 21.349 38.187 21.234 38.775 21.66 C 39.421 22.12 39.462 22.956 39.065 23.49 L 36.531 26.95 C 36.515 26.975 36.498 26.991 36.49 27.016 C 34.329 30.272 39.297 34.126 42.352 30.493 L 47.701 24.137 L 47.701 11.86 C 47.701 10.031 50.351 10.08 50.351 11.803 L 50.351 25.778 C 50.351 26.074 50.251 26.368 50.061 26.598 L 41.2 37.564 C 40.413 38.54 39.917 39.959 39.784 41.271 C 39.743 41.665 40.049 41.985 40.447 41.985 L 41.771 41.985 C 42.103 41.985 42.392 41.747 42.434 41.419 C 42.534 40.631 42.814 39.762 43.27 39.204 L 52.13 28.239 C 52.693 27.542 52.999 26.672 52.999 25.779 L 52.991 11.811 Z"
        fill="#42ae9f"/>
</svg>
