<svg
    xmlns="http://www.w3.org/2000/svg"
    viewBox="0 0 30 30"
    id="vector">
    <path
        id="path"
        d="M 11.426 3.516 C 11.425 2.584 11.054 1.69 10.395 1.031 C 9.736 0.372 8.842 0.001 7.91 0 C 6.978 0.001 6.084 0.372 5.426 1.031 C 4.767 1.69 4.396 2.584 4.395 3.516 C 4.397 4.447 4.768 5.341 5.426 5.999 C 6.085 6.658 6.979 7.029 7.91 7.03 C 8.842 7.029 9.736 6.658 10.395 5.999 C 11.054 5.341 11.425 4.447 11.426 3.515 Z M 7.91 5.273 C 7.444 5.272 6.997 5.087 6.668 4.758 C 6.338 4.429 6.153 3.982 6.152 3.516 C 6.152 2.546 6.941 1.758 7.91 1.758 C 8.88 1.758 9.668 2.546 9.668 3.516 C 9.667 3.982 9.482 4.429 9.152 4.758 C 8.823 5.087 8.376 5.272 7.91 5.273 Z M 22.031 7.031 C 22.185 7.031 22.337 6.991 22.471 6.914 C 22.605 6.836 22.716 6.725 22.793 6.592 C 22.87 6.458 22.911 6.306 22.911 6.152 L 22.911 4.395 C 22.91 4.162 22.817 3.939 22.652 3.775 C 22.488 3.611 22.264 3.518 22.032 3.518 C 21.799 3.518 21.575 3.611 21.411 3.775 C 21.246 3.939 21.153 4.162 21.152 4.395 L 21.152 6.152 C 21.152 6.638 21.546 7.032 22.032 7.032 Z M 18.302 8.06 C 18.432 8.198 18.602 8.29 18.789 8.324 C 18.975 8.357 19.167 8.329 19.337 8.244 C 19.506 8.159 19.643 8.022 19.728 7.853 C 19.813 7.684 19.841 7.491 19.808 7.305 C 19.775 7.119 19.683 6.948 19.545 6.818 L 18.302 5.575 C 18.171 5.441 18.001 5.352 17.817 5.322 C 17.632 5.291 17.443 5.32 17.276 5.405 C 17.109 5.489 16.973 5.625 16.889 5.792 C 16.804 5.959 16.775 6.148 16.806 6.333 C 16.836 6.517 16.925 6.687 17.059 6.818 L 18.302 8.061 Z M 25.76 8.06 L 27.003 6.818 C 27.137 6.687 27.226 6.517 27.256 6.333 C 27.287 6.148 27.258 5.959 27.173 5.792 C 27.089 5.625 26.953 5.489 26.786 5.405 C 26.619 5.32 26.43 5.291 26.245 5.322 C 26.061 5.352 25.891 5.441 25.76 5.575 L 24.517 6.818 C 24.383 6.949 24.294 7.119 24.264 7.303 C 24.233 7.488 24.262 7.677 24.347 7.844 C 24.431 8.011 24.567 8.147 24.734 8.231 C 24.901 8.316 25.09 8.345 25.275 8.314 C 25.459 8.284 25.629 8.195 25.76 8.061 Z M 29.121 15.82 L 28.242 15.82 L 28.242 11.426 C 28.242 11.272 28.202 11.12 28.125 10.986 C 28.047 10.852 27.936 10.741 27.803 10.664 C 27.669 10.587 27.517 10.546 27.363 10.546 L 16.816 10.546 C 16.662 10.546 16.51 10.587 16.377 10.664 C 16.243 10.742 16.132 10.853 16.055 10.986 C 15.978 11.12 15.938 11.272 15.938 11.426 L 15.938 15.82 L 14.062 15.82 L 14.062 11.426 C 14.062 11.272 14.022 11.12 13.945 10.986 C 13.868 10.853 13.757 10.742 13.623 10.664 C 13.49 10.587 13.338 10.546 13.184 10.546 L 12.216 10.546 C 12.012 9.555 11.472 8.663 10.688 8.024 C 9.904 7.384 8.922 7.033 7.91 7.032 C 6.898 7.033 5.916 7.384 5.132 8.024 C 4.348 8.665 3.808 9.556 3.604 10.548 L 2.637 10.548 C 2.483 10.548 2.331 10.588 2.197 10.665 C 2.063 10.743 1.952 10.854 1.875 10.987 C 1.798 11.121 1.757 11.273 1.757 11.427 L 1.757 15.821 L 0.88 15.821 C 0.726 15.821 0.574 15.861 0.44 15.938 C 0.306 16.016 0.195 16.127 0.118 16.26 C 0.041 16.394 0 16.546 0 16.7 L 0 29.12 C 0 29.353 0.093 29.577 0.257 29.742 C 0.422 29.906 0.646 29.999 0.879 29.999 C 1.112 29.999 1.336 29.906 1.501 29.742 C 1.665 29.577 1.758 29.353 1.758 29.12 L 1.758 28.241 L 28.242 28.241 L 28.242 29.121 C 28.242 29.354 28.335 29.578 28.499 29.743 C 28.664 29.907 28.888 30 29.121 30 C 29.354 30 29.578 29.907 29.743 29.743 C 29.907 29.578 30 29.354 30 29.121 L 30 16.698 C 30 16.465 29.907 16.241 29.743 16.076 C 29.578 15.912 29.354 15.819 29.121 15.819 Z M 17.695 12.305 L 26.485 12.305 L 26.485 15.82 L 17.695 15.82 L 17.695 12.305 Z M 7.91 8.789 C 8.455 8.789 8.987 8.959 9.432 9.274 C 9.877 9.588 10.214 10.033 10.396 10.547 L 5.425 10.547 C 5.607 10.033 5.944 9.589 6.389 9.274 C 6.833 8.959 7.365 8.79 7.91 8.789 Z M 3.516 12.305 L 12.305 12.305 L 12.305 15.82 L 3.515 15.82 L 3.515 12.305 Z M 1.758 17.578 L 28.242 17.578 L 28.242 26.484 L 1.758 26.484 L 1.758 17.578 Z"
        fill="#36a39a"/>
</svg>
