<svg
    xmlns="http://www.w3.org/2000/svg"
    viewBox="0 0 42 42"
    id="vector">
    <path
        id="path_3"
        d="M 40 27.083 L 39 27.083 L 39 20.61 C 38.999 19.848 38.682 19.117 38.119 18.58 L 31.875 12.596 C 31.313 12.056 30.551 11.752 29.756 11.751 L 27 11.751 L 27 8.875 C 27 7.287 25.657 6 24 6 L 4 6 C 2.343 6 1 7.287 1 8.875 L 1 28.042 C 1 29.629 2.343 30.917 4 30.917 L 5.135 30.917 C 5.625 27.678 8.486 25.167 12 25.167 C 15.514 25.167 18.409 27.674 18.899 30.917 L 23.1 30.917 C 23.59 27.674 26.482 25.167 29.999 25.167 C 33.516 25.167 36.374 27.678 36.864 30.917 L 40 30.917 C 40.552 30.917 41 30.487 41 29.958 L 41 28.042 C 41 27.512 40.552 27.083 40 27.083 Z M 36 21.333 L 27 21.333 L 27 14.625 L 29.756 14.625 L 36 20.609 L 36 21.333 Z"
        fill="#00000000"
        stroke="#42ae9f"
        stroke-width="1.5"/>
    <path
        id="path_4"
        d="M 30 32 M 25.75 32 C 25.75 30.873 26.198 29.792 26.995 28.995 C 27.792 28.198 28.873 27.75 30 27.75 C 31.127 27.75 32.208 28.198 33.005 28.995 C 33.802 29.792 34.25 30.873 34.25 32 C 34.25 33.127 33.802 34.208 33.005 35.005 C 32.208 35.802 31.127 36.25 30 36.25 C 28.873 36.25 27.792 35.802 26.995 35.005 C 26.198 34.208 25.75 33.127 25.75 32"
        fill="#00000000"
        stroke="#42ae9f"
        stroke-width="1.5"
        fill-rule="evenodd"/>
    <path
        id="path_5"
        d="M 12 32 M 7.75 32 C 7.75 30.873 8.198 29.792 8.995 28.995 C 9.792 28.198 10.873 27.75 12 27.75 C 13.127 27.75 14.208 28.198 15.005 28.995 C 15.802 29.792 16.25 30.873 16.25 32 C 16.25 33.127 15.802 34.208 15.005 35.005 C 14.208 35.802 13.127 36.25 12 36.25 C 10.873 36.25 9.792 35.802 8.995 35.005 C 8.198 34.208 7.75 33.127 7.75 32"
        fill="#00000000"
        stroke="#42ae9f"
        stroke-width="1.5"
        fill-rule="evenodd"/>
    <path
        id="path_6"
        d="M 17.65 19.609 C 17.622 19.609 17.515 19.618 17.47 19.618 C 15.2 19.618 13.353 17.771 13.353 15.5 C 13.353 13.23 15.2 11.382 17.471 11.382 C 17.516 11.382 17.621 11.392 17.65 11.392 C 17.79 11.392 17.91 11.293 17.938 11.156 C 17.966 11.014 17.888 10.873 17.753 10.822 C 17.183 10.608 16.593 10.5 16 10.5 C 13.243 10.5 11 12.743 11 15.5 C 11 18.257 13.243 20.5 16 20.5 C 16.59 20.5 17.177 20.393 17.745 20.181 C 17.861 20.141 17.945 20.032 17.945 19.903 C 17.945 19.745 17.821 19.609 17.65 19.609 Z"
        fill="#42ae9f"/>
</svg>
