<svg
    xmlns="http://www.w3.org/2000/svg"
    viewBox="0 0 69 92"
    id="vector">
    <path
        id="path_2"
        d="M 34.5 17.242 C 44.012 17.242 51.75 24.981 51.75 34.492 C 51.75 44.002 44.012 51.742 34.5 51.742 C 24.988 51.742 17.25 44.002 17.25 34.492 C 17.25 24.981 24.988 17.242 34.5 17.242 Z M 34.5 45.992 C 40.84 45.992 46 40.83 46 34.492 C 46 28.149 40.84 22.992 34.5 22.992 C 28.16 22.992 23 28.149 23 34.492 C 23 40.83 28.16 45.992 34.5 45.992 Z M 2.941 48.934 C 0.417 46.363 -0.578 42.586 0.342 39.077 C 1.492 34.727 1.492 35.402 0.342 31.047 C -0.578 27.539 0.417 23.764 2.941 21.188 C 6.1 18.004 5.74 18.548 6.877 14.255 C 7.805 10.728 10.539 7.95 14.015 7.007 C 18.203 5.87 17.72 6.184 20.8 3.013 C 23.355 0.422 27.112 -0.595 30.598 0.35 C 34.819 1.521 34.209 1.503 38.407 0.35 C 41.868 -0.603 45.645 0.422 48.2 3.018 C 51.31 6.195 50.756 5.855 54.978 7.005 C 58.458 7.95 61.193 10.728 62.12 14.252 C 63.263 18.571 62.908 18.001 66.056 21.191 C 68.589 23.767 69.58 27.541 68.66 31.05 C 67.51 35.394 67.51 34.72 68.66 39.08 C 69.58 42.588 68.583 46.363 66.059 48.939 C 62.9 52.123 63.26 51.579 62.123 55.872 C 61.76 57.244 61.06 58.453 60.214 59.534 L 68.783 80.625 C 69.557 82.524 68.154 84.586 66.125 84.586 C 66.028 84.586 66.649 84.607 56.547 84.221 L 50.03 91.1 C 49.453 91.714 48.699 92 47.952 92 C 46.843 92 45.755 91.366 45.282 90.211 L 35.857 67.025 C 34.978 66.723 34.022 66.723 33.14 67.025 L 23.718 90.211 C 23.248 91.366 22.159 92 21.048 92 C 20.301 92 19.547 91.714 18.967 91.1 L 12.453 84.223 C 2.351 84.609 2.972 84.589 2.872 84.589 C 0.846 84.589 -0.557 82.527 0.215 80.628 L 8.786 59.537 C 7.943 58.456 7.24 57.25 6.88 55.877 C 5.737 51.553 6.092 52.123 2.944 48.934 Z M 48.926 83.904 L 54.16 78.379 L 61.781 78.673 L 55.392 62.954 C 55.251 63 55.128 63.086 54.983 63.127 C 51.052 64.18 51.305 63.953 49.307 65.984 C 47.518 67.807 45.21 68.783 42.844 68.949 L 48.926 83.907 Z M 7.219 78.665 L 14.84 78.376 L 20.074 83.904 L 26.164 68.918 C 23.79 68.755 21.482 67.804 19.693 65.979 C 17.641 63.894 17.925 64.15 14.015 63.122 C 13.872 63.084 13.749 62.994 13.606 62.951 L 7.217 78.668 Z M 12.438 54.413 C 12.842 55.954 14.027 57.165 15.53 57.577 C 19.777 58.699 20.634 58.734 23.792 61.954 C 25.231 63.411 27.421 63.682 29.138 62.58 C 32.397 60.523 36.606 60.523 39.864 62.583 C 41.571 63.667 43.774 63.414 45.21 61.952 C 48.333 58.775 49.184 58.727 53.47 57.574 C 54.975 57.165 56.158 55.951 56.562 54.408 C 58.011 48.903 57.917 48.982 61.959 44.909 C 63.071 43.774 63.511 42.1 63.099 40.539 C 61.635 35.065 61.625 35.062 63.099 29.588 C 63.508 28.027 63.071 26.353 61.959 25.221 C 57.932 21.142 58.016 21.26 56.565 15.714 C 56.158 14.173 54.975 12.959 53.47 12.553 C 47.937 11.043 48.136 11.152 44.101 7.051 C 43.168 6.098 41.62 5.441 39.92 5.901 C 34.446 7.406 34.554 7.409 29.087 5.901 C 27.615 5.492 26 5.934 24.899 7.043 C 20.894 11.152 20.971 11.076 15.528 12.553 C 14.027 12.962 12.844 14.173 12.438 15.717 C 10.989 21.221 11.083 21.142 7.043 25.218 C 5.929 26.35 5.492 28.024 5.903 29.588 C 7.375 35.07 7.37 35.072 5.903 40.539 C 5.494 42.098 5.931 43.772 7.043 44.904 C 11.068 48.985 10.984 48.867 12.438 54.41 Z"
        fill="#42ae9f"/>
</svg>
