<svg
    xmlns="http://www.w3.org/2000/svg"
    viewBox="0 0 20 20"
    id="vector">
    <path
        id="path"
        d="M 6.473 1.295 L 1.294 1.295 L 1.294 6.472 L 6.473 6.472 Z M 7.768 0 L 7.768 7.772 L 0 7.772 L 0 0 Z M 2.589 2.589 L 5.178 2.589 L 5.178 5.179 L 2.589 5.179 Z M 19.419 1.295 L 14.24 1.295 L 14.24 6.472 L 19.419 6.472 Z M 20.714 0 L 20.714 7.772 L 12.946 7.772 L 12.946 0 L 20.714 0 Z M 15.535 2.589 L 18.129 2.589 L 18.129 5.179 L 15.535 5.179 Z M 6.473 14.241 L 1.294 14.241 L 1.294 19.419 L 6.473 19.419 Z M 7.768 12.946 L 7.768 20.714 L 0 20.714 L 0 12.946 Z M 2.589 15.535 L 5.178 15.535 L 5.178 18.124 L 2.589 18.124 Z M 9.062 0 L 10.357 0 L 10.357 1.295 L 9.062 1.295 Z M 10.357 1.295 L 11.652 1.295 L 11.652 2.589 L 10.357 2.589 Z M 9.062 2.589 L 10.357 2.589 L 10.357 3.884 L 9.062 3.884 Z M 10.357 3.884 L 11.652 3.884 L 11.652 5.179 L 10.357 5.179 Z M 9.062 5.179 L 10.357 5.179 L 10.357 6.472 L 9.062 6.472 Z M 10.357 6.472 L 11.652 6.472 L 11.652 7.772 L 10.357 7.772 Z M 9.062 7.772 L 10.357 7.772 L 10.357 9.062 L 9.062 9.062 Z M 9.062 10.361 L 10.357 10.361 L 10.357 11.652 L 9.062 11.652 Z M 10.357 11.656 L 11.652 11.656 L 11.652 12.951 L 10.357 12.951 Z M 9.062 12.951 L 10.357 12.951 L 10.357 14.246 L 9.062 14.246 Z M 10.357 14.246 L 11.652 14.246 L 11.652 15.541 L 10.357 15.541 Z M 9.062 15.541 L 10.357 15.541 L 10.357 16.836 L 9.062 16.836 Z M 10.357 16.836 L 11.652 16.836 L 11.652 18.131 L 10.357 18.131 Z M 9.062 18.131 L 10.357 18.131 L 10.357 19.426 L 9.062 19.426 Z M 10.357 19.426 L 11.652 19.426 L 11.652 20.721 L 10.357 20.721 Z M 19.419 10.364 L 20.714 10.364 L 20.714 11.652 L 19.419 11.652 Z M 1.294 10.364 L 2.589 10.364 L 2.589 11.652 L 1.294 11.652 Z M 2.589 9.062 L 3.884 9.062 L 3.884 10.357 L 2.589 10.357 Z M 0 9.062 L 1.294 9.062 L 1.294 10.357 L 0 10.357 Z M 5.178 9.062 L 6.473 9.062 L 6.473 10.357 L 5.178 10.357 Z M 6.473 10.357 L 7.768 10.357 L 7.768 11.652 L 6.473 11.652 Z M 7.768 9.062 L 9.063 9.062 L 9.063 10.357 L 7.767 10.357 Z M 11.652 10.357 L 12.947 10.357 L 12.947 11.652 L 11.651 11.652 Z M 12.947 9.062 L 14.242 9.062 L 14.242 10.357 L 12.946 10.357 Z M 14.242 10.357 L 15.537 10.357 L 15.537 11.652 L 14.24 11.652 Z M 15.537 9.062 L 16.829 9.062 L 16.829 10.357 L 15.535 10.357 Z M 16.829 10.357 L 18.129 10.357 L 18.129 11.652 L 16.829 11.652 Z M 18.129 9.062 L 19.419 9.062 L 19.419 10.357 L 18.129 10.357 Z M 19.424 12.946 L 20.719 12.946 L 20.719 14.241 L 19.419 14.241 Z M 11.656 12.946 L 12.951 12.946 L 12.951 14.241 L 11.651 14.241 Z M 12.951 11.651 L 14.246 11.651 L 14.246 12.946 L 12.946 12.946 Z M 14.246 12.946 L 15.541 12.946 L 15.541 14.241 L 14.24 14.241 Z M 16.835 12.946 L 18.129 12.946 L 18.129 14.241 L 16.829 14.241 Z M 18.129 11.652 L 19.419 11.652 L 19.419 12.947 L 18.129 12.947 Z M 19.424 15.536 L 20.719 15.536 L 20.719 16.831 L 19.419 16.831 Z M 11.656 15.536 L 12.951 15.536 L 12.951 16.831 L 11.651 16.831 Z M 12.951 14.241 L 14.246 14.241 L 14.246 15.536 L 12.946 15.536 Z M 15.54 14.241 L 16.829 14.241 L 16.829 15.536 L 15.535 15.536 Z M 16.829 15.535 L 18.129 15.535 L 18.129 16.83 L 16.829 16.83 Z M 18.129 14.241 L 19.419 14.241 L 19.419 15.536 L 18.129 15.536 Z M 19.424 18.125 L 20.719 18.125 L 20.719 19.42 L 19.419 19.42 Z M 12.951 16.83 L 14.246 16.83 L 14.246 18.125 L 12.946 18.125 Z M 14.246 18.125 L 15.541 18.125 L 15.541 19.42 L 14.24 19.42 Z M 15.541 16.83 L 16.829 16.83 L 16.829 18.125 L 15.535 18.125 Z M 16.829 18.125 L 18.129 18.125 L 18.129 19.42 L 16.829 19.42 Z M 12.945 19.42 L 14.24 19.42 L 14.24 20.715 L 12.946 20.715 Z M 15.534 19.42 L 16.829 19.42 L 16.829 20.715 L 15.535 20.715 Z M 18.123 19.42 L 19.419 19.42 L 19.419 20.715 L 18.129 20.715 Z"
        fill="#42ae9f"/>
</svg>
