<svg
    xmlns="http://www.w3.org/2000/svg"
    viewBox="0 0 46 37"
    id="vector">
    <path
        id="path"
        d="M 4.6 21.68 C 4.6 22.478 5.244 23.125 6.038 23.125 C 6.831 23.125 7.475 22.478 7.475 21.68 C 7.475 20.881 6.831 20.234 6.037 20.234 C 5.244 20.234 4.6 20.881 4.6 21.68 Z M 2.3 25.227 L 2.295 18.5 L 17.383 18.5 L 17.914 16.187 L 14.95 16.187 L 14.95 9.25 L 25.3 9.25 L 25.3 10.406 L 27.6 10.406 L 27.6 5.076 C 27.6 2.233 21.49 0 13.8 0 C 6.11 0 0 2.234 0 5.075 L 0 25.227 C 0 26.621 1.123 27.75 2.51 27.75 L 2.3 27.75 L 2.3 31.219 C 2.3 31.857 2.815 32.375 3.45 32.375 L 4.6 32.375 C 5.235 32.375 5.75 31.857 5.75 31.219 L 5.75 27.75 L 13.8 27.75 L 13.8 26.209 C 13.8 25.944 13.867 25.696 13.893 25.438 L 2.509 25.438 C 2.394 25.438 2.3 25.343 2.3 25.228 Z M 12.65 16.187 L 2.3 16.187 L 2.3 9.25 L 12.65 9.25 L 12.65 16.188 Z M 2.286 5.171 C 2.617 4.357 6.529 2.312 13.8 2.312 C 21.07 2.312 24.983 4.357 25.3 5.075 L 25.3 6.937 L 2.287 6.937 L 2.286 5.171 Z M 42.794 21.278 L 41.653 16.304 C 41.178 14.201 39.316 12.711 37.171 12.719 L 24.73 12.719 C 22.585 12.711 20.722 14.201 20.248 16.304 L 19.078 21.402 C 17.322 22.29 16.1 24.1 16.1 26.21 L 16.1 30.192 C 16.105 31.635 17.034 32.912 18.4 33.354 L 18.4 35.844 C 18.4 36.484 18.915 37.001 19.55 37.001 L 20.7 37.001 C 21.335 37.001 21.85 36.483 21.85 35.845 L 21.85 33.53 L 40.25 33.53 L 40.25 35.843 C 40.25 36.481 40.765 36.999 41.4 36.999 L 42.55 36.999 C 43.185 36.999 43.7 36.481 43.7 35.843 L 43.7 33.352 C 45.066 32.909 45.995 31.633 46 30.19 L 46 26.21 C 45.996 24.073 44.74 22.14 42.794 21.279 Z M 22.49 16.824 C 22.73 15.774 23.66 15.031 24.731 15.031 L 37.171 15.031 C 38.243 15.031 39.172 15.775 39.413 16.824 L 40.328 20.812 L 21.573 20.812 L 22.489 16.824 Z M 43.7 30.191 C 43.7 30.758 43.242 31.218 42.678 31.219 L 19.422 31.219 C 18.858 31.218 18.401 30.759 18.4 30.191 L 18.4 26.21 C 18.402 24.507 19.774 23.128 21.467 23.126 L 40.633 23.126 C 42.326 23.128 43.698 24.507 43.7 26.21 L 43.7 30.192 Z M 22.137 25.438 C 21.344 25.438 20.7 26.085 20.7 26.883 C 20.7 27.681 21.344 28.328 22.138 28.328 C 22.931 28.328 23.575 27.681 23.575 26.883 C 23.575 26.085 22.931 25.438 22.137 25.438 Z M 39.962 25.438 C 39.169 25.438 38.525 26.085 38.525 26.883 C 38.525 27.681 39.169 28.328 39.963 28.328 C 40.756 28.328 41.4 27.681 41.4 26.883 C 41.4 26.085 40.756 25.438 39.962 25.438 Z"
        fill="#42ae9f"/>
</svg>
