<svg
    xmlns="http://www.w3.org/2000/svg"
    viewBox="0 0 25 31"
    id="vector">
    <path
        id="path"
        d="M 17.527 8.474 L 17.211 8.158 C 16.984 7.932 16.691 7.784 16.375 7.735 C 16.058 7.687 15.734 7.74 15.45 7.888 L 9.853 2.295 C 9.456 1.899 8.932 1.653 8.374 1.601 C 7.815 1.548 7.255 1.692 6.791 2.007 L 5.904 1.12 C 5.697 0.913 5.439 0.764 5.156 0.688 C 4.873 0.612 4.576 0.612 4.293 0.688 C 4.01 0.764 3.752 0.913 3.545 1.12 L 2.354 2.311 C 2.147 2.518 1.998 2.776 1.922 3.059 C 1.846 3.342 1.846 3.639 1.922 3.922 C 1.998 4.205 2.147 4.463 2.354 4.67 L 3.241 5.557 C 2.978 5.944 2.833 6.399 2.823 6.866 C 2.814 7.334 2.941 7.794 3.189 8.191 C 1.991 9.54 1.155 11.171 0.76 12.931 C 0.364 14.691 0.422 16.523 0.927 18.255 C 1.235 19.29 1.695 20.274 2.292 21.174 C 2.772 21.905 3.343 22.572 3.992 23.158 C 4.066 23.224 4.918 23.919 4.925 23.907 L 3.401 26.285 C 2.731 26.349 2.108 26.66 1.655 27.158 C 1.202 27.656 0.951 28.305 0.95 28.978 L 0.95 29.978 C 0.951 30.353 1.101 30.712 1.366 30.977 C 1.631 31.242 1.991 31.391 2.366 31.391 L 23.017 31.391 C 23.492 31.389 23.948 31.2 24.284 30.864 C 24.62 30.528 24.809 30.072 24.811 29.597 C 24.81 28.716 24.46 27.87 23.837 27.247 C 23.214 26.624 22.368 26.274 21.487 26.273 L 13.327 26.273 L 13.327 24.645 L 20.017 24.645 C 20.376 24.644 20.72 24.502 20.973 24.248 C 21.227 23.995 21.369 23.651 21.37 23.292 C 21.369 22.558 21.077 21.854 20.558 21.335 C 20.039 20.816 19.335 20.524 18.601 20.523 L 11.949 20.523 C 11.435 20.11 10.819 19.841 10.166 19.746 C 9.513 19.651 8.847 19.732 8.236 19.982 C 7.352 19.435 6.639 18.65 6.18 17.717 C 5.721 16.784 5.533 15.74 5.638 14.706 C 5.743 13.672 6.137 12.687 6.775 11.866 L 9.122 14.213 C 8.973 14.497 8.919 14.821 8.967 15.138 C 9.016 15.455 9.165 15.748 9.392 15.974 L 10.612 17.194 C 10.798 17.382 11.031 17.516 11.286 17.585 C 11.542 17.654 11.81 17.654 12.066 17.585 C 12.321 17.516 12.554 17.382 12.74 17.194 L 16.368 13.566 L 17.198 12.736 C 18.504 11.431 18.457 11.481 18.527 11.392 C 18.746 11.124 18.865 10.788 18.865 10.442 C 18.852 10.185 18.782 9.935 18.663 9.707 C 18.543 9.48 18.375 9.281 18.171 9.125 M 2.187 19.086 C 1.743 18.05 1.482 16.944 1.416 15.819 Q 1.401 15.543 1.401 15.266 C 1.399 12.919 2.246 10.648 3.786 8.876 L 6.133 11.223 C 5.4 12.133 4.929 13.225 4.769 14.382 C 4.609 15.539 4.766 16.718 5.224 17.793 C 5.682 18.868 6.423 19.798 7.369 20.484 C 6.592 21.09 6.415 21.663 5.412 23.148 C 5.398 23.169 4.491 22.386 4.412 22.311 C 3.459 21.398 2.702 20.301 2.187 19.086 Z M 23.91 29.597 C 23.91 29.834 23.816 30.061 23.648 30.228 C 23.481 30.396 23.254 30.49 23.017 30.49 L 2.366 30.49 C 2.23 30.49 2.099 30.435 2.003 30.339 C 1.907 30.243 1.852 30.112 1.852 29.976 L 1.852 28.976 C 1.854 28.499 2.044 28.042 2.381 27.705 C 2.718 27.368 3.175 27.178 3.652 27.176 L 21.488 27.176 C 22.13 27.177 22.746 27.432 23.199 27.886 C 23.653 28.34 23.909 28.955 23.91 29.597 Z M 18.61 21.424 C 19.105 21.425 19.58 21.622 19.93 21.972 C 20.28 22.322 20.477 22.797 20.478 23.292 C 20.478 23.412 20.43 23.527 20.345 23.611 C 20.261 23.696 20.146 23.744 20.026 23.744 L 13.327 23.744 C 13.38 22.93 13.179 22.119 12.752 21.424 Z M 12.427 23.381 C 12.427 23.388 12.427 23.394 12.427 23.401 L 12.427 26.273 L 4.48 26.273 C 7.49 21.573 7.337 21.797 7.518 21.584 C 7.888 21.152 8.382 20.843 8.932 20.699 C 9.483 20.556 10.064 20.583 10.599 20.779 C 11.133 20.975 11.595 21.33 11.922 21.795 C 12.249 22.26 12.427 22.815 12.43 23.384 Z M 9.215 2.931 L 14.759 8.475 L 11.393 11.841 L 9.71 13.524 C 3.746 7.561 4.167 7.984 4.108 7.92 C 3.85 7.632 3.713 7.257 3.724 6.871 C 3.734 6.485 3.893 6.118 4.166 5.845 L 7.079 2.931 C 7.362 2.648 7.747 2.489 8.147 2.489 C 8.547 2.489 8.932 2.648 9.215 2.931 Z M 2.99 2.947 L 4.183 1.757 C 4.327 1.613 4.522 1.533 4.725 1.533 C 4.928 1.533 5.123 1.613 5.267 1.757 L 6.124 2.614 L 3.848 4.889 L 2.991 4.031 C 2.848 3.887 2.768 3.693 2.768 3.49 C 2.768 3.287 2.848 3.093 2.991 2.949 Z M 12.102 16.554 C 12.027 16.63 11.934 16.684 11.832 16.712 C 11.729 16.739 11.621 16.739 11.518 16.712 C 11.416 16.684 11.323 16.63 11.248 16.554 L 10.027 15.331 C 9.951 15.256 9.897 15.163 9.869 15.061 C 9.842 14.958 9.842 14.85 9.869 14.747 C 9.897 14.645 9.951 14.552 10.027 14.477 L 11.927 12.577 L 15.718 8.786 C 15.793 8.71 15.886 8.656 15.988 8.628 C 16.091 8.601 16.199 8.601 16.302 8.628 C 16.404 8.656 16.497 8.71 16.572 8.786 L 17.792 10.006 C 17.868 10.081 17.922 10.174 17.95 10.276 C 17.977 10.379 17.977 10.487 17.95 10.59 C 17.922 10.692 17.868 10.785 17.792 10.86 Z"
        fill="#35a198"
        stroke="#35a198"
        stroke-width="1"/>
</svg>
