<svg
    xmlns="http://www.w3.org/2000/svg"
    viewBox="0 0 27 36"
    id="vector">
    <path
        id="path"
        d="M 26.009 6.89 L 20.109 0.99 C 19.477 0.358 18.62 0.001 17.726 0 L 3.375 0 C 2.48 0.003 1.622 0.36 0.99 0.994 C 0.357 1.627 0.001 2.486 0 3.381 L 0 32.626 C 0.001 33.521 0.357 34.379 0.989 35.012 C 1.622 35.644 2.48 36 3.375 36 L 23.625 36 C 24.52 36 25.378 35.644 26.011 35.012 C 26.643 34.379 26.999 33.521 27 32.626 L 27 9.279 C 26.999 8.383 26.642 7.523 26.009 6.889 Z M 24.419 8.485 C 24.567 8.633 24.666 8.808 24.715 9.005 L 18 9.005 L 18 2.292 C 18.197 2.341 18.373 2.439 18.52 2.587 L 24.42 8.485 Z M 23.625 33.75 L 3.375 33.75 C 3.077 33.749 2.791 33.63 2.581 33.42 C 2.37 33.209 2.251 32.924 2.25 32.626 L 2.25 3.38 C 2.25 2.762 2.756 2.256 3.375 2.256 L 15.75 2.256 L 15.75 9.566 C 15.75 10.502 16.502 11.254 17.438 11.254 L 24.75 11.254 L 24.75 32.624 C 24.75 33.244 24.244 33.749 23.625 33.749 Z M 15.412 17.385 L 17.494 19.465 C 17.534 19.504 17.563 19.553 17.578 19.607 C 17.593 19.661 17.593 19.719 17.578 19.773 C 17.563 19.827 17.534 19.876 17.494 19.915 L 9.59 27.818 L 7.473 28.121 C 7.343 28.139 7.21 28.116 7.093 28.055 C 6.977 27.995 6.882 27.899 6.821 27.783 C 6.761 27.666 6.738 27.533 6.756 27.403 L 7.058 25.287 L 14.962 17.386 C 15.001 17.346 15.05 17.317 15.104 17.302 C 15.158 17.287 15.216 17.287 15.27 17.302 C 15.324 17.317 15.373 17.346 15.412 17.386 Z M 19.941 17.469 L 18.788 18.622 C 18.749 18.662 18.7 18.691 18.646 18.706 C 18.592 18.721 18.534 18.721 18.48 18.706 C 18.426 18.691 18.377 18.662 18.338 18.622 L 16.256 16.542 C 16.216 16.503 16.187 16.454 16.172 16.4 C 16.157 16.346 16.157 16.288 16.172 16.234 C 16.187 16.18 16.216 16.131 16.256 16.092 L 17.409 14.938 C 17.539 14.806 17.702 14.711 17.881 14.663 C 18.06 14.614 18.249 14.614 18.428 14.663 C 18.607 14.711 18.77 14.806 18.9 14.938 L 19.94 15.978 C 20.072 16.108 20.167 16.271 20.215 16.45 C 20.264 16.629 20.264 16.818 20.215 16.997 C 20.167 17.176 20.072 17.339 19.94 17.469 Z"
        fill="#42ae9f"/>
</svg>
