<svg
    xmlns="http://www.w3.org/2000/svg"
    viewBox="0 0 29 25"
    id="vector">
    <path
        id="path"
        d="M 4.36 18.4 L 11.11 18.4 C 12.266 18.4 13.376 18.86 14.193 19.677 C 15.01 20.494 15.47 21.604 15.47 22.76 L 15.47 25.33 L 0 25.33 L 0 22.76 C 0 21.604 0.46 20.494 1.277 19.677 C 2.094 18.86 3.204 18.4 4.36 18.4 Z"
        fill="#35a198"/>
    <path
        id="path_1"
        d="M 7.73 11.18 M 3.35 11.18 C 3.35 10.255 3.643 9.354 4.187 8.606 C 4.73 7.857 5.497 7.3 6.377 7.014 C 7.256 6.729 8.204 6.729 9.083 7.014 C 9.963 7.3 10.73 7.857 11.273 8.606 C 11.817 9.354 12.11 10.255 12.11 11.18 C 12.11 12.341 11.648 13.456 10.827 14.277 C 10.006 15.098 8.891 15.56 7.73 15.56 C 6.569 15.56 5.454 15.098 4.633 14.277 C 3.812 13.456 3.35 12.341 3.35 11.18"
        fill="#35a198"/>
    <path
        id="path_2"
        d="M 29.25 25.34 L 7.77 25.34 L 7.77 21.1 C 7.77 19.378 8.454 17.726 9.67 16.507 C 10.887 15.289 12.538 14.603 14.26 14.6 L 22.75 14.6 C 24.472 14.603 26.125 15.289 27.343 16.507 C 28.561 17.725 29.247 19.378 29.25 21.1 Z M 9.79 23.34 L 27.22 23.34 L 27.22 21.1 C 27.22 19.914 26.749 18.775 25.911 17.936 C 25.074 17.096 23.936 16.623 22.75 16.62 L 14.26 16.62 C 13.074 16.623 11.936 17.096 11.099 17.936 C 10.261 18.775 9.79 19.914 9.79 21.1 Z"
        fill="#35a198"/>
    <path
        id="path_3"
        d="M 18.51 13.05 C 17.029 13.059 15.588 12.564 14.425 11.647 C 13.263 10.73 12.446 9.443 12.11 8.001 C 11.774 6.559 11.939 5.044 12.577 3.708 C 13.215 2.371 14.289 1.29 15.621 0.644 C 16.954 -0.002 18.467 -0.176 19.912 0.151 C 21.356 0.478 22.647 1.287 23.572 2.444 C 24.496 3.601 25 5.039 25 6.52 C 24.997 8.244 24.314 9.898 23.099 11.12 C 21.884 12.343 20.233 13.037 18.51 13.05 Z M 18.51 2.05 C 17.486 2.045 16.49 2.39 15.687 3.027 C 14.885 3.664 14.322 4.555 14.094 5.554 C 13.865 6.552 13.984 7.6 14.429 8.522 C 14.875 9.444 15.622 10.188 16.546 10.63 C 17.471 11.071 18.518 11.185 19.516 10.952 C 20.514 10.719 21.403 10.153 22.036 9.347 C 22.669 8.542 23.009 7.544 23 6.52 C 23.003 5.326 22.531 4.179 21.69 3.332 C 20.848 2.484 19.704 2.005 18.51 2 Z"
        fill="#35a198"/>
</svg>
