<svg
    xmlns="http://www.w3.org/2000/svg"
    viewBox="0 0 39 49"
    id="vector">
    <path
        id="path"
        d="M 35.491 10.888 L 27.996 3.663 C 27.195 2.889 26.102 2.45 24.968 2.45 L 6.737 2.45 C 4.371 2.457 2.45 4.31 2.45 6.59 L 2.45 42.417 C 2.45 44.7 4.371 46.552 6.737 46.552 L 32.462 46.552 C 34.829 46.552 36.75 44.7 36.75 42.417 L 36.75 13.816 C 36.75 12.723 36.294 11.664 35.491 10.888 Z M 33.472 12.843 C 33.661 13.024 33.785 13.24 33.847 13.48 L 25.316 13.48 L 25.316 5.255 C 25.566 5.316 25.791 5.437 25.977 5.618 L 33.472 12.845 Z M 32.462 43.794 L 6.737 43.794 C 5.954 43.794 5.309 43.174 5.309 42.414 L 5.309 6.59 C 5.309 5.831 5.951 5.214 6.737 5.214 L 22.459 5.214 L 22.459 14.168 C 22.459 15.315 23.415 16.236 24.603 16.236 L 33.891 16.236 L 33.891 42.414 C 33.891 43.174 33.249 43.794 32.462 43.794 Z M 28.175 22.78 L 28.175 23.471 C 28.175 24.039 27.692 24.502 27.102 24.502 L 12.101 24.502 C 11.51 24.502 11.027 24.037 11.027 23.471 L 11.027 22.78 C 11.027 22.212 11.51 21.749 12.101 21.749 L 27.107 21.749 C 27.695 21.749 28.177 22.214 28.177 22.78 Z M 28.175 28.293 L 28.175 28.981 C 28.175 29.549 27.692 30.015 27.102 30.015 L 12.101 30.015 C 11.51 30.015 11.027 29.549 11.027 28.981 L 11.027 28.293 C 11.027 27.724 11.51 27.259 12.101 27.259 L 27.107 27.259 C 27.695 27.259 28.177 27.724 28.177 28.293 Z M 28.175 33.805 L 28.175 34.491 C 28.175 35.062 27.692 35.525 27.102 35.525 L 12.101 35.525 C 11.51 35.525 11.027 35.059 11.027 34.494 L 11.027 33.803 C 11.027 33.234 11.51 32.771 12.101 32.771 L 27.107 32.771 C 27.695 32.771 28.177 33.237 28.177 33.803 Z"
        fill="#42ae9f"/>
</svg>
