<svg
    xmlns="http://www.w3.org/2000/svg"
    viewBox="0 0 55 31"
    id="vector">
    <path
        id="path"
        d="M 28.721 15.159 C 32.847 15.159 36.191 11.989 36.191 8.079 C 36.191 4.169 32.847 1 28.721 1 C 24.595 1 21.251 4.17 21.251 8.08 C 21.251 11.99 24.595 15.159 28.721 15.159 Z M 28.721 2.769 C 31.808 2.769 34.324 5.154 34.324 8.079 C 34.324 11.005 31.808 13.389 28.721 13.389 C 25.634 13.389 23.118 11.005 23.118 8.079 C 23.118 5.154 25.634 2.769 28.721 2.769 Z M 36.67 27.548 L 18.45 27.548 C 17.936 27.548 17.516 27.15 17.516 26.663 L 17.516 24.363 C 17.516 21.237 20.195 18.699 23.492 18.699 C 24.636 18.699 25.774 19.583 28.722 19.583 C 31.662 19.583 32.806 18.699 33.95 18.699 C 33.965 18.699 33.965 16.929 33.956 16.929 C 32.281 16.929 31.476 17.814 28.726 17.814 C 25.978 17.814 25.179 16.929 23.498 16.929 C 19.162 16.929 15.648 20.259 15.648 24.362 L 15.648 26.662 C 15.648 28.129 16.903 29.318 18.45 29.318 L 38.695 29.318 C 37.944 28.821 37.263 28.226 36.67 27.548 Z"
        fill="#42ae9f"
        stroke="#42ae9f"
        stroke-width="0.4"/>
    <path
        id="path_1"
        d="M 11.39 16.878 C 14.669 16.878 17.326 14.358 17.326 11.248 C 17.326 8.139 14.669 5.619 11.39 5.619 C 8.11 5.619 5.453 8.139 5.453 11.249 C 5.453 14.358 8.11 16.878 11.39 16.878 Z M 11.39 7.027 C 13.843 7.027 15.842 8.922 15.842 11.249 C 15.842 13.575 13.843 15.471 11.39 15.471 C 8.936 15.471 6.937 13.575 6.937 11.249 C 6.937 8.922 8.936 7.027 11.39 7.027 Z M 12.51 27.729 L 3.227 27.729 C 2.819 27.729 2.485 27.413 2.485 27.026 L 2.485 25.196 C 2.485 22.711 4.615 20.693 7.235 20.693 C 8.144 20.693 10.177 21.356 11.391 21.396 C 12.2 21.423 12.703 21.274 12.901 20.948 L 13.541 19.772 C 13.541 19.772 12.374 20.048 11.395 19.989 C 10.416 19.929 8.575 19.285 7.239 19.285 C 3.792 19.285 1 21.933 1 25.196 L 1 27.026 C 1 28.191 1.997 29.136 3.226 29.136 L 13.345 29.136 C 12.905 28.706 12.657 28.344 12.511 27.729 Z"
        fill="#42ae9f"
        stroke="#42ae9f"
        stroke-width="0.76"/>
    <path
        id="path_2"
        d="M 46.716 29.927 L 46.716 29.927 C 46.432 30.024 46.125 30.024 45.841 29.927 L 45.841 29.927 C 41.451 28.274 38.565 24.244 38.56 19.757 L 38.56 16.554 C 38.537 16.224 38.665 15.9 38.911 15.666 C 39.158 15.432 39.498 15.31 39.846 15.332 L 52.711 15.332 C 53.059 15.31 53.399 15.432 53.646 15.666 C 53.892 15.9 54.02 16.224 53.997 16.554 L 53.997 19.757 C 53.992 24.244 51.107 28.274 46.716 29.927 Z"
        fill="#00000000"
        stroke="#42ae9f"
        stroke-width="2"
        stroke-linecap="round"
        stroke-linejoin="round"
        fill-rule="evenodd"/>
    <path
        id="path_3"
        d="M 45.392 17.924 L 45.392 23.311 L 44.368 23.311 L 44.368 17.924 L 45.392 17.924 Z M 48.652 22.18 L 48.652 23.204 L 45.419 23.204 L 45.419 22.18 L 48.651 22.18 Z"
        fill="#42ae9f"
        stroke="#42ae9f"
        stroke-width="0.5"
        stroke-linecap="square"
        stroke-linejoin="round"
        fill-rule="evenodd"/>
</svg>
