<svg
    xmlns="http://www.w3.org/2000/svg"
    viewBox="0 0 31 25"
    id="vector">
    <path
        id="path"
        d="M 22.917 7.162 C 22.935 5.638 22.466 4.148 21.579 2.909 C 20.692 1.67 19.433 0.745 17.985 0.271 C 16.537 -0.203 14.974 -0.203 13.526 0.271 C 12.078 0.745 10.819 1.67 9.932 2.909 C 9.045 4.148 8.576 5.638 8.594 7.162 C 8.596 8.253 8.856 9.329 9.354 10.3 C 9.852 11.271 10.574 12.11 11.459 12.748 C 10.57 13.415 9.848 14.28 9.35 15.274 C 8.853 16.269 8.594 17.365 8.594 18.477 L 8.594 24.51 C 8.594 24.89 8.745 25.254 9.013 25.523 C 9.282 25.791 9.646 25.942 10.026 25.942 L 15.755 25.942 C 16.134 25.941 16.497 25.789 16.765 25.521 C 17.033 25.252 17.183 24.888 17.183 24.509 C 17.183 24.131 17.033 23.767 16.765 23.498 C 16.497 23.23 16.134 23.078 15.755 23.077 L 11.455 23.077 L 11.455 18.463 C 11.497 17.352 11.968 16.298 12.769 15.527 C 13.57 14.755 14.64 14.324 15.752 14.324 C 16.864 14.324 17.934 14.755 18.735 15.527 C 19.536 16.298 20.007 17.352 20.049 18.463 L 20.049 24.51 C 20.05 24.889 20.202 25.252 20.47 25.52 C 20.739 25.788 21.103 25.938 21.482 25.938 C 21.86 25.938 22.224 25.788 22.493 25.52 C 22.761 25.252 22.913 24.889 22.914 24.51 L 22.914 18.463 C 22.914 17.351 22.655 16.255 22.158 15.26 C 21.66 14.266 20.938 13.401 20.049 12.734 C 20.933 12.098 21.654 11.261 22.152 10.292 C 22.651 9.324 22.913 8.251 22.917 7.162 Z M 15.755 11.301 C 14.642 11.302 13.572 10.871 12.77 10.099 C 11.968 9.327 11.497 8.274 11.455 7.162 C 11.497 6.051 11.968 4.997 12.769 4.226 C 13.57 3.454 14.64 3.023 15.752 3.023 C 16.864 3.023 17.934 3.454 18.735 4.226 C 19.536 4.997 20.007 6.051 20.049 7.162 C 20.007 8.273 19.537 9.325 18.737 10.097 C 17.936 10.868 16.867 11.3 15.756 11.301 Z"
        fill="#42ae9f"/>
    <path
        id="path_1"
        d="M 5.729 7.32 C 6.108 7.319 6.471 7.167 6.739 6.899 C 7.007 6.63 7.157 6.266 7.157 5.888 C 7.157 5.509 7.007 5.145 6.739 4.876 C 6.471 4.608 6.108 4.456 5.729 4.455 C 4.569 4.462 3.437 4.822 2.486 5.487 C 1.535 6.151 0.807 7.089 0.4 8.176 C -0.006 9.263 -0.073 10.448 0.208 11.574 C 0.49 12.699 1.107 13.714 1.977 14.481 C 1.361 15.015 0.865 15.675 0.524 16.416 C 0.183 17.157 0.005 17.962 0 18.778 L 0 24.507 C 0 24.887 0.151 25.251 0.419 25.52 C 0.688 25.788 1.052 25.939 1.432 25.939 L 5.732 25.939 C 6.111 25.938 6.474 25.786 6.742 25.518 C 7.01 25.249 7.16 24.885 7.16 24.506 C 7.16 24.128 7.01 23.764 6.742 23.495 C 6.474 23.227 6.111 23.075 5.732 23.074 L 2.865 23.074 L 2.865 18.774 C 2.865 18.014 3.167 17.285 3.704 16.748 C 4.241 16.211 4.97 15.909 5.73 15.909 C 6.109 15.908 6.472 15.756 6.74 15.488 C 7.008 15.219 7.158 14.855 7.158 14.476 C 7.158 14.098 7.008 13.734 6.74 13.465 C 6.472 13.197 6.109 13.045 5.73 13.044 C 5.118 13.055 4.518 12.87 4.019 12.516 C 3.519 12.162 3.146 11.657 2.955 11.075 C 2.764 10.493 2.764 9.866 2.955 9.284 C 3.146 8.702 3.519 8.197 4.019 7.843 C 4.518 7.489 5.118 7.304 5.73 7.315 Z"
        fill="#42ae9f"/>
    <path
        id="path_2"
        d="M 29.535 14.481 C 30.405 13.713 31.022 12.699 31.304 11.573 C 31.585 10.448 31.518 9.262 31.111 8.175 C 30.705 7.089 29.977 6.151 29.025 5.486 C 28.074 4.822 26.942 4.462 25.782 4.455 C 25.479 4.454 25.183 4.549 24.938 4.727 C 24.692 4.905 24.509 5.156 24.415 5.444 C 24.322 5.732 24.322 6.043 24.415 6.331 C 24.509 6.619 24.692 6.87 24.938 7.048 C 25.183 7.226 25.479 7.321 25.782 7.32 C 26.532 7.334 27.248 7.642 27.773 8.178 C 28.299 8.713 28.593 9.434 28.593 10.184 C 28.593 10.935 28.299 11.656 27.773 12.191 C 27.248 12.727 26.532 13.035 25.782 13.049 C 25.479 13.048 25.183 13.143 24.938 13.321 C 24.692 13.499 24.509 13.75 24.415 14.038 C 24.322 14.326 24.322 14.637 24.415 14.925 C 24.509 15.213 24.692 15.464 24.938 15.642 C 25.183 15.82 25.479 15.915 25.782 15.914 C 26.285 15.913 26.78 16.045 27.215 16.297 C 27.651 16.548 28.014 16.91 28.265 17.345 C 28.517 17.781 28.65 18.275 28.65 18.778 L 28.65 23.078 L 25.782 23.078 C 25.479 23.077 25.183 23.172 24.938 23.35 C 24.692 23.528 24.509 23.779 24.415 24.067 C 24.322 24.355 24.322 24.666 24.415 24.954 C 24.509 25.242 24.692 25.493 24.938 25.671 C 25.183 25.849 25.479 25.944 25.782 25.943 L 30.082 25.943 C 30.462 25.943 30.826 25.792 31.095 25.524 C 31.363 25.255 31.514 24.891 31.514 24.511 L 31.514 18.778 C 31.509 17.962 31.33 17.157 30.989 16.416 C 30.647 15.675 30.152 15.015 29.535 14.481 Z"
        fill="#42ae9f"/>
</svg>
