<svg
    xmlns="http://www.w3.org/2000/svg"
    viewBox="0 0 30 21"
    id="vector">
    <path
        id="path"
        d="M 24.542 6.292 L 18.249 6.292 C 18.086 6.286 17.933 6.216 17.82 6.099 C 17.707 5.982 17.644 5.825 17.644 5.662 C 17.644 5.5 17.707 5.343 17.82 5.226 C 17.933 5.109 18.086 5.039 18.249 5.033 L 24.542 5.033 C 24.705 5.039 24.858 5.109 24.971 5.226 C 25.084 5.343 25.147 5.5 25.147 5.662 C 25.147 5.825 25.084 5.982 24.971 6.099 C 24.858 6.216 24.705 6.286 24.542 6.292 Z"
        fill="#42ae9f"/>
    <path
        id="path_1"
        d="M 24.542 10.067 L 18.249 10.067 C 18.082 10.067 17.922 10.001 17.804 9.883 C 17.686 9.765 17.62 9.605 17.62 9.438 C 17.62 9.271 17.686 9.111 17.804 8.993 C 17.922 8.875 18.082 8.809 18.249 8.809 L 24.542 8.809 C 24.709 8.809 24.869 8.875 24.987 8.993 C 25.105 9.111 25.171 9.271 25.171 9.438 C 25.171 9.605 25.105 9.765 24.987 9.883 C 24.869 10.001 24.709 10.067 24.542 10.067 Z"
        fill="#42ae9f"/>
    <path
        id="path_2"
        d="M 24.542 13.843 L 18.249 13.843 C 18.082 13.843 17.922 13.777 17.804 13.659 C 17.686 13.541 17.62 13.381 17.62 13.214 C 17.62 13.047 17.686 12.887 17.804 12.769 C 17.922 12.651 18.082 12.585 18.249 12.585 L 24.542 12.585 C 24.709 12.585 24.869 12.651 24.987 12.769 C 25.105 12.887 25.171 13.047 25.171 13.214 C 25.171 13.381 25.105 13.541 24.987 13.659 C 24.869 13.777 24.709 13.843 24.542 13.843 Z"
        fill="#42ae9f"/>
    <path
        id="path_3"
        d="M 24.542 18.879 L 3.142 18.879 C 2.308 18.879 1.507 18.547 0.917 17.957 C 0.327 17.367 -0.005 16.566 -0.005 15.732 L -0.005 3.146 C -0.005 2.312 0.327 1.511 0.917 0.921 C 1.507 0.332 2.308 0 3.142 0 L 24.542 0 C 25.376 0 26.177 0.332 26.767 0.921 C 27.357 1.511 27.689 2.312 27.689 3.146 L 27.689 15.732 C 27.689 16.566 27.357 17.367 26.767 17.957 C 26.177 18.547 25.376 18.879 24.542 18.879 Z M 3.142 1.259 C 2.81 1.259 2.485 1.346 2.198 1.512 C 1.91 1.677 1.672 1.916 1.506 2.203 C 1.34 2.49 1.253 2.815 1.253 3.147 L 1.253 15.733 C 1.253 16.065 1.34 16.39 1.506 16.677 C 1.672 16.964 1.91 17.203 2.198 17.368 C 2.485 17.534 2.81 17.621 3.142 17.621 L 24.542 17.621 C 24.873 17.621 25.199 17.534 25.486 17.368 C 25.773 17.203 26.012 16.964 26.177 16.677 C 26.343 16.39 26.43 16.064 26.43 15.733 L 26.43 3.146 C 26.43 2.815 26.343 2.489 26.177 2.202 C 26.012 1.915 25.773 1.676 25.486 1.511 C 25.199 1.345 24.873 1.258 24.542 1.258 Z"
        fill="#42ae9f"/>
    <path
        id="path_4"
        d="M 27.061 21.396 L 5.661 21.396 C 4.827 21.396 4.026 21.064 3.436 20.475 C 2.847 19.885 2.515 19.084 2.515 18.25 C 2.515 18.117 2.556 17.987 2.634 17.879 C 2.712 17.771 2.823 17.691 2.949 17.65 C 3.076 17.609 3.212 17.609 3.339 17.65 C 3.465 17.691 3.576 17.771 3.654 17.879 C 3.732 17.987 3.773 18.117 3.773 18.25 C 3.773 18.751 3.972 19.231 4.326 19.585 C 4.68 19.939 5.16 20.138 5.661 20.138 L 27.061 20.138 C 27.562 20.138 28.042 19.939 28.396 19.585 C 28.75 19.231 28.949 18.751 28.949 18.25 L 28.949 5.664 C 28.949 5.332 28.862 5.007 28.696 4.72 C 28.531 4.432 28.292 4.194 28.005 4.028 C 27.718 3.862 27.393 3.775 27.061 3.775 C 26.894 3.775 26.734 3.709 26.616 3.591 C 26.498 3.473 26.432 3.313 26.432 3.146 C 26.432 2.979 26.498 2.819 26.616 2.701 C 26.734 2.583 26.894 2.517 27.061 2.517 C 27.613 2.517 28.156 2.662 28.634 2.939 C 29.113 3.215 29.51 3.612 29.786 4.091 C 30.062 4.569 30.207 5.112 30.207 5.664 L 30.207 18.25 C 30.207 19.084 29.875 19.885 29.286 20.475 C 28.696 21.064 27.895 21.396 27.061 21.396 Z"
        fill="#42ae9f"/>
    <path
        id="path_5"
        d="M 9.44 16.357 C 7.605 16.357 5.843 15.627 4.545 14.33 C 3.248 13.032 2.518 11.27 2.518 9.435 C 2.518 7.6 3.248 5.838 4.545 4.54 C 5.843 3.243 7.605 2.513 9.44 2.513 C 11.275 2.513 13.037 3.243 14.335 4.54 C 15.632 5.838 16.362 7.6 16.362 9.435 C 16.362 10.65 16.042 11.844 15.435 12.896 C 14.827 13.948 13.953 14.822 12.901 15.43 C 11.849 16.037 10.655 16.357 9.44 16.357 Z M 9.44 3.771 C 7.938 3.771 6.497 4.368 5.435 5.43 C 4.373 6.492 3.776 7.933 3.776 9.435 C 3.776 10.937 4.373 12.378 5.435 13.44 C 6.497 14.502 7.938 15.099 9.44 15.099 C 10.942 15.099 12.383 14.502 13.445 13.44 C 14.507 12.378 15.104 10.937 15.104 9.435 C 15.103 7.934 14.505 6.493 13.444 5.433 C 12.382 4.372 10.941 3.775 9.44 3.775 Z"
        fill="#42ae9f"/>
    <path
        id="path_6"
        d="M 9.44 11.326 C 8.606 11.326 7.805 10.994 7.215 10.405 C 6.626 9.815 6.294 9.014 6.294 8.18 C 6.294 7.346 6.626 6.545 7.215 5.955 C 7.805 5.366 8.606 5.034 9.44 5.034 C 10.274 5.034 11.075 5.366 11.665 5.955 C 12.254 6.545 12.586 7.346 12.586 8.18 C 12.586 9.014 12.254 9.815 11.664 10.404 C 11.075 10.994 10.274 11.326 9.44 11.326 Z M 9.44 6.293 C 8.939 6.293 8.459 6.492 8.105 6.846 C 7.751 7.2 7.552 7.68 7.552 8.181 C 7.552 8.682 7.751 9.162 8.105 9.516 C 8.459 9.87 8.939 10.069 9.44 10.069 C 9.941 10.069 10.421 9.87 10.775 9.516 C 11.129 9.162 11.328 8.682 11.328 8.181 C 11.328 7.849 11.241 7.524 11.075 7.237 C 10.91 6.949 10.671 6.711 10.384 6.545 C 10.097 6.379 9.772 6.292 9.44 6.292 Z"
        fill="#42ae9f"/>
    <path
        id="path_7"
        d="M 9.44 16.359 C 8.532 16.362 7.632 16.184 6.792 15.837 C 5.953 15.49 5.19 14.98 4.549 14.336 C 4.466 14.252 4.408 14.147 4.381 14.032 C 4.355 13.918 4.361 13.798 4.399 13.686 C 4.755 12.632 5.433 11.715 6.337 11.066 C 7.241 10.417 8.327 10.068 9.44 10.068 C 10.552 10.068 11.638 10.417 12.542 11.066 C 13.446 11.715 14.124 12.632 14.48 13.686 C 14.518 13.797 14.525 13.917 14.498 14.032 C 14.472 14.147 14.414 14.252 14.331 14.336 C 13.69 14.979 12.927 15.49 12.088 15.837 C 11.248 16.184 10.348 16.362 9.44 16.359 Z M 5.74 13.723 C 6.781 14.586 8.091 15.059 9.443 15.059 C 10.795 15.059 12.105 14.586 13.146 13.723 C 12.717 12.766 11.933 12.011 10.96 11.619 C 9.987 11.227 8.899 11.227 7.926 11.619 C 6.953 12.011 6.169 12.766 5.74 13.723 Z"
        fill="#42ae9f"/>
    <path
        id="path_8"
        d="M 24.542 6.292 L 18.249 6.292 C 18.086 6.286 17.933 6.216 17.82 6.099 C 17.707 5.982 17.644 5.825 17.644 5.662 C 17.644 5.5 17.707 5.343 17.82 5.226 C 17.933 5.109 18.086 5.039 18.249 5.033 L 24.542 5.033 C 24.705 5.039 24.858 5.109 24.971 5.226 C 25.084 5.343 25.147 5.5 25.147 5.662 C 25.147 5.825 25.084 5.982 24.971 6.099 C 24.858 6.216 24.705 6.286 24.542 6.292 Z"
        fill="#42ae9f"/>
    <path
        id="path_9"
        d="M 24.542 10.068 L 18.249 10.068 C 18.116 10.068 17.986 10.027 17.878 9.949 C 17.77 9.871 17.69 9.76 17.649 9.634 C 17.608 9.507 17.608 9.371 17.649 9.244 C 17.69 9.118 17.77 9.007 17.878 8.929 C 17.986 8.851 18.116 8.81 18.249 8.81 L 24.542 8.81 C 24.675 8.81 24.804 8.852 24.912 8.93 C 25.019 9.008 25.099 9.118 25.14 9.245 C 25.181 9.371 25.181 9.507 25.14 9.633 C 25.099 9.76 25.019 9.87 24.912 9.948 C 24.804 10.026 24.675 10.068 24.542 10.068 Z"
        fill="#42ae9f"/>
    <path
        id="path_10"
        d="M 24.542 13.844 L 18.249 13.844 C 18.082 13.844 17.922 13.778 17.804 13.66 C 17.686 13.542 17.62 13.382 17.62 13.215 C 17.62 13.048 17.686 12.888 17.804 12.77 C 17.922 12.652 18.082 12.586 18.249 12.586 L 24.542 12.586 C 24.675 12.586 24.804 12.628 24.912 12.706 C 25.019 12.784 25.099 12.894 25.14 13.021 C 25.181 13.147 25.181 13.283 25.14 13.409 C 25.099 13.536 25.019 13.646 24.912 13.724 C 24.804 13.802 24.675 13.844 24.542 13.844 Z"
        fill="#42ae9f"/>
</svg>
