<svg
    xmlns="http://www.w3.org/2000/svg"
    viewBox="0 0 32 50"
    id="vector">
    <path
        id="path"
        d="M 29.15 7.751 L 26.531 7.751 L 26.531 1.585 C 26.531 1.263 26.268 1 25.947 1 C 25.889 1 25.83 1.01 25.782 1.02 L 3.132 7.75 C 1.935 7.82 1 8.805 1 10.005 L 1 46.746 C 1 47.996 2.013 49 3.25 49 L 29.15 49 C 30.397 49 31.4 47.985 31.4 46.746 L 31.4 10.005 C 31.4 8.756 30.387 7.751 29.15 7.751 Z M 25.363 2.366 L 25.363 7.74 L 7.25 7.74 L 25.362 2.365 Z M 30.232 46.746 C 30.232 47.341 29.745 47.829 29.151 47.829 L 3.249 47.829 C 2.655 47.829 2.169 47.341 2.169 46.746 L 2.169 10.005 C 2.169 9.615 2.373 9.263 2.704 9.068 L 2.714 9.098 L 3.308 8.922 L 29.15 8.922 C 29.744 8.922 30.23 9.41 30.23 10.005 L 30.23 46.746 Z"
        fill="#42ae9f"
        stroke="#42ae9f"
        stroke-width="1"/>
    <path
        id="path_1"
        d="M 24.43 37 L 7.97 37 C 7.657 37 7.4 37.405 7.4 37.9 C 7.4 38.395 7.657 38.8 7.97 38.8 L 24.43 38.8 C 24.743 38.8 25 38.395 25 37.9 C 25 37.405 24.743 37 24.43 37 Z M 20.42 41 L 12.78 41 C 12.461 41 12.2 41.405 12.2 41.9 C 12.2 42.395 12.461 42.8 12.78 42.8 L 20.42 42.8 C 20.739 42.8 21 42.395 21 41.9 C 21 41.405 20.739 41 20.42 41 Z"
        fill="#42ae9f"/>
    <path
        id="path_2"
        d="M 25.675 21.23 L 24.067 21.23 C 24.736 19.812 24.663 18.664 24.411 17.887 C 23.977 16.503 22.514 15 20.347 15 C 19.769 15 19.191 15.101 18.595 15.304 C 17.565 15.658 16.879 16.047 16.572 16.249 C 16.265 16.047 15.597 15.659 14.549 15.304 C 13.953 15.1 13.357 15 12.798 15 C 10.63 15 9.168 16.503 8.734 17.887 C 8.481 18.714 8.391 19.964 9.24 21.534 L 7.289 21.534 C 7.126 21.534 7 21.652 7 21.804 C 7 21.956 7.126 22.074 7.289 22.074 L 9.583 22.074 C 9.673 22.226 9.781 22.378 9.908 22.53 C 11.786 25.062 15.868 27.814 16.608 27.983 L 16.608 28 C 16.608 28 16.626 28 16.644 27.983 L 16.7 27.983 L 16.7 27.966 C 17.332 27.679 21.251 25.316 23.31 22.513 C 23.509 22.26 23.671 22.006 23.816 21.753 L 25.712 21.753 C 25.875 21.753 26.001 21.635 26.001 21.483 C 26.001 21.331 25.838 21.23 25.676 21.23 Z M 22.785 22.226 C 20.871 24.843 17.349 26.953 16.59 27.409 C 15.814 26.953 12.31 24.826 10.377 22.226 L 10.269 22.074 L 12.924 22.074 C 13.032 22.074 13.141 22.024 13.194 21.922 L 14.404 19.694 L 16.301 24.235 C 16.337 24.336 16.464 24.404 16.572 24.404 L 16.59 24.404 C 16.717 24.404 16.825 24.319 16.861 24.201 L 18.523 18.883 L 19.408 21.568 C 19.444 21.668 19.534 21.736 19.643 21.753 C 19.751 21.77 19.859 21.719 19.932 21.635 L 20.636 20.673 L 21.232 21.618 C 21.286 21.703 21.376 21.753 21.485 21.753 L 23.11 21.753 C 23.002 21.923 22.894 22.074 22.785 22.226 Z M 23.435 21.23 L 21.665 21.23 L 20.925 20.048 C 20.871 19.964 20.78 19.913 20.672 19.913 C 20.564 19.913 20.473 19.947 20.419 20.031 L 19.805 20.875 L 18.812 17.853 C 18.776 17.735 18.649 17.668 18.522 17.651 C 18.396 17.651 18.27 17.735 18.234 17.853 L 16.554 23.273 L 14.73 18.917 C 14.694 18.816 14.586 18.748 14.477 18.748 C 14.351 18.748 14.26 18.798 14.207 18.9 L 12.778 21.517 L 9.908 21.517 C 9.185 20.284 8.987 19.103 9.312 18.039 C 9.692 16.84 10.937 15.557 12.816 15.557 C 13.321 15.557 13.846 15.658 14.369 15.827 C 15.687 16.283 16.392 16.807 16.409 16.807 C 16.519 16.891 16.663 16.891 16.771 16.807 C 16.771 16.807 17.475 16.283 18.811 15.827 C 19.336 15.642 19.859 15.557 20.365 15.557 C 22.225 15.557 23.49 16.84 23.869 18.039 C 24.176 19.019 24.013 20.099 23.435 21.229 Z"
        fill="#42ae9f"
        stroke="#42ae9f"
        stroke-width="1"/>
</svg>
