<svg
    xmlns="http://www.w3.org/2000/svg"
    viewBox="0 0 412 229"
    id="vector">
    <path
        id="path"
        d="M 9.26 13.935 L 9.26 94.125 L 103.4 94.125 C 105.1 94.195 115.23 93.935 124.37 109.325 L 124.37 35.975 C 124.37 33.325 123.87 30.685 122.79 28.275 C 121 24.305 117.25 19.055 109.4 15.775 C 106.38 14.515 103.1 13.945 99.82 13.945 L 9.26 13.945 L 9.26 13.935 Z"
        fill="#199e8e"/>
    <path
        id="path_1"
        d="M 138.24 97.845 L 128.67 97.845 C 128.61 97.845 128.57 97.895 128.57 97.945 L 128.57 108.955 C 128.57 109.055 128.7 109.095 128.76 109.005 C 129.75 107.365 134.45 99.785 138.28 98.035 C 138.38 97.985 138.35 97.845 138.24 97.845 Z"
        fill="#868686"/>
    <path
        id="path_2"
        d="M 127.92 81.025 L 139.4 81.025 L 139.4 92.505 L 127.92 92.505 Z"
        fill="#868686"/>
    <path
        id="path_3"
        d="M 127.92 64.215 L 139.4 64.215 L 139.4 75.695 L 127.92 75.695 Z"
        fill="#868686"/>
    <path
        id="path_4"
        d="M 127.92 47.395 L 139.4 47.395 L 139.4 58.875 L 127.92 58.875 Z"
        fill="#868686"/>
    <path
        id="path_5"
        d="M 145.22 81.025 L 156.7 81.025 L 156.7 92.505 L 145.22 92.505 Z"
        fill="#7c8989"/>
    <path
        id="path_6"
        d="M 145.22 64.215 L 156.7 64.215 L 156.7 75.695 L 145.22 75.695 Z"
        fill="#7c8989"/>
    <path
        id="path_7"
        d="M 145.22 47.395 L 156.7 47.395 L 156.7 58.875 L 145.22 58.875 Z"
        fill="#7c8989"/>
    <path
        id="path_8"
        d="M 162.52 81.025 L 174 81.025 L 174 92.505 L 162.52 92.505 Z"
        fill="#629387"/>
    <path
        id="path_9"
        d="M 162.52 64.215 L 174 64.215 L 174 75.695 L 162.52 75.695 Z"
        fill="#629387"/>
    <path
        id="path_10"
        d="M 162.52 47.395 L 174 47.395 L 174 58.875 L 162.52 58.875 Z"
        fill="#629387"/>
    <path
        id="path_11"
        d="M 179.82 81.025 L 191.3 81.025 L 191.3 92.505 L 179.82 92.505 Z"
        fill="#538e89"/>
    <path
        id="path_12"
        d="M 179.82 64.215 L 191.3 64.215 L 191.3 75.695 L 179.82 75.695 Z"
        fill="#538e89"/>
    <path
        id="path_13"
        d="M 179.82 47.395 L 191.3 47.395 L 191.3 58.875 L 179.82 58.875 Z"
        fill="#538e89"/>
    <path
        id="path_14"
        d="M 197.12 81.025 L 208.6 81.025 L 208.6 92.505 L 197.12 92.505 Z"
        fill="#43958a"/>
    <path
        id="path_15"
        d="M 197.12 64.215 L 208.6 64.215 L 208.6 75.695 L 197.12 75.695 Z"
        fill="#43958a"/>
    <path
        id="path_16"
        d="M 197.12 47.395 L 208.6 47.395 L 208.6 58.875 L 197.12 58.875 Z"
        fill="#43958a"/>
    <path
        id="path_17"
        d="M 214.42 81.025 L 225.9 81.025 L 225.9 92.505 L 214.42 92.505 Z"
        fill="#1d9f8e"/>
    <path
        id="path_18"
        d="M 214.42 64.215 L 225.9 64.215 L 225.9 75.695 L 214.42 75.695 Z"
        fill="#1d9f8e"/>
    <path
        id="path_19"
        d="M 214.42 47.395 L 225.9 47.395 L 225.9 58.875 L 214.42 58.875 Z"
        fill="#1d9f8e"/>
    <path
        id="path_20"
        d="M 231.72 81.025 L 243.2 81.025 L 243.2 92.505 L 231.72 92.505 Z"
        fill="#2ca29a"/>
    <path
        id="path_21"
        d="M 231.72 64.215 L 243.2 64.215 L 243.2 75.695 L 231.72 75.695 Z"
        fill="#2ca29a"/>
    <path
        id="path_22"
        d="M 231.72 47.395 L 243.2 47.395 L 243.2 58.875 L 231.72 58.875 Z"
        fill="#2ca29a"/>
    <path
        id="path_23"
        d="M 145.22 30.585 L 156.7 30.585 L 156.7 42.065 L 145.22 42.065 Z"
        fill="#7c8989"/>
    <path
        id="path_24"
        d="M 139.4 41.255 L 127.92 41.255 L 129.43 31.805 C 129.54 31.135 130.09 30.625 130.76 30.555 L 139.39 30.335 L 139.39 41.255 L 139.4 41.255 Z"
        fill="#868686"/>
    <path
        id="path_25"
        d="M 162.52 30.585 L 174 30.585 L 174 42.065 L 162.52 42.065 Z"
        fill="#629387"/>
    <path
        id="path_26"
        d="M 179.82 30.585 L 191.3 30.585 L 191.3 42.065 L 179.82 42.065 Z"
        fill="#538e89"/>
    <path
        id="path_27"
        d="M 197.12 30.585 L 208.6 30.585 L 208.6 42.065 L 197.12 42.065 Z"
        fill="#43958a"/>
    <path
        id="path_28"
        d="M 145.22 13.775 L 156.7 13.775 L 156.7 25.255 L 145.22 25.255 Z"
        fill="#7c8989"/>
    <path
        id="path_29"
        d="M 162.52 13.775 L 174 13.775 L 174 25.255 L 162.52 25.255 Z"
        fill="#629387"/>
    <path
        id="path_30"
        d="M 179.82 13.775 L 191.3 13.775 L 191.3 25.255 L 179.82 25.255 Z"
        fill="#538e89"/>
    <path
        id="path_31"
        d="M 197.12 13.775 L 208.6 13.775 L 208.6 25.255 L 197.12 25.255 Z"
        fill="#43958a"/>
    <path
        id="path_32"
        d="M 214.42 13.775 L 225.9 13.775 L 225.9 25.255 L 214.42 25.255 Z"
        fill="#1d9f8e"/>
    <path
        id="path_33"
        d="M 231.72 13.775 L 243.2 13.775 L 243.2 25.255 L 231.72 25.255 Z"
        fill="#2ca29a"/>
    <path
        id="path_34"
        d="M 265.019 13.775 L 276.499 13.775 L 276.499 25.255 L 265.019 25.255 Z"
        fill="#54b7a2"/>
    <path
        id="path_35"
        d="M 249.019 81.025 L 260.499 81.025 L 260.499 92.505 L 249.019 92.505 Z"
        fill="#54b7a2"/>
    <path
        id="path_36"
        d="M 249.019 47.395 L 260.499 47.395 L 260.499 58.875 L 249.019 58.875 Z"
        fill="#54b7a2"/>
    <path
        id="path_37"
        d="M 266.309 81.025 L 277.789 81.025 L 277.789 92.505 L 266.309 92.505 Z"
        fill="#54b7a2"/>
    <path
        id="path_38"
        d="M 266.309 47.395 L 277.789 47.395 L 277.789 58.875 L 266.309 58.875 Z"
        fill="#54b7a2"/>
    <path
        id="path_39"
        d="M 283.609 47.395 L 295.089 47.395 L 295.089 58.875 L 283.609 58.875 Z"
        fill="#54b7a2"/>
    <path
        id="path_40"
        d="M 301.319 32.445 L 309.079 32.445 L 309.079 40.205 L 301.319 40.205 Z"
        fill="#54b7a2"/>
    <path
        id="path_41"
        d="M 365.009 48.455 L 372.769 48.455 L 372.769 56.215 L 365.009 56.215 Z"
        fill="#6fb9ab"/>
    <path
        id="path_42"
        d="M 321.199 65.995 L 327.909 65.995 L 327.909 72.705 L 321.199 72.705 Z"
        fill="#54b7a2"/>
    <path
        id="path_43"
        d="M 356.009 65.995 L 362.719 65.995 L 362.719 72.705 L 356.009 72.705 Z"
        fill="#6fb9ab"/>
    <path
        id="path_44"
        d="M 379.399 83.415 L 386.109 83.415 L 386.109 90.125 L 379.399 90.125 Z"
        fill="#6fb9ab"/>
    <path
        id="path_45"
        d="M 398.589 49.995 L 404.799 49.995 L 404.799 56.205 L 398.589 56.205 Z"
        fill="#6fb9ab"/>
    <path
        id="path_46"
        d="M 336.939 32.645 L 343.149 32.645 L 343.149 38.855 L 336.939 38.855 Z"
        fill="#6fb9ab"/>
    <path
        id="path_47"
        d="M 297.959 83.415 L 304.669 83.415 L 304.669 90.125 L 297.959 90.125 Z"
        fill="#54b7a2"/>
    <path
        id="path_48"
        d="M 138.87 23.865 L 138.87 18.395 C 138.87 18.095 138.51 17.955 138.31 18.175 L 133.51 23.055 C 133.11 23.485 133.42 24.195 134.01 24.195 L 138.55 24.195 C 138.72 24.185 138.87 24.045 138.87 23.865 Z"
        fill="#868686"/>
    <path
        id="path_49"
        d="M 12.49 97.845 L 101.68 97.845 C 103.23 97.845 104.77 98.095 106.22 98.615 C 109.6 99.835 116.08 102.775 119.03 109.325"
        fill="#00000000"
        stroke="#b3b5b2"
        stroke-width="1.29"/>
    <path
        id="path_50"
        d="M 84.2 155.505 L 84.2 164.495 C 74.5 164.495 71.74 162.995 68.11 157.555 C 65.59 169.865 55.01 177.595 42.16 177.595 C 27.01 177.595 15.02 165.765 15.02 150.225 L 15.02 141.385 L 23.86 141.385 L 23.86 149.195 C 23.86 161.425 30.96 169.075 42.4 169.075 C 52.66 169.075 60.39 162.295 60.39 154.245 C 60.39 149.355 57.47 145.885 52.42 145.885 C 51.95 145.885 51.47 145.885 51 145.965 L 51 137.915 L 54.47 137.915 C 61.41 137.915 66.62 141.075 70.09 147.305 C 73.32 153.225 76.4 155.505 80.9 155.505 L 84.2 155.505 Z M 39.08 195.035 L 30.4 195.035 L 30.4 186.275 L 39.08 186.275 L 39.08 195.035 Z M 53.99 195.035 L 45.31 195.035 L 45.31 186.275 L 53.99 186.275 L 53.99 195.035 Z"
        fill="#0fa38b"/>
    <path
        id="path_51"
        d="M 90.12 121.355 L 81.44 121.355 L 81.44 112.595 L 90.12 112.595 L 90.12 121.355 Z M 118.38 164.505 L 81.92 164.505 L 81.92 155.515 L 90.12 155.515 C 92.72 155.515 94.46 154.645 95.41 152.835 C 96.04 151.655 96.36 149.605 96.36 146.835 L 96.36 128.695 L 105.12 128.695 L 105.12 146.365 C 105.12 151.015 104.49 154.015 103.23 155.515 L 118.38 155.515 L 118.38 164.505 Z M 105.11 121.355 L 96.43 121.355 L 96.43 112.595 L 105.11 112.595 L 105.11 121.355 Z"
        fill="#0fa38b"/>
    <path
        id="path_52"
        d="M 116.16 155.505 L 122.63 155.505 C 127.13 155.505 129.34 152.425 129.34 146.195 L 129.34 128.685 L 138.25 128.685 L 138.25 145.885 C 138.25 150.535 137.78 153.535 136.83 155.035 L 136.83 155.505 L 145.03 155.505 C 149.53 155.505 151.74 152.585 151.74 146.745 L 151.74 128.675 L 160.65 128.675 L 160.65 145.875 C 160.65 151.005 160.02 154.235 158.84 155.495 L 167.44 155.495 C 171.94 155.495 174.15 152.575 174.15 146.815 L 174.15 128.675 L 183.06 128.675 L 183.06 145.715 C 183.06 157.075 176.75 164.495 167.76 164.495 L 116.17 164.495 L 116.17 155.505 L 116.16 155.505 Z"
        fill="#0fa38b"/>
    <path
        id="path_53"
        d="M 209.17 128.685 L 209.17 157.475 C 209.17 171.675 202.94 177.595 189.37 177.595 L 189.37 170.025 C 196.71 170.025 200.33 166.395 200.33 158.825 L 200.33 128.685 L 209.17 128.685 Z"
        fill="#0fa38b"/>
    <path
        id="path_54"
        d="M 267.789 164.505 L 216.59 164.505 L 216.59 155.515 L 245.149 155.515 C 245.149 145.185 241.13 139.185 233.16 137.445 C 230.71 136.895 228.03 136.735 225.19 136.735 L 225.19 128.685 C 229.53 128.685 232.29 128.765 233.39 128.845 C 234.49 128.925 236.07 129.235 238.12 129.945 C 248.689 133.495 253.979 142.015 254.059 155.505 L 267.789 155.505 L 267.789 164.505 Z"
        fill="#0fa38b"/>
    <path
        id="path_55"
        d="M 310.079 153.295 C 310.079 163.785 302.899 171.515 292.409 171.515 C 286.339 171.515 281.519 169.145 278.129 164.495 L 263.929 164.495 L 263.929 155.505 L 274.819 155.505 L 274.739 155.115 C 274.659 154.405 274.579 153.695 274.579 152.985 C 274.579 142.415 281.919 134.845 292.409 134.845 C 302.899 134.845 310.079 142.965 310.079 153.295 Z M 300.999 153.295 C 300.999 147.295 297.369 142.805 292.159 142.805 C 287.189 142.805 283.639 146.985 283.639 152.905 C 283.639 158.825 287.349 163.315 292.629 163.315 C 297.529 163.315 300.999 159.295 300.999 153.295 Z"
        fill="#0fa38b"/>
    <path
        id="path_56"
        d="M 123.07 187.065 C 125.23 187.065 127.04 187.325 128.51 187.845 C 129.98 188.365 131.16 189.095 132.04 190.035 C 132.92 190.975 133.55 192.115 133.93 193.445 C 134.31 194.785 134.5 196.245 134.5 197.845 L 134.5 214.365 C 133.49 214.575 131.98 214.825 129.95 215.125 C 127.92 215.415 125.63 215.565 123.08 215.565 C 121.39 215.565 119.85 215.405 118.45 215.095 C 117.05 214.785 115.85 214.275 114.87 213.585 C 113.88 212.895 113.11 211.985 112.55 210.875 C 111.99 209.765 111.71 208.395 111.71 206.755 C 111.71 205.195 112.02 203.875 112.65 202.795 C 113.28 201.715 114.13 200.845 115.21 200.165 C 116.29 199.485 117.53 199.005 118.96 198.705 C 120.38 198.415 121.86 198.265 123.41 198.265 C 124.13 198.265 124.88 198.305 125.67 198.395 C 126.46 198.485 128.12 198.625 129.02 198.835 L 129.02 197.795 C 129.02 195.895 128.47 194.185 126.68 193.265 C 125.43 192.625 123.98 192.505 122.57 192.525 C 120.25 192.545 115.01 194.625 114.44 190.985 C 114.22 189.615 115.12 188.325 116.48 188.045 C 116.85 187.965 117.26 187.895 117.68 187.815 C 119.24 187.545 121.27 187.065 123.07 187.065 Z M 123.61 210.565 C 125.62 210.565 127.96 210.465 129.01 210.255 L 129.01 203.275 C 128.65 203.175 127.31 203.065 126.63 202.965 C 125.95 202.865 125.19 202.805 124.37 202.805 C 123.65 202.805 122.92 202.855 122.19 202.965 C 121.45 203.065 120.79 203.265 120.2 203.535 C 119.61 203.815 119.13 204.205 118.77 204.705 C 118.41 205.205 118.23 205.845 118.23 206.605 C 118.23 208.095 118.71 209.135 119.68 209.705 C 120.64 210.275 121.95 210.565 123.61 210.565 Z"
        fill="#9e9e9e"/>
    <path
        id="path_57"
        d="M 222.99 187.065 C 225.15 187.065 226.96 187.325 228.43 187.845 C 229.9 188.365 231.08 189.095 231.96 190.035 C 232.84 190.975 233.47 192.115 233.85 193.445 C 234.23 194.785 234.42 196.245 234.42 197.845 L 234.42 214.365 C 233.41 214.575 231.9 214.825 229.87 215.125 C 227.84 215.415 225.55 215.565 223 215.565 C 221.31 215.565 219.77 215.405 218.37 215.095 C 216.97 214.785 215.77 214.275 214.79 213.585 C 213.8 212.895 213.03 211.985 212.47 210.875 C 211.91 209.765 211.64 208.395 211.64 206.755 C 211.64 205.195 211.95 203.875 212.58 202.795 C 213.21 201.715 214.06 200.845 215.14 200.165 C 216.22 199.485 217.46 199.005 218.89 198.705 C 220.31 198.415 221.79 198.265 223.34 198.265 C 224.06 198.265 224.81 198.305 225.6 198.395 C 226.39 198.485 228.05 198.625 228.95 198.835 L 228.95 197.795 C 228.95 195.895 228.4 194.185 226.61 193.265 C 225.36 192.625 223.91 192.505 222.5 192.525 C 220.18 192.545 214.94 194.625 214.37 190.985 C 214.15 189.615 215.05 188.325 216.41 188.045 C 216.78 187.965 217.19 187.895 217.61 187.815 C 219.17 187.545 221.19 187.065 222.99 187.065 Z M 223.53 210.565 C 225.54 210.565 227.88 210.465 228.93 210.255 L 228.93 203.275 C 228.57 203.175 227.23 203.065 226.55 202.965 C 225.87 202.865 225.11 202.805 224.29 202.805 C 223.57 202.805 222.84 202.855 222.11 202.965 C 221.37 203.065 220.71 203.265 220.12 203.535 C 219.53 203.815 219.05 204.205 218.69 204.705 C 218.33 205.205 218.15 205.845 218.15 206.605 C 218.15 208.095 218.63 209.135 219.6 209.705 C 220.57 210.275 221.88 210.565 223.53 210.565 Z"
        fill="#9e9e9e"/>
    <path
        id="path_58"
        d="M 293.009 187.065 C 295.169 187.065 296.979 187.325 298.449 187.845 C 299.919 188.365 301.099 189.095 301.979 190.035 C 302.859 190.975 303.489 192.115 303.869 193.445 C 304.249 194.785 304.439 196.245 304.439 197.845 L 304.439 214.365 C 303.429 214.575 301.919 214.825 299.889 215.125 C 297.859 215.415 295.569 215.565 293.019 215.565 C 291.329 215.565 289.789 215.405 288.389 215.095 C 286.989 214.785 285.789 214.275 284.809 213.585 C 283.819 212.895 283.049 211.985 282.489 210.875 C 281.929 209.765 281.649 208.395 281.649 206.755 C 281.649 205.195 281.959 203.875 282.589 202.795 C 283.219 201.715 284.069 200.845 285.149 200.165 C 286.229 199.485 287.469 199.005 288.899 198.705 C 290.319 198.415 291.799 198.265 293.349 198.265 C 294.069 198.265 294.819 198.305 295.609 198.395 C 296.399 198.485 298.059 198.625 298.959 198.835 L 298.959 197.795 C 298.959 195.895 298.409 194.185 296.619 193.265 C 295.369 192.625 293.919 192.505 292.509 192.525 C 290.189 192.545 284.949 194.625 284.379 190.985 C 284.159 189.615 285.059 188.325 286.419 188.045 C 286.789 187.965 287.199 187.895 287.619 187.815 C 289.189 187.545 291.219 187.065 293.009 187.065 Z M 293.549 210.565 C 295.559 210.565 297.899 210.465 298.949 210.255 L 298.949 203.275 C 298.589 203.175 297.249 203.065 296.569 202.965 C 295.889 202.865 295.129 202.805 294.309 202.805 C 293.589 202.805 292.859 202.855 292.129 202.965 C 291.389 203.065 290.729 203.265 290.139 203.535 C 289.549 203.815 289.069 204.205 288.709 204.705 C 288.349 205.205 288.169 205.845 288.169 206.605 C 288.169 208.095 288.649 209.135 289.619 209.705 C 290.589 210.275 291.899 210.565 293.549 210.565 Z"
        fill="#9e9e9e"/>
    <path
        id="path_59"
        d="M 202.95 193.745 C 202.03 192.965 198 192.335 196.04 192.335 C 192.18 192.335 190.71 194.165 190.71 200.135 L 190.71 215.835 L 185.76 215.835 L 185.76 199.765 C 185.76 192.015 189.67 187.885 195.33 187.885 C 199.3 187.885 203.22 189.565 203.22 191.445 L 202.95 193.745 Z"
        fill="#9e9e9e"/>
    <path
        id="path_60"
        d="M 257.529 215.565 C 251.919 215.565 247.429 213.425 247.429 210.165 L 247.429 208.175 L 247.739 208.175 C 249.609 209.855 253.349 211.235 257.649 211.235 C 262.569 211.235 264.759 209.965 264.759 207.255 C 264.759 205.015 263.569 204.045 255.969 202.715 C 249.739 201.645 246.809 199.915 246.809 195.835 C 246.809 191.405 251.729 187.275 260.029 187.275 C 264.949 187.275 269.749 189.115 269.749 192.425 L 269.749 194.465 L 269.439 194.465 C 268.009 193.035 264.389 191.665 260.459 191.665 C 254.789 191.665 252.539 193.245 252.539 195.535 C 252.539 197.365 253.789 198.135 260.709 199.355 C 267.319 200.525 270.559 203.025 270.559 206.795 C 270.559 212.505 265.129 215.565 257.529 215.565 Z"
        fill="#9e9e9e"/>
    <path
        id="path_61"
        d="M 69.66 179.035 C 70.4 180.295 71.23 181.845 72.15 183.675 C 73.06 185.505 73.99 187.425 74.94 189.435 C 75.89 191.445 76.83 193.495 77.76 195.575 C 78.69 197.655 79.54 199.575 80.32 201.335 C 81.1 199.575 81.94 197.655 82.86 195.575 C 83.77 193.495 84.7 191.455 85.65 189.435 C 86.6 187.425 87.53 185.505 88.44 183.675 C 89.35 181.845 90.18 180.295 90.93 179.035 L 96.69 179.035 C 97 181.565 97.29 184.245 97.57 187.095 C 97.85 189.935 98.1 192.855 98.32 195.825 C 98.54 198.805 98.75 201.795 98.94 204.805 C 99.13 207.815 99.29 210.755 99.43 213.615 L 93.13 213.615 C 92.99 209.595 92.83 205.445 92.64 201.195 C 92.45 196.935 92.17 192.815 91.79 188.825 C 91.42 189.595 90.98 190.505 90.47 191.565 C 89.96 192.635 89.42 193.785 88.85 195.035 C 88.27 196.285 87.69 197.575 87.1 198.905 C 86.51 200.235 85.93 201.525 85.37 202.775 C 84.81 204.025 84.29 205.185 83.82 206.265 C 83.35 207.345 82.94 208.265 82.6 209.035 L 77.83 209.035 C 77.49 208.275 77.09 207.335 76.61 206.245 C 76.14 205.145 75.62 203.975 75.06 202.725 C 74.5 201.475 73.93 200.185 73.33 198.855 C 72.74 197.525 72.15 196.245 71.58 195.015 C 71 193.785 70.46 192.625 69.96 191.545 C 69.45 190.465 69.01 189.555 68.64 188.825 C 68.26 192.815 67.98 196.945 67.79 201.195 C 67.6 205.455 67.44 209.595 67.3 213.615 L 61 213.615 C 61.14 210.755 61.3 207.795 61.49 204.735 C 61.68 201.675 61.89 198.645 62.11 195.625 C 62.33 192.615 62.58 189.695 62.86 186.865 C 63.14 184.035 63.43 181.425 63.74 179.035 L 69.66 179.035 Z"
        fill="#9e9e9e"/>
    <path
        id="path_62"
        d="M 315.529 181.755 L 322.049 181.495 L 322.049 188.375 L 332.069 188.375 L 332.069 193.815 L 322.049 193.815 L 322.049 203.655 C 322.049 205.915 322.409 207.535 323.129 208.505 C 323.849 209.475 325.069 209.965 326.789 209.965 C 327.979 209.965 329.029 209.835 329.939 209.585 C 330.859 209.335 331.579 209.095 332.119 208.885 L 333.199 214.055 C 332.449 214.375 331.459 214.715 330.239 215.055 C 329.019 215.395 327.579 215.565 325.929 215.565 C 323.919 215.565 322.239 215.295 320.889 214.755 C 319.539 214.215 318.469 213.435 317.679 212.415 C 316.889 211.395 316.329 210.155 316.009 208.695 C 315.689 207.245 315.519 205.575 315.519 203.715 L 315.519 181.755 L 315.529 181.755 Z"
        fill="#9e9e9e"/>
    <path
        id="path_63"
        d="M 343.299 188.675 L 349.249 188.675 L 349.249 214.395 L 343.299 214.395 Z"
        fill="#9e9e9e"/>
    <path
        id="path_64"
        d="M 147.67 206.985 C 147.57 206.755 147.49 206.515 147.41 206.275 C 147.49 206.505 147.57 206.745 147.67 206.985 Z"
        fill="#9e9e9e"/>
    <path
        id="path_65"
        d="M 147.4 206.265 C 147.34 206.085 147.27 205.905 147.21 205.725 C 147.27 205.915 147.34 206.095 147.4 206.265 Z"
        fill="#9e9e9e"/>
    <path
        id="path_66"
        d="M 147.87 207.425 C 147.8 207.275 147.73 207.135 147.67 206.985 C 147.73 207.135 147.8 207.275 147.87 207.425 Z"
        fill="#9e9e9e"/>
    <path
        id="path_67"
        d="M 173.03 177.045 L 168.03 177.045 L 168.03 191.715 C 168.03 191.705 168.02 191.695 168.02 191.695 C 167.3 190.325 166.06 189.265 164.59 188.775 C 162.63 188.125 160.46 187.905 158.21 188.245 C 152.58 189.085 147.99 193.475 146.9 199.055 C 146.45 201.345 146.59 203.545 147.17 205.555 C 147.24 205.755 147.34 206.075 147.41 206.275 C 147.49 206.515 147.57 206.755 147.67 206.985 C 147.73 207.135 147.81 207.285 147.87 207.425 C 150.03 212.145 154.77 215.425 160.3 215.425 C 163.48 215.425 166.41 214.335 168.73 212.515 C 170.25 211.315 171.41 209.695 172.01 207.855 C 172.69 205.745 173.03 203.175 173.03 200.105 L 173.03 177.045 Z M 160.3 210.565 C 155.44 210.565 151.49 206.625 151.49 201.755 C 151.49 196.885 155.43 192.945 160.3 192.945 C 165.17 192.945 169.11 196.885 169.11 201.755 C 169.11 206.625 165.16 210.565 160.3 210.565 Z"
        fill="#9e9e9e"/>
    <path
        id="path_68"
        d="M 342.969 176.595 L 349.249 176.595 L 349.249 183.445 L 342.969 183.445 Z"
        fill="#1aa293"/>
</svg>
