<svg
    xmlns="http://www.w3.org/2000/svg"
    viewBox="0 0 69 49"
    id="vector">
    <path
        id="path"
        d="M 57.477 20.286 C 62.146 20.286 65.93 16.503 65.93 11.834 C 65.93 7.164 62.146 3.381 57.477 3.381 C 52.808 3.381 49.025 7.164 49.025 11.834 C 49.025 16.503 52.808 20.286 57.477 20.286 Z M 57.477 6.762 C 60.276 6.762 62.549 9.034 62.549 11.834 C 62.549 14.633 60.276 16.905 57.477 16.905 C 54.678 16.905 52.406 14.633 52.406 11.834 C 52.406 9.034 54.678 6.762 57.477 6.762 Z M 33.81 23.667 C 40.349 23.667 45.644 18.373 45.644 11.834 C 45.644 5.294 40.349 0 33.81 0 C 27.271 0 21.977 5.294 21.977 11.834 C 21.977 18.373 27.271 23.667 33.81 23.667 Z M 33.81 3.381 C 38.469 3.381 42.263 7.174 42.263 11.834 C 42.263 16.493 38.469 20.286 33.81 20.286 C 29.151 20.286 25.358 16.493 25.358 11.834 C 25.358 7.174 29.151 3.381 33.81 3.381 Z M 59.59 23.667 L 55.364 23.667 C 53.757 23.667 52.269 24.173 51.021 25.031 C 52.016 25.705 52.912 26.499 53.706 27.397 C 54.223 27.175 54.782 27.048 55.364 27.048 L 59.59 27.048 C 62.146 27.048 64.239 29.32 64.239 32.12 C 64.239 33.048 65.001 33.81 65.93 33.81 C 66.858 33.81 67.62 33.048 67.62 32.12 C 67.62 27.46 64.016 23.667 59.59 23.667 Z M 10.143 20.286 C 14.812 20.286 18.596 16.503 18.596 11.834 C 18.596 7.164 14.812 3.381 10.143 3.381 C 5.474 3.381 1.69 7.164 1.69 11.834 C 1.69 16.503 5.474 20.286 10.143 20.286 Z M 10.143 6.762 C 12.942 6.762 15.215 9.034 15.215 11.834 C 15.215 14.633 12.942 16.905 10.143 16.905 C 7.344 16.905 5.072 14.633 5.072 11.834 C 5.072 9.034 7.344 6.762 10.143 6.762 Z M 42.273 25.78 C 38.745 25.78 37.867 27.048 33.81 27.048 C 29.753 27.048 28.875 25.78 25.347 25.78 C 21.511 25.78 17.783 27.491 15.594 30.735 C 14.286 32.679 13.524 35.015 13.524 37.53 L 13.524 42.263 C 13.524 45.062 15.796 47.334 18.596 47.334 L 49.025 47.334 C 51.824 47.334 54.096 45.062 54.096 42.263 L 54.096 37.53 C 54.096 35.015 53.334 32.679 52.026 30.735 C 49.837 27.491 46.109 25.78 42.273 25.78 Z M 50.715 42.263 C 50.715 43.191 49.953 43.953 49.025 43.953 L 18.596 43.953 C 17.667 43.953 16.905 43.191 16.905 42.263 L 16.905 37.53 C 16.905 35.774 17.424 34.073 18.395 32.626 C 19.853 30.462 22.452 29.161 25.337 29.161 C 28.232 29.161 29.267 30.429 33.81 30.429 C 38.353 30.429 39.388 29.161 42.273 29.161 C 45.158 29.161 47.757 30.462 49.214 32.626 C 50.186 34.075 50.705 35.776 50.705 37.53 L 50.705 42.263 L 50.715 42.263 Z M 16.599 25.031 C 15.341 24.173 13.851 23.667 12.256 23.667 L 8.03 23.667 C 3.604 23.667 0 27.46 0 32.12 C 0 33.048 0.762 33.81 1.69 33.81 C 2.619 33.81 3.381 33.048 3.381 32.12 C 3.381 29.32 5.474 27.048 8.03 27.048 L 12.256 27.048 C 12.838 27.048 13.397 27.175 13.914 27.395 C 14.708 26.497 15.617 25.707 16.599 25.031 Z"
        fill="#42ae9f"/>
</svg>
