<svg
    xmlns="http://www.w3.org/2000/svg"
    viewBox="0 0 30 30"
    id="vector">
    <path
        id="path"
        d="M 18.545 27.992 C 18.291 28.055 18.031 28.112 17.774 28.159 C 17.452 28.22 17.166 28.406 16.981 28.677 C 16.795 28.948 16.725 29.281 16.784 29.604 C 16.844 29.926 17.03 30.213 17.3 30.399 C 17.57 30.585 17.903 30.657 18.226 30.598 C 18.533 30.541 18.842 30.474 19.145 30.398 C 19.463 30.318 19.737 30.114 19.905 29.833 C 20.074 29.551 20.124 29.214 20.045 28.895 C 19.965 28.577 19.763 28.303 19.482 28.133 C 19.201 27.964 18.864 27.913 18.545 27.991 Z"
        fill="#42ae9f"/>
    <path
        id="path_1"
        d="M 27.718 11.366 C 27.822 11.677 28.046 11.935 28.339 12.082 C 28.633 12.228 28.973 12.253 29.284 12.15 C 29.596 12.047 29.854 11.824 30.002 11.531 C 30.15 11.238 30.175 10.898 30.073 10.586 C 29.973 10.286 29.866 9.992 29.75 9.703 C 29.661 9.449 29.492 9.23 29.268 9.081 C 29.044 8.931 28.777 8.859 28.508 8.874 C 28.239 8.89 27.982 8.993 27.777 9.167 C 27.572 9.341 27.429 9.578 27.37 9.841 C 27.311 10.104 27.339 10.379 27.45 10.624 C 27.544 10.868 27.635 11.113 27.718 11.366 Z"
        fill="#42ae9f"/>
    <path
        id="path_2"
        d="M 22.576 26.221 C 22.357 26.365 22.131 26.505 21.904 26.636 C 21.676 26.766 21.496 26.966 21.388 27.205 C 21.281 27.445 21.253 27.713 21.307 27.969 C 21.361 28.226 21.496 28.459 21.691 28.635 C 21.886 28.81 22.132 28.919 22.393 28.946 C 22.654 28.973 22.917 28.917 23.144 28.785 C 23.414 28.629 23.683 28.463 23.944 28.291 C 24.217 28.109 24.408 27.826 24.473 27.505 C 24.538 27.183 24.473 26.848 24.292 26.575 C 24.111 26.301 23.829 26.11 23.508 26.043 C 23.186 25.977 22.851 26.041 22.577 26.221 Z"
        fill="#42ae9f"/>
    <path
        id="path_3"
        d="M 30.844 14.827 C 30.834 14.565 30.742 14.312 30.579 14.106 C 30.417 13.9 30.193 13.75 29.941 13.679 C 29.688 13.608 29.419 13.619 29.173 13.71 C 28.927 13.801 28.716 13.968 28.571 14.187 C 28.426 14.406 28.354 14.665 28.365 14.927 C 28.375 15.189 28.378 15.454 28.372 15.716 C 28.365 15.978 28.442 16.236 28.591 16.452 C 28.74 16.668 28.954 16.831 29.202 16.918 C 29.45 17.005 29.718 17.011 29.97 16.935 C 30.221 16.859 30.442 16.706 30.6 16.497 C 30.759 16.288 30.847 16.033 30.852 15.771 C 30.859 15.459 30.857 15.142 30.844 14.827 Z"
        fill="#42ae9f"/>
    <path
        id="path_4"
        d="M 27.515 22.958 C 27.341 22.827 27.135 22.745 26.919 22.718 C 26.703 22.692 26.483 22.724 26.283 22.809 C 26.083 22.895 25.909 23.032 25.778 23.206 C 25.621 23.416 25.455 23.623 25.285 23.823 C 25.072 24.073 24.967 24.398 24.993 24.726 C 25.02 25.054 25.175 25.358 25.425 25.571 C 25.455 25.596 25.485 25.619 25.516 25.641 C 25.769 25.819 26.079 25.896 26.386 25.857 C 26.692 25.818 26.974 25.666 27.174 25.431 C 27.374 25.193 27.574 24.945 27.763 24.695 C 27.96 24.432 28.045 24.101 27.999 23.775 C 27.952 23.45 27.778 23.155 27.515 22.958 Z"
        fill="#42ae9f"/>
    <path
        id="path_5"
        d="M 29.339 18.474 C 29.131 18.409 28.91 18.399 28.697 18.447 C 28.485 18.494 28.288 18.597 28.128 18.744 C 27.968 18.892 27.849 19.079 27.784 19.287 C 27.706 19.537 27.619 19.787 27.525 20.033 C 27.409 20.34 27.42 20.681 27.554 20.98 C 27.689 21.279 27.937 21.513 28.244 21.63 C 28.551 21.747 28.891 21.737 29.191 21.603 C 29.491 21.47 29.725 21.222 29.843 20.916 C 29.954 20.624 30.058 20.325 30.151 20.028 C 30.249 19.714 30.219 19.374 30.066 19.083 C 29.914 18.792 29.652 18.573 29.339 18.474 Z"
        fill="#42ae9f"/>
    <path
        id="path_6"
        d="M 13.133 28.17 C 12.033 27.973 10.963 27.633 9.951 27.159 C 9.939 27.153 9.928 27.146 9.916 27.14 C 9.678 27.028 9.441 26.908 9.211 26.783 L 9.211 26.783 C 8.785 26.549 8.372 26.292 7.974 26.012 C 5.699 24.409 4 22.114 3.132 19.469 C 2.263 16.825 2.271 13.97 3.153 11.33 C 4.034 8.69 5.745 6.404 8.028 4.812 L 8.072 4.781 C 10.204 3.313 12.729 2.516 15.317 2.495 C 17.906 2.473 20.443 3.227 22.6 4.66 L 21.631 6.06 C 21.362 6.45 21.531 6.734 21.999 6.691 L 26.212 6.312 C 26.354 6.305 26.49 6.255 26.602 6.169 C 26.714 6.082 26.797 5.963 26.84 5.828 C 26.883 5.692 26.883 5.547 26.84 5.412 L 25.71 1.335 C 25.583 0.878 25.259 0.824 24.99 1.213 L 24.019 2.613 C 20.728 0.395 16.701 -0.46 12.793 0.23 Q 12.193 0.33 11.618 0.481 L 11.61 0.481 L 11.565 0.494 C 8.172 1.362 5.177 3.37 3.085 6.179 C 3.067 6.2 3.049 6.221 3.032 6.244 C 2.962 6.339 2.892 6.436 2.823 6.533 C 2.711 6.692 2.601 6.855 2.495 7.018 C 2.482 7.038 2.472 7.058 2.46 7.077 C 0.724 9.755 -0.13 12.909 0.016 16.097 C 0.016 16.107 0.016 16.118 0.016 16.129 C 0.03 16.44 0.055 16.756 0.088 17.066 C 0.088 17.086 0.094 17.105 0.098 17.125 C 0.133 17.437 0.176 17.75 0.231 18.063 C 0.769 21.212 2.278 24.115 4.548 26.363 L 4.564 26.379 L 4.57 26.384 C 5.182 26.988 5.843 27.54 6.546 28.035 C 8.383 29.336 10.484 30.216 12.7 30.612 C 13.023 30.669 13.356 30.595 13.625 30.407 C 13.894 30.22 14.078 29.932 14.136 29.609 C 14.194 29.286 14.122 28.953 13.934 28.683 C 13.747 28.414 13.461 28.229 13.138 28.17 Z"
        fill="#42ae9f"/>
    <path
        id="path_7"
        d="M 14.667 5.408 C 14.402 5.408 14.147 5.513 13.96 5.701 C 13.772 5.888 13.667 6.143 13.667 6.408 L 13.667 16.408 L 22.812 21.135 C 23.048 21.256 23.323 21.279 23.576 21.198 C 23.829 21.117 24.04 20.939 24.162 20.703 C 24.284 20.467 24.307 20.192 24.227 19.939 C 24.147 19.686 23.969 19.475 23.734 19.352 L 15.675 15.185 L 15.675 6.408 C 15.675 6.232 15.628 6.058 15.54 5.906 C 15.451 5.753 15.324 5.627 15.17 5.539 C 15.017 5.452 14.843 5.407 14.667 5.408 Z"
        fill="#42ae9f"/>
</svg>
