<svg
    xmlns="http://www.w3.org/2000/svg"
    viewBox="0 0 30 30"
    id="vector">
    <path
        id="path"
        d="M 30.263 20.481 C 30.26 18.344 29.559 16.265 28.266 14.564 C 26.973 12.862 25.158 11.629 23.1 11.054 C 22.975 8.23 21.818 5.548 19.851 3.52 C 17.883 1.491 15.237 0.253 12.419 0.042 C 9.6 -0.169 6.8 0.661 4.552 2.374 C 2.304 4.088 0.761 6.568 0.217 9.341 C -0.327 12.115 0.166 14.994 1.6 17.429 L 0.042 23.068 L 5.681 21.508 C 7.313 22.472 9.159 23.018 11.053 23.098 C 11.592 25.032 12.713 26.754 14.263 28.029 C 15.814 29.304 17.72 30.072 19.721 30.227 C 21.723 30.383 23.724 29.918 25.453 28.898 L 30.22 30.22 L 28.9 25.458 C 29.793 23.952 30.264 22.232 30.263 20.481 Z M 5.963 19.592 L 2.587 20.526 L 3.521 17.15 L 3.308 16.817 C 2.011 14.787 1.509 12.347 1.899 9.97 C 2.288 7.593 3.543 5.441 5.42 3.932 C 7.298 2.422 9.668 1.658 12.074 1.787 C 14.479 1.917 16.754 2.93 18.459 4.633 C 20.164 6.335 21.18 8.609 21.313 11.014 C 21.446 13.419 20.685 15.791 19.177 17.67 C 17.67 19.55 15.521 20.807 13.144 21.2 C 10.767 21.593 8.327 21.094 6.295 19.8 Z M 27.679 27.678 L 25.174 26.985 L 24.839 27.203 C 23.468 28.091 21.858 28.539 20.225 28.487 C 18.593 28.434 17.015 27.884 15.703 26.91 C 14.392 25.935 13.41 24.583 12.889 23.035 C 15.474 22.731 17.883 21.563 19.723 19.723 C 21.563 17.882 22.73 15.473 23.034 12.888 C 24.582 13.409 25.934 14.392 26.908 15.703 C 27.882 17.014 28.432 18.592 28.484 20.225 C 28.536 21.857 28.088 23.467 27.2 24.838 L 26.982 25.173 Z M 27.679 27.678"
        fill="#42ae9f"/>
    <path
        id="path_1"
        d="M 10.669 16.018 L 12.442 16.018 L 12.442 17.791 L 10.669 17.791 Z M 10.669 16.018"
        fill="#42ae9f"/>
    <path
        id="path_2"
        d="M 13.329 8.866 C 13.33 9.112 13.279 9.356 13.18 9.582 C 13.081 9.807 12.935 10.01 12.752 10.175 L 10.669 12.081 L 10.669 14.245 L 12.442 14.245 L 12.442 12.862 L 13.949 11.483 C 14.531 10.95 14.919 10.238 15.051 9.459 C 15.183 8.681 15.051 7.881 14.677 7.186 C 14.303 6.491 13.707 5.94 12.985 5.622 C 12.262 5.304 11.454 5.236 10.689 5.429 C 9.923 5.621 9.244 6.064 8.758 6.687 C 8.273 7.31 8.009 8.077 8.009 8.866 L 9.782 8.866 C 9.782 8.396 9.969 7.945 10.301 7.612 C 10.634 7.28 11.085 7.093 11.555 7.093 C 12.025 7.093 12.476 7.28 12.809 7.612 C 13.141 7.945 13.328 8.396 13.328 8.866 Z M 13.329 8.866"
        fill="#42ae9f"/>
</svg>
