<svg
    xmlns="http://www.w3.org/2000/svg"
    viewBox="0 0 22 34"
    id="vector">
    <path
        id="path"
        d="M 22.818 6.78 L 22.818 6.758 C 22.816 6.729 22.812 6.7 22.807 6.671 L 22.807 6.671 C 22.801 6.643 22.793 6.614 22.784 6.587 L 22.776 6.567 C 22.766 6.541 22.755 6.515 22.742 6.49 L 22.742 6.49 C 22.728 6.464 22.713 6.439 22.696 6.415 L 22.683 6.397 C 22.665 6.373 22.646 6.35 22.625 6.329 L 16.495 0.2 C 16.474 0.179 16.451 0.159 16.427 0.141 L 16.409 0.128 C 16.385 0.111 16.36 0.096 16.334 0.082 L 16.334 0.082 C 16.31 0.07 16.285 0.059 16.259 0.049 L 16.237 0.041 C 16.209 0.032 16.181 0.024 16.153 0.018 L 16.153 0.018 C 16.125 0.013 16.096 0.009 16.067 0.007 L 0.677 0.007 C 0.498 0.007 0.325 0.078 0.198 0.205 C 0.071 0.332 0 0.505 0 0.684 L 0 29.661 C 0 29.84 0.071 30.013 0.198 30.14 C 0.325 30.267 0.498 30.338 0.677 30.338 L 10.869 30.338 L 10.869 33.992 C 10.869 34.154 10.927 34.311 11.033 34.434 C 11.138 34.557 11.284 34.638 11.445 34.662 C 11.605 34.686 11.769 34.652 11.906 34.566 L 14.484 32.948 L 17.063 34.566 C 17.2 34.652 17.364 34.686 17.524 34.662 C 17.685 34.638 17.831 34.557 17.936 34.434 C 18.042 34.311 18.1 34.154 18.1 33.992 L 18.1 30.338 L 22.141 30.338 C 22.32 30.338 22.493 30.267 22.62 30.14 C 22.747 30.013 22.818 29.84 22.818 29.661 L 22.818 6.78 Z M 16.693 2.312 L 20.508 6.126 L 16.695 6.126 Z M 10.536 20.912 C 10.479 20.775 10.436 20.631 10.409 20.485 C 10.516 20.389 10.632 20.304 10.757 20.232 C 11.041 20.094 11.286 19.889 11.472 19.634 C 11.658 19.379 11.779 19.082 11.824 18.77 C 11.853 18.636 11.896 18.504 11.95 18.378 C 12.005 18.368 12.062 18.363 12.118 18.365 C 12.193 18.365 12.278 18.365 12.367 18.374 C 12.456 18.383 12.575 18.384 12.686 18.384 C 12.896 18.389 13.105 18.359 13.305 18.297 C 13.592 18.185 13.857 18.021 14.086 17.815 C 14.206 17.706 14.341 17.614 14.486 17.543 C 14.632 17.613 14.767 17.705 14.886 17.815 C 15.115 18.021 15.38 18.184 15.667 18.297 C 15.868 18.36 16.077 18.389 16.287 18.384 C 16.398 18.384 16.503 18.384 16.606 18.374 C 16.709 18.364 16.779 18.365 16.855 18.365 C 16.911 18.363 16.968 18.368 17.023 18.378 C 17.077 18.504 17.119 18.636 17.148 18.77 C 17.193 19.082 17.314 19.379 17.5 19.633 C 17.686 19.888 17.931 20.094 18.215 20.232 C 18.34 20.304 18.456 20.389 18.563 20.485 C 18.536 20.631 18.494 20.775 18.437 20.912 C 18.296 21.202 18.223 21.52 18.223 21.842 C 18.223 22.164 18.296 22.482 18.437 22.772 C 18.495 22.909 18.537 23.052 18.564 23.199 C 18.458 23.296 18.341 23.381 18.216 23.452 C 17.932 23.59 17.687 23.796 17.501 24.051 C 17.315 24.306 17.194 24.603 17.149 24.915 C 17.12 25.049 17.078 25.181 17.024 25.307 C 16.969 25.316 16.912 25.32 16.856 25.319 C 16.78 25.319 16.696 25.319 16.607 25.311 C 16.518 25.303 16.399 25.3 16.288 25.3 C 16.078 25.295 15.868 25.324 15.668 25.387 C 15.381 25.5 15.116 25.663 14.887 25.869 C 14.856 25.95 14.801 26.019 14.729 26.068 C 14.658 26.117 14.574 26.143 14.487 26.143 C 14.4 26.143 14.316 26.117 14.245 26.068 C 14.173 26.019 14.118 25.95 14.087 25.869 C 13.858 25.663 13.593 25.499 13.306 25.387 C 13.106 25.324 12.897 25.295 12.687 25.3 C 12.576 25.3 12.471 25.306 12.368 25.311 C 12.265 25.316 12.195 25.319 12.119 25.319 C 12.063 25.32 12.006 25.316 11.951 25.307 C 11.897 25.181 11.855 25.049 11.825 24.915 C 11.765 24.606 11.645 24.311 11.472 24.048 C 11.275 23.804 11.033 23.601 10.759 23.448 C 10.634 23.377 10.517 23.292 10.411 23.195 C 10.438 23.049 10.481 22.906 10.538 22.768 C 10.679 22.478 10.753 22.16 10.753 21.838 C 10.753 21.516 10.679 21.198 10.538 20.908 Z M 16.747 32.763 L 14.847 31.57 C 14.739 31.503 14.615 31.467 14.488 31.467 C 14.36 31.467 14.236 31.503 14.128 31.57 L 12.228 32.763 L 12.228 26.671 L 12.439 26.663 C 12.528 26.663 12.613 26.654 12.69 26.654 C 12.754 26.651 12.818 26.657 12.881 26.672 C 13.01 26.742 13.131 26.826 13.241 26.924 C 13.448 27.164 13.72 27.34 14.025 27.43 C 14.329 27.519 14.653 27.519 14.957 27.43 C 15.262 27.34 15.534 27.164 15.741 26.924 C 15.85 26.826 15.971 26.742 16.101 26.673 C 16.163 26.658 16.228 26.652 16.292 26.655 C 16.368 26.655 16.453 26.655 16.543 26.663 L 16.754 26.671 L 16.754 32.763 Z M 18.101 28.978 L 18.101 26.125 C 18.275 25.86 18.395 25.564 18.457 25.253 C 18.459 25.107 18.505 24.966 18.591 24.848 C 18.677 24.73 18.798 24.642 18.936 24.596 C 19.347 24.393 19.671 24.05 19.849 23.628 C 19.957 23.184 19.906 22.716 19.706 22.306 C 19.619 22.167 19.574 22.006 19.574 21.842 C 19.574 21.678 19.619 21.517 19.706 21.378 C 19.906 20.968 19.957 20.5 19.849 20.056 C 19.671 19.634 19.347 19.291 18.936 19.088 C 18.812 19.018 18.696 18.934 18.592 18.837 C 18.531 18.708 18.485 18.572 18.457 18.432 C 18.39 17.985 18.166 17.577 17.824 17.282 C 17.537 17.09 17.196 16.996 16.852 17.012 C 16.743 17.012 16.637 17.018 16.535 17.023 C 16.433 17.028 16.36 17.031 16.284 17.031 C 16.22 17.034 16.155 17.028 16.093 17.013 C 15.963 16.944 15.842 16.859 15.733 16.761 C 15.526 16.521 15.253 16.346 14.949 16.256 C 14.645 16.167 14.321 16.167 14.017 16.256 C 13.713 16.346 13.44 16.521 13.233 16.761 C 13.124 16.859 13.003 16.944 12.873 17.013 C 12.811 17.028 12.746 17.034 12.682 17.031 C 12.606 17.031 12.521 17.031 12.431 17.023 C 12.341 17.015 12.223 17.012 12.113 17.012 C 11.769 16.996 11.428 17.09 11.142 17.282 C 10.8 17.577 10.575 17.985 10.508 18.432 C 10.48 18.57 10.435 18.705 10.374 18.832 C 10.27 18.929 10.154 19.014 10.03 19.084 C 9.62 19.287 9.296 19.631 9.118 20.052 C 9.009 20.496 9.06 20.964 9.261 21.374 C 9.347 21.513 9.393 21.674 9.393 21.838 C 9.393 22.002 9.347 22.163 9.261 22.302 C 9.06 22.712 9.009 23.18 9.118 23.624 C 9.296 24.045 9.62 24.389 10.03 24.592 C 10.168 24.638 10.289 24.726 10.375 24.844 C 10.461 24.962 10.507 25.103 10.509 25.249 C 10.571 25.56 10.692 25.856 10.866 26.121 L 10.866 28.974 L 1.35 28.974 L 1.35 1.354 L 15.335 1.354 L 15.335 6.804 C 15.335 6.983 15.406 7.156 15.533 7.283 C 15.66 7.41 15.833 7.481 16.012 7.481 L 21.462 7.481 L 21.462 28.981 Z M 18.101 28.978"
        fill="#42ae9f"
        fill-rule="evenodd"/>
    <path
        id="path_1"
        d="M 3.985 7.48 L 12.704 7.48 C 12.883 7.48 13.056 7.409 13.183 7.282 C 13.31 7.155 13.381 6.982 13.381 6.803 C 13.381 6.624 13.31 6.451 13.183 6.324 C 13.056 6.197 12.883 6.126 12.704 6.126 L 3.982 6.126 C 3.803 6.126 3.63 6.197 3.503 6.324 C 3.376 6.451 3.305 6.624 3.305 6.803 C 3.305 6.982 3.376 7.155 3.503 7.282 C 3.63 7.409 3.803 7.48 3.982 7.48 Z M 3.985 7.48"
        fill="#42ae9f"
        fill-rule="evenodd"/>
    <path
        id="path_2"
        d="M 18.909 9.543 L 3.985 9.543 C 3.806 9.543 3.633 9.614 3.506 9.741 C 3.379 9.868 3.308 10.041 3.308 10.22 C 3.308 10.399 3.379 10.572 3.506 10.699 C 3.633 10.826 3.806 10.897 3.985 10.897 L 18.909 10.897 C 19.088 10.897 19.261 10.826 19.388 10.699 C 19.515 10.572 19.586 10.399 19.586 10.22 C 19.586 10.041 19.515 9.868 19.388 9.741 C 19.261 9.614 19.088 9.543 18.909 9.543 Z M 18.909 9.543"
        fill="#42ae9f"
        fill-rule="evenodd"/>
    <path
        id="path_3"
        d="M 16.204 12.96 L 3.985 12.96 C 3.806 12.96 3.633 13.031 3.506 13.158 C 3.379 13.285 3.308 13.458 3.308 13.637 C 3.308 13.816 3.379 13.989 3.506 14.116 C 3.633 14.243 3.806 14.314 3.985 14.314 L 16.204 14.314 C 16.383 14.314 16.556 14.243 16.683 14.116 C 16.81 13.989 16.881 13.816 16.881 13.637 C 16.881 13.458 16.81 13.285 16.683 13.158 C 16.556 13.031 16.383 12.96 16.204 12.96 Z M 16.204 12.96"
        fill="#42ae9f"
        fill-rule="evenodd"/>
</svg>
