<svg
    xmlns="http://www.w3.org/2000/svg"
    viewBox="0 0 39 25"
    id="vector">
    <path
        id="path"
        d="M 38 9.625 L 38 3.875 C 38 2.287 36.62 1 34.917 1 L 4.083 1 C 2.38 1 1 2.287 1 3.875 L 1 9.625 C 2.703 9.625 4.083 10.912 4.083 12.5 C 4.083 14.088 2.703 15.375 1 15.375 L 1 21.125 C 1 22.713 2.38 24 4.083 24 L 34.917 24 C 36.62 24 38 22.713 38 21.125 L 38 15.375 C 36.297 15.375 34.917 14.088 34.917 12.5 C 34.917 10.912 36.297 9.625 38 9.625 Z"
        fill="#00000000"
        stroke="#42ae9f"
        stroke-width="2"/>
    <path
        id="path_1"
        d="M 26 15 C 25.448 15 25 15.448 25 16 C 25 16.552 25.448 17 26 17 C 26.552 17 27 16.552 27 16 C 27 15.448 26.552 15 26 15 Z M 26 18 C 25.448 18 25 18.448 25 19 C 25 19.552 25.448 20 26 20 C 26.552 20 27 19.552 27 19 C 27 18.448 26.552 18 26 18 Z M 26 8 C 26.552 8 27 7.552 27 7 C 27 6.448 26.552 6 26 6 C 25.448 6 25 6.448 25 7 C 25 7.552 25.448 8 26 8 Z M 26 12 C 25.448 12 25 12.448 25 13 C 25 13.552 25.448 14 26 14 C 26.552 14 27 13.552 27 13 C 27 12.448 26.552 12 26 12 Z M 26 9 C 25.448 9 25 9.448 25 10 C 25 10.552 25.448 11 26 11 C 26.552 11 27 10.552 27 10 C 27 9.448 26.552 9 26 9 Z"
        fill="#42ae9f"/>
</svg>
