<svg
    xmlns="http://www.w3.org/2000/svg"
    viewBox="0 0 24 32"
    id="vector">
    <path
        id="path"
        d="M 23.119 6.124 L 17.875 0.88 C 17.312 0.32 16.55 0 15.756 0 L 3 0 C 1.344 0.006 0 1.35 0 3.006 L 0 29 C 0 30.657 1.344 32 3 32 L 21 32 C 22.656 32 24 30.657 24 29 L 24 8.249 C 24 7.456 23.681 6.687 23.119 6.125 Z M 21.706 7.542 C 21.837 7.674 21.925 7.83 21.969 8.005 L 16 8.005 L 16 2.037 C 16.175 2.081 16.331 2.168 16.462 2.3 L 21.706 7.542 Z M 21 30 L 3 30 C 2.45 30 2 29.55 2 29 L 2 3.007 C 2 2.457 2.45 2.007 3 2.007 L 14 2.007 L 14 8.506 C 14 9.336 14.669 10.006 15.5 10.006 L 22 10.006 L 22 29 C 22 29.55 21.55 30 21 30 Z"
        fill="#42ae9f"/>
    <path
        id="path_1"
        d="M 9.673 14.785 L 9.673 17.6 L 8.25 18.343 L 8.25 18.056 C 8.25 17.871 8.093 17.722 7.898 17.722 L 6.727 17.722 C 6.532 17.722 6.375 17.872 6.375 18.056 L 6.375 19.322 L 5.015 20.032 L 4.986 20.05 C 4.686 20.224 4.5 20.539 4.5 20.874 L 4.5 22.328 C 4.5 22.953 5.111 23.41 5.747 23.273 L 9.724 22.576 C 9.75 22.924 9.787 23.272 9.834 23.617 L 8.593 24.384 C 8.295 24.559 8.111 24.873 8.111 25.206 L 8.111 26.278 C 8.111 26.89 8.701 27.348 9.333 27.228 L 11.085 26.895 C 11.362 27.283 11.672 27.5 12 27.5 C 12.328 27.5 12.638 27.283 12.915 26.895 L 14.667 27.228 C 15.3 27.348 15.889 26.888 15.889 26.278 L 15.889 25.206 C 15.889 24.873 15.705 24.559 15.407 24.384 L 14.165 23.617 C 14.213 23.272 14.25 22.924 14.275 22.577 L 18.253 23.273 C 18.889 23.411 19.5 22.952 19.5 22.328 L 19.5 20.874 C 19.5 20.54 19.314 20.224 19.014 20.049 L 18.999 20.04 L 17.625 19.322 L 17.625 18.056 C 17.625 17.871 17.468 17.722 17.273 17.722 L 16.102 17.722 C 15.907 17.722 15.75 17.872 15.75 18.056 L 15.75 18.343 L 14.327 17.6 L 14.327 14.785 C 14.327 13.31 13.49 11.5 12 11.5 C 10.51 11.5 9.673 13.312 9.673 14.785 Z M 12.921 14.785 L 12.921 18.387 L 18.094 21.09 L 18.094 21.89 L 12.935 20.987 C 12.888 22.471 12.892 22.725 12.643 24.27 L 14.483 25.405 L 14.483 25.834 L 12 25.364 L 9.517 25.834 L 9.517 25.405 L 11.357 24.27 C 11.107 22.723 11.112 22.469 11.065 20.987 L 5.906 21.89 L 5.906 21.09 L 11.08 18.387 L 11.08 14.785 C 11.08 13.71 11.532 12.833 12.001 12.833 C 12.47 12.833 12.922 13.711 12.922 14.785 Z"
        fill="#42ae9f"/>
</svg>
