<svg
    xmlns="http://www.w3.org/2000/svg"
    viewBox="0 0 32 36"
    id="vector">
    <path
        id="path"
        d="M 30.996 4.636 L 27.29 0.989 C 26.647 0.356 25.775 0 24.866 0 L 12.571 0 C 10.678 0 9.143 1.511 9.143 3.375 L 9.143 6.75 L 3.429 6.75 C 1.535 6.75 0 8.261 0 10.125 L 0 32.625 C 0 34.489 1.535 36 3.429 36 L 19.429 36 C 21.322 36 22.857 34.489 22.857 32.625 L 22.857 29.25 L 28.571 29.25 C 30.465 29.25 32 27.739 32 25.875 L 32 7.023 C 32 6.128 31.639 5.269 30.996 4.636 Z M 25.143 2.284 C 25.344 2.333 25.527 2.436 25.674 2.58 L 29.379 6.228 C 29.526 6.372 29.629 6.552 29.679 6.75 L 25.143 6.75 L 25.143 2.284 Z M 20.571 32.625 C 20.571 33.246 20.06 33.75 19.429 33.75 L 3.429 33.75 C 2.797 33.75 2.286 33.246 2.286 32.625 L 2.286 10.125 C 2.286 9.504 2.797 9 3.429 9 L 9.143 9 L 9.143 25.875 C 9.143 27.739 10.678 29.25 12.571 29.25 L 20.571 29.25 L 20.571 32.625 Z M 29.714 25.875 C 29.714 26.496 29.203 27 28.571 27 L 12.571 27 C 11.94 27 11.429 26.496 11.429 25.875 L 11.429 3.375 C 11.429 2.754 11.94 2.25 12.571 2.25 L 22.857 2.25 L 22.857 7.313 C 22.86 8.243 23.626 8.997 24.571 9 L 29.714 9 L 29.714 25.875 Z"
        fill="#42ae9f"
        stroke="#00000000"
        stroke-width="1"/>
    <path
        id="path_1"
        d="M 26.506 13.794 L 21.185 12.106 C 20.74 11.965 20.26 11.965 19.815 12.106 L 14.494 13.794 C 14.199 13.888 14 14.15 14 14.446 L 14 15.499 L 19.981 13.791 C 20.32 13.694 20.679 13.694 21.019 13.791 L 27 15.499 L 27 14.446 C 27 14.15 26.801 13.888 26.506 13.794 Z M 20.189 14.45 L 14 16.217 L 14 21.124 C 14 21.446 14.235 21.725 14.566 21.795 L 20.03 22.951 C 20.34 23.016 20.66 23.016 20.97 22.951 L 26.434 21.795 C 26.765 21.725 27 21.446 27 21.124 L 27 16.217 L 20.812 14.45 C 20.608 14.391 20.392 14.391 20.189 14.45 Z M 16.889 16.944 C 16.889 17.021 16.834 17.089 16.756 17.11 L 14.95 17.578 C 14.835 17.608 14.722 17.526 14.722 17.413 L 14.722 17.056 C 14.722 16.979 14.777 16.911 14.855 16.89 L 16.661 16.422 C 16.776 16.392 16.889 16.474 16.889 16.587 L 16.889 16.944 Z M 20.139 16.1 C 20.139 16.177 20.084 16.245 20.006 16.266 L 17.839 16.828 C 17.724 16.858 17.611 16.776 17.611 16.662 L 17.611 16.306 C 17.611 16.229 17.665 16.161 17.744 16.14 L 19.911 15.578 C 20.026 15.548 20.139 15.63 20.139 15.744 L 20.139 16.1 L 20.139 16.1 Z M 24.111 16.587 C 24.111 16.474 24.224 16.392 24.339 16.422 L 26.145 16.89 C 26.223 16.911 26.278 16.979 26.278 17.056 L 26.278 17.413 C 26.278 17.526 26.164 17.608 26.049 17.578 L 24.244 17.11 C 24.165 17.089 24.111 17.021 24.111 16.944 L 24.111 16.587 L 24.111 16.587 Z M 20.861 15.744 C 20.861 15.63 20.974 15.548 21.089 15.578 L 23.256 16.14 C 23.334 16.161 23.389 16.229 23.389 16.306 L 23.389 16.662 C 23.389 16.776 23.275 16.858 23.161 16.828 L 20.994 16.266 C 20.915 16.245 20.861 16.177 20.861 16.1 L 20.861 15.744 Z"
        fill="#42ae9f"
        stroke="#00000000"
        stroke-width="1"/>
</svg>
