<svg
    xmlns="http://www.w3.org/2000/svg"
    viewBox="0 0 18 24"
    id="vector">
    <path
        id="path"
        d="M 8.913 1.02 L 12.083 1.02 C 12.959 1.02 13.669 1.777 13.669 2.709 L 13.669 19.583 C 13.669 20.515 12.959 21.27 12.084 21.27 L 8.914 21.27 C 8.914 20.338 8.204 19.583 7.328 19.583 C 6.453 19.583 5.743 20.338 5.743 21.27 L 2.573 21.27 C 1.697 21.27 0.987 20.515 0.987 19.583 L 0.987 2.708 C 0.987 1.776 1.697 1.021 2.572 1.021 L 5.742 1.021 C 5.742 1.953 6.452 2.708 7.328 2.708 C 8.204 2.708 8.913 1.953 8.913 1.021 Z"
        fill="#00000000"
        stroke="#42ae9f"
        stroke-width="1.7"/>
    <path
        id="path_1"
        d="M 5.949 7.588 C 5.949 7.89 5.703 8.135 5.399 8.135 C 5.094 8.135 4.847 7.89 4.847 7.588 C 4.847 7.286 5.094 7.041 5.398 7.041 C 5.703 7.041 5.95 7.286 5.95 7.588 Z M 4.296 7.588 C 4.296 7.89 4.049 8.135 3.744 8.135 C 3.44 8.135 3.193 7.89 3.193 7.588 C 3.193 7.286 3.44 7.041 3.744 7.041 C 4.049 7.041 4.296 7.286 4.296 7.588 Z M 9.809 7.588 C 9.809 7.286 10.056 7.041 10.361 7.041 C 10.665 7.041 10.912 7.286 10.912 7.588 C 10.912 7.89 10.665 8.135 10.361 8.135 C 10.056 8.135 9.809 7.89 9.809 7.588 Z M 7.604 7.588 C 7.604 7.89 7.357 8.135 7.052 8.135 C 6.748 8.135 6.501 7.89 6.501 7.588 C 6.501 7.286 6.748 7.041 7.052 7.041 C 7.357 7.041 7.604 7.286 7.604 7.588 Z M 9.258 7.588 C 9.258 7.89 9.011 8.135 8.707 8.135 C 8.402 8.135 8.155 7.89 8.155 7.588 C 8.155 7.286 8.402 7.041 8.707 7.041 C 9.011 7.041 9.257 7.286 9.257 7.588 Z"
        fill="#42ae9f"
        stroke="#42ae9f"
        stroke-width="0.4"/>
    <path
        id="path_2"
        d="M 10.441 18.864 C 10.441 19.6 10.672 20.317 11.101 20.912 C 11.53 21.508 12.135 21.951 12.828 22.178 C 13.522 22.406 14.27 22.406 14.964 22.178 C 15.657 21.951 16.262 21.508 16.691 20.912 C 17.12 20.317 17.351 19.6 17.351 18.864 C 17.351 17.94 16.987 17.053 16.339 16.4 C 15.691 15.746 14.812 15.379 13.896 15.379 C 12.98 15.379 12.101 15.746 11.453 16.4 C 10.805 17.053 10.441 17.94 10.441 18.864 Z"
        fill="#f4f4f4"
        stroke="#42ae9f"
        stroke-width="1.3"
        fill-rule="evenodd"/>
    <path
        id="path_3"
        d="M 13.551 20.204 C 13.48 20.276 13.365 20.276 13.294 20.204 L 12.114 19.014 C 12.044 18.942 12.044 18.826 12.114 18.754 L 12.371 18.494 C 12.405 18.46 12.451 18.441 12.499 18.441 C 12.548 18.441 12.594 18.461 12.628 18.495 L 13.422 19.297 L 15.124 17.579 C 15.158 17.545 15.204 17.526 15.252 17.526 C 15.301 17.526 15.347 17.546 15.381 17.579 L 15.637 17.839 C 15.708 17.91 15.708 18.026 15.637 18.098 L 13.551 20.204 Z"
        fill="#00af97"
        stroke="#42ae9f"
        stroke-width="0.2"/>
</svg>
