<svg
    xmlns="http://www.w3.org/2000/svg"
    viewBox="0 0 40 40"
    id="vector">
    <path
        id="path"
        d="M 19.766 22.725 C 19.987 22.791 20.222 22.791 20.443 22.725 C 22.955 21.971 25.158 20.427 26.724 18.323 C 28.289 16.219 29.136 13.665 29.136 11.042 L 29.136 4.319 C 29.136 4.007 29.012 3.707 28.791 3.486 C 28.57 3.265 28.27 3.141 27.958 3.141 C 27.232 3.144 26.52 2.943 25.903 2.561 C 25.286 2.18 24.787 1.633 24.465 0.983 L 24.299 0.651 C 24.201 0.455 24.051 0.291 23.865 0.176 C 23.679 0.061 23.465 0 23.246 0 L 16.963 0 C 16.744 0 16.53 0.061 16.344 0.176 C 16.157 0.291 16.007 0.455 15.909 0.651 L 15.743 0.983 C 15.421 1.633 14.923 2.18 14.305 2.562 C 13.688 2.944 12.976 3.145 12.25 3.142 C 11.938 3.142 11.639 3.266 11.418 3.487 C 11.197 3.708 11.073 4.007 11.073 4.319 L 11.073 11.041 C 11.073 13.664 11.92 16.218 13.485 18.322 C 15.051 20.426 17.254 21.97 19.766 22.724 Z M 13.429 5.388 C 14.315 5.221 15.154 4.864 15.888 4.34 C 16.622 3.817 17.234 3.139 17.68 2.356 L 22.529 2.356 C 22.975 3.139 23.587 3.817 24.321 4.34 C 25.055 4.864 25.894 5.221 26.78 5.388 L 26.78 11.042 C 26.79 13.1 26.15 15.109 24.951 16.782 C 23.753 18.455 22.057 19.708 20.105 20.361 C 18.153 19.708 16.457 18.455 15.259 16.782 C 14.06 15.109 13.42 13.1 13.43 11.042 Z"
        fill="#42ae9f"/>
    <path
        id="path_1"
        d="M 18.994 14.786 C 19.149 14.786 19.302 14.756 19.445 14.697 C 19.588 14.637 19.718 14.551 19.827 14.441 L 24.269 9.999 C 24.489 9.778 24.612 9.478 24.611 9.167 C 24.611 8.855 24.487 8.556 24.266 8.336 C 24.046 8.115 23.747 7.991 23.435 7.991 C 23.124 7.99 22.824 8.113 22.603 8.333 L 18.994 11.942 L 17.606 10.554 C 17.385 10.334 17.085 10.211 16.774 10.212 C 16.462 10.212 16.163 10.336 15.943 10.557 C 15.722 10.777 15.598 11.076 15.598 11.388 C 15.597 11.699 15.72 11.999 15.94 12.22 L 18.161 14.441 C 18.27 14.551 18.4 14.637 18.543 14.697 C 18.686 14.756 18.839 14.786 18.994 14.786 Z"
        fill="#42ae9f"/>
    <path
        id="path_2"
        d="M 35.588 27.699 C 36.536 26.74 37.066 25.443 37.06 24.094 C 37.055 22.745 36.515 21.453 35.56 20.501 C 34.604 19.549 33.309 19.014 31.96 19.014 C 30.612 19.014 29.317 19.549 28.361 20.501 C 27.406 21.453 26.866 22.745 26.861 24.094 C 26.855 25.443 27.385 26.74 28.333 27.699 C 26.437 28.626 24.969 30.247 24.233 32.225 C 23.961 32.01 23.673 31.817 23.371 31.647 C 24.096 30.808 24.471 29.721 24.418 28.614 C 24.364 27.506 23.886 26.46 23.083 25.695 C 22.28 24.93 21.213 24.503 20.104 24.503 C 18.995 24.503 17.928 24.93 17.125 25.695 C 16.322 26.46 15.844 27.506 15.79 28.614 C 15.737 29.721 16.112 30.808 16.837 31.647 C 16.535 31.817 16.247 32.01 15.975 32.225 C 15.239 30.247 13.77 28.626 11.875 27.699 C 12.823 26.74 13.353 25.443 13.347 24.094 C 13.342 22.745 12.802 21.453 11.847 20.501 C 10.891 19.549 9.596 19.014 8.248 19.014 C 6.899 19.014 5.604 19.549 4.648 20.501 C 3.693 21.453 3.153 22.745 3.148 24.094 C 3.142 25.443 3.672 26.74 4.62 27.699 C 3.235 28.378 2.068 29.433 1.251 30.742 C 0.435 32.05 0.001 33.562 0 35.105 L 0 39.032 C 0.001 39.343 0.126 39.642 0.347 39.862 C 0.567 40.081 0.867 40.205 1.178 40.205 L 39.031 40.205 C 39.343 40.205 39.643 40.081 39.864 39.86 C 40.085 39.639 40.209 39.339 40.209 39.027 L 40.209 35.105 C 40.208 33.562 39.774 32.05 38.957 30.741 C 38.141 29.432 36.973 28.378 35.588 27.699 Z M 29.214 24.109 C 29.214 23.38 29.504 22.681 30.019 22.165 C 30.535 21.65 31.234 21.36 31.963 21.36 C 32.692 21.36 33.391 21.65 33.907 22.165 C 34.422 22.681 34.712 23.38 34.712 24.109 C 34.712 24.838 34.422 25.537 33.907 26.053 C 33.391 26.568 32.692 26.858 31.963 26.858 C 31.234 26.857 30.534 26.567 30.019 26.051 C 29.503 25.535 29.214 24.834 29.214 24.105 Z M 18.141 28.821 C 18.141 28.376 18.293 27.944 18.57 27.597 C 18.848 27.249 19.235 27.006 19.669 26.908 C 20.103 26.809 20.557 26.861 20.958 27.054 C 21.358 27.248 21.681 27.572 21.874 27.973 C 22.066 28.374 22.117 28.828 22.017 29.262 C 21.917 29.695 21.673 30.082 21.325 30.359 C 20.977 30.636 20.545 30.786 20.1 30.785 C 19.581 30.783 19.082 30.575 18.715 30.208 C 18.348 29.84 18.142 29.341 18.141 28.822 Z M 5.5 24.105 C 5.5 23.376 5.79 22.677 6.305 22.161 C 6.821 21.646 7.52 21.356 8.249 21.356 C 8.978 21.356 9.677 21.646 10.193 22.161 C 10.708 22.677 10.998 23.376 10.998 24.105 C 10.998 24.834 10.708 25.533 10.193 26.049 C 9.677 26.564 8.978 26.854 8.249 26.854 C 7.52 26.853 6.821 26.563 6.306 26.048 C 5.791 25.533 5.501 24.834 5.5 24.105 Z M 2.356 35.105 C 2.356 33.593 2.938 32.138 3.981 31.043 C 5.023 29.948 6.449 29.295 7.959 29.222 C 9.469 29.148 10.951 29.658 12.095 30.646 C 13.24 31.635 13.961 33.026 14.108 34.531 C 13.66 35.443 13.428 36.445 13.429 37.461 L 13.429 37.854 L 2.356 37.854 Z M 24.424 37.854 L 15.785 37.854 L 15.785 37.461 C 15.789 36.318 16.246 35.222 17.055 34.415 C 17.864 33.609 18.962 33.155 20.105 33.155 C 21.247 33.155 22.345 33.609 23.154 34.415 C 23.963 35.222 24.42 36.318 24.424 37.461 Z M 37.853 37.854 L 26.78 37.854 L 26.78 37.461 C 26.781 36.445 26.549 35.443 26.101 34.531 C 26.248 33.026 26.969 31.635 28.114 30.646 C 29.258 29.658 30.74 29.148 32.25 29.222 C 33.76 29.295 35.186 29.948 36.228 31.043 C 37.271 32.138 37.853 33.593 37.853 35.105 Z"
        fill="#42ae9f"/>
</svg>
