<svg
    xmlns="http://www.w3.org/2000/svg"
    viewBox="0 0 32 32"
    id="vector">
    <path
        id="path"
        d="M 29.68 25.6 L 18.68 3.68 C 18.357 2.986 17.78 2.441 17.068 2.158 C 16.357 1.875 15.563 1.875 14.852 2.158 C 14.14 2.441 13.563 2.986 13.24 3.68 L 2.32 25.6 C 1.996 26.215 1.895 26.924 2.035 27.605 C 2.175 28.285 2.547 28.897 3.088 29.334 C 3.629 29.771 4.305 30.006 5 30 L 27 30 C 27.7 30.016 28.383 29.786 28.932 29.351 C 29.48 28.916 29.859 28.303 30.003 27.618 C 30.147 26.933 30.047 26.219 29.72 25.6 Z M 27.84 27.51 C 27.753 27.656 27.631 27.778 27.484 27.864 C 27.337 27.95 27.17 27.997 27 28 L 5 28 C 4.823 28.003 4.648 27.96 4.494 27.874 C 4.339 27.788 4.21 27.662 4.12 27.51 C 4.032 27.358 3.986 27.186 3.986 27.01 C 3.986 26.834 4.032 26.662 4.12 26.51 L 15.12 4.58 L 15.12 4.58 C 15.194 4.394 15.322 4.233 15.488 4.121 C 15.653 4.008 15.849 3.948 16.05 3.948 C 16.251 3.948 16.447 4.008 16.612 4.121 C 16.778 4.233 16.906 4.394 16.98 4.58 L 27.98 26.51 C 28.047 26.674 28.07 26.853 28.045 27.029 C 28.021 27.205 27.95 27.371 27.84 27.51 Z"
        fill="#42ae9f"/>
    <path
        id="path_1"
        d="M 15 11 L 17 11 L 17 20 L 15 20 Z"
        fill="#42ae9f"/>
    <path
        id="path_2"
        d="M 16 24 M 14 24 C 14 23.47 14.211 22.961 14.586 22.586 C 14.961 22.211 15.47 22 16 22 C 16.53 22 17.039 22.211 17.414 22.586 C 17.789 22.961 18 23.47 18 24 C 18 24.53 17.789 25.039 17.414 25.414 C 17.039 25.789 16.53 26 16 26 C 15.47 26 14.961 25.789 14.586 25.414 C 14.211 25.039 14 24.53 14 24"
        fill="#42ae9f"/>
</svg>
